<?xml version="1.0" encoding="UTF-8"?>
<svg version="1.1" xmlns="http://www.w3.org/2000/svg" width="512" height="512">
<path d="M0 0 C168.96 0 337.92 0 512 0 C512 236.41368585 512 236.41368585 479.48828125 270.64453125 C454.53062114 294.91423135 423.75727342 299.63658099 390.44458103 299.52289867 C386.46902887 299.51374892 382.49354367 299.52786645 378.51800537 299.53881836 C370.75391402 299.55650357 362.98997828 299.55280856 355.2258811 299.5411678 C348.90970946 299.53209406 342.59358109 299.5309264 336.27740479 299.53526306 C334.9233808 299.53618246 334.9233808 299.53618246 333.5420028 299.53712043 C331.70759756 299.53839947 329.87319234 299.53969633 328.03878713 299.5410108 C310.88142618 299.5523873 293.72415104 299.53934905 276.56680417 299.51780933 C261.87977964 299.49994102 247.19288162 299.50304596 232.50585938 299.52148438 C215.4053305 299.54294304 198.30487663 299.55128894 181.20433617 299.53903532 C179.37708919 299.53776127 177.54984221 299.53650378 175.72259521 299.53526306 C174.82380964 299.53464596 173.92502407 299.53402886 172.99900258 299.53339306 C166.6983929 299.52995511 160.39783124 299.53573474 154.097229 299.54518127 C146.40745741 299.55645837 138.7178489 299.55324222 131.02809572 299.5320583 C127.11283436 299.52162405 123.19784383 299.51729376 119.28258514 299.53065491 C83.03695574 299.64390608 54.95609117 291.75297876 28.35546875 266.48828125 C-33.81603994 202.55443059 0 47.72360022 0 0 Z M124 109 C118.45786927 117.92825356 116.36044222 126.5330983 118.6484375 136.953125 C121.71496775 146.33618337 126.41377482 151.92774114 135.1875 156.4375 C143.54185424 160.37337677 150.6546202 161.33256093 159.5625 158.4375 C168.07669887 155.07474918 174.71746769 148.7341411 178.6875 140.5 C182.00685734 131.64838042 181.71586096 124.3970121 178.25390625 115.67578125 C174.08287155 106.77497512 167.72360555 101.37583627 158.6875 97.625 C144.71849075 95.25737131 133.45913599 98.04829818 124 109 Z M230.46484375 109.796875 C224.45204569 117.72044563 223.91982737 126.29790888 225 136 C227.82622562 145.25239641 233.55314134 152.31975733 241.95703125 157.1171875 C250.39342357 160.97697484 258.86146996 160.88345914 267.54296875 158.04296875 C276.09806797 154.41147194 282.72738156 147.29843877 286.26953125 138.75390625 C288.4048251 130.70373425 288.31481159 121.42338581 284.32421875 113.98828125 C278.91251123 105.8627381 271.8213375 99.07759063 262 97 C248.70251915 95.7436973 239.12566148 99.65953109 230.46484375 109.796875 Z M339.82421875 105.80078125 C334.00356641 112.81797026 330.5769851 121.34319433 330.7265625 130.4375 C331.67378644 139.31434148 335.68088425 145.91224775 342 152 C342.7425 152.7425 343.485 153.485 344.25 154.25 C351.06504798 158.58684872 358.90348765 161.33804083 367 160 C377.50487333 157.31726334 385.12630331 152.5128136 390.8125 143.2109375 C394.75179309 135.87659575 395.23995202 127.38358915 393.3828125 119.3203125 C390.35019124 110.70552115 384.83036506 104.14870059 376.6875 100 C363.80672426 94.17635257 350.21479649 96.08464263 339.82421875 105.80078125 Z " fill="#EFD500" transform="translate(0,213)"/>
<path d="M0 0 C1.19367188 -0.01675781 2.38734375 -0.03351562 3.6171875 -0.05078125 C9.96570516 0.6066933 14.06990363 3.5104122 18.125 8.3125 C22.125 16.3125 22.125 16.3125 22.125 42.3125 C78.225 42.3125 134.325 42.3125 192.125 42.3125 C192.125 33.7325 192.125 25.1525 192.125 16.3125 C198.725 3.1125 198.725 3.1125 207.125 0.3125 C214.63477012 -0.35545922 221.35867296 -0.82164481 227.578125 3.8828125 C231.72576155 7.71623416 234.9219756 11.60812763 235.35205078 17.33691406 C235.34157715 18.48901367 235.33110352 19.64111328 235.3203125 20.828125 C235.31386719 22.07851563 235.30742187 23.32890625 235.30078125 24.6171875 C235.28402344 25.91914063 235.26726562 27.22109375 235.25 28.5625 C235.24097656 29.87992188 235.23195313 31.19734375 235.22265625 32.5546875 C235.19908533 35.80747462 235.16618022 39.05989589 235.125 42.3125 C235.90399658 42.29678955 236.68299316 42.2810791 237.4855957 42.26489258 C272.73944116 41.64959238 304.58985235 46.77021428 331.22167969 71.93798828 C349.22332198 89.62595754 358.63510424 110.61807332 363.125 135.3125 C363.125 147.1925 363.125 159.0725 363.125 171.3125 C194.165 171.3125 25.205 171.3125 -148.875 171.3125 C-148.875 130.49076196 -145.31596999 101.57835244 -117.625 72.625 C-92.03199263 47.89589161 -60.93002737 41.7566581 -26.55078125 42.20703125 C-24.6588157 42.24005252 -22.766869 42.27434565 -20.875 42.3125 C-20.91427612 41.10303711 -20.91427612 41.10303711 -20.9543457 39.86914062 C-21.05886261 36.18379528 -21.12350239 32.49876262 -21.1875 28.8125 C-21.22939453 27.5440625 -21.27128906 26.275625 -21.31445312 24.96875 C-21.41255958 17.43417444 -21.06312251 12.0422397 -15.875 6.3125 C-10.73818103 1.55154583 -7.01294988 0.02262242 0 0 Z " fill="#EFD500" transform="translate(148.875,-0.3125)"/>
</svg>
