<?xml version="1.0" encoding="UTF-8"?>
<svg version="1.1" xmlns="http://www.w3.org/2000/svg" width="512" height="512">
<path d="M0 0 C8.67964949 5.17564285 12.94439559 11.76287428 16.109375 21.2578125 C16.109375 27.1978125 16.109375 33.1378125 16.109375 39.2578125 C58.349375 39.2578125 100.589375 39.2578125 144.109375 39.2578125 C144.109375 33.3178125 144.109375 27.3778125 144.109375 21.2578125 C146.86430509 11.61555717 151.44532732 5.51315827 159.984375 0.30078125 C168.30121305 -3.78119625 178.14528745 -4.10011688 187.12890625 -2.0546875 C195.89800392 1.17815957 202.00332695 6.89193182 206.109375 15.2578125 C208.31593237 20.46498248 208.34943103 25.0835718 208.234375 30.6328125 C208.22535156 31.46425781 208.21632813 32.29570313 208.20703125 33.15234375 C208.1836372 35.18762587 208.14777225 37.22275814 208.109375 39.2578125 C209.30691406 39.23460937 210.50445312 39.21140625 211.73828125 39.1875 C247.83341381 38.69549695 277.96074333 50.25716953 304.109375 75.2578125 C323.65051372 94.68771135 336.19591831 123.05978819 336.386186 150.65408379 C336.3830888 151.63727071 336.3799916 152.62045764 336.37680054 153.63343811 C336.38133165 154.71242683 336.38586276 155.79141556 336.39053118 156.90310091 C336.40309331 160.48370382 336.40156011 164.06415302 336.39990234 167.64477539 C336.40589277 170.22652378 336.4126995 172.80827038 336.42025757 175.39001465 C336.43679351 181.65526378 336.44236377 187.92047526 336.44348232 194.18574441 C336.44443648 199.28541477 336.44856503 204.38507284 336.45488358 209.4847393 C336.47247701 223.9820452 336.48172561 238.47932162 336.48022263 252.97663826 C336.48010276 254.14630413 336.48010276 254.14630413 336.47998047 255.33959961 C336.47989871 256.12034261 336.47981695 256.90108561 336.47973271 257.70548748 C336.4789207 270.34369917 336.49804177 282.98179143 336.5262572 295.6199686 C336.55508136 308.63480153 336.56879223 321.64957639 336.56706965 334.664442 C336.56640895 341.95594772 336.57175939 349.24732828 336.59342575 356.53880501 C336.61369439 363.40325599 336.61286715 370.26744011 336.59839249 377.1319046 C336.59631505 379.63791479 336.60094096 382.14394184 336.6131134 384.64992332 C336.75808042 416.58724165 329.67324783 444.89862282 308.109375 469.2578125 C307.53703125 469.96164062 306.9646875 470.66546875 306.375 471.390625 C301.61894549 477.16583404 296.02526309 481.70966455 290.109375 486.2578125 C289.32820313 486.86625 288.54703125 487.4746875 287.7421875 488.1015625 C276.32637877 496.55771712 262.84627731 502.71894992 249.109375 506.2578125 C247.79933313 506.62906297 247.79933313 506.62906297 246.46282578 507.00781345 C233.35437359 510.19958747 220.01800492 509.69360526 206.60767174 509.66464555 C202.87745375 509.65987302 199.1472853 509.67245955 195.41708374 509.68266296 C188.12752515 509.6997779 180.83805304 509.70070612 173.54847959 509.69545006 C167.61697426 509.6913929 161.6854943 509.69287018 155.75399017 509.69819832 C154.906697 509.69894674 154.05940382 509.69969516 153.18643509 509.70046626 C151.46461099 509.7019979 149.74278689 509.70353625 148.0209628 509.70508123 C131.9070434 509.71878022 115.79317266 509.71338726 99.67925438 509.70189602 C84.97518108 509.69196968 70.27123372 509.70489858 55.56717983 509.72883021 C40.42782402 509.75328248 25.28852671 509.76281387 10.14915156 509.75617748 C1.66610091 509.75269841 -6.81685301 509.75482984 -15.29988861 509.77242851 C-22.52234584 509.78722756 -29.74463823 509.78768642 -36.96709248 509.7703576 C-40.64348748 509.76190742 -44.319589 509.75954893 -47.99596786 509.77500916 C-81.26607501 509.90475349 -110.39619293 503.85607709 -135.890625 481.2578125 C-137.02177734 480.34128906 -137.02177734 480.34128906 -138.17578125 479.40625 C-159.35538286 461.84996648 -172.28895894 434.16061311 -175.890625 407.2578125 C-176.03816824 403.69966686 -176.03414394 400.14434547 -176.03106689 396.58352661 C-176.03403802 395.50754774 -176.03700914 394.43156887 -176.0400703 393.32298458 C-176.04874313 389.71678001 -176.05026438 386.1106087 -176.05175781 382.50439453 C-176.05638711 379.91866485 -176.06141193 377.33293585 -176.06680298 374.74720764 C-176.08036524 367.71985497 -176.08640833 360.69250802 -176.09081364 353.66514444 C-176.09358082 349.27120627 -176.09781915 344.87727028 -176.10231781 340.48333359 C-176.11450998 328.30185395 -176.12480793 316.12037606 -176.1281929 303.93889046 C-176.12841247 303.1597092 -176.12863203 302.38052793 -176.12885825 301.57773512 C-176.12907653 300.79674985 -176.12929481 300.01576458 -176.1295197 299.2111131 C-176.12996316 297.62869779 -176.13040972 296.04628249 -176.13085938 294.46386719 C-176.1310808 293.67894425 -176.13130223 292.89402131 -176.13153037 292.08531283 C-176.13547251 279.38651897 -176.15290888 266.68778271 -176.1762189 253.98901106 C-176.19999459 240.93031827 -176.21239765 227.87165429 -176.21356082 214.81293952 C-176.21447434 207.48960157 -176.22014421 200.16633857 -176.23838043 192.84302139 C-176.25549346 185.94669057 -176.25698777 179.05050356 -176.24824142 172.15415764 C-176.24747413 169.63237947 -176.25177278 167.11059351 -176.26169968 164.58883476 C-176.32310279 148.00877064 -175.81708318 132.42156045 -169.765625 116.7578125 C-169.4655957 115.96866455 -169.16556641 115.1795166 -168.85644531 114.36645508 C-156.82546024 83.81376235 -133.71720675 61.3966159 -103.953125 48.0078125 C-85.61205892 40.47487465 -67.44240145 38.87898368 -47.890625 39.2578125 C-47.93703125 38.07445312 -47.9834375 36.89109375 -48.03125 35.671875 C-48.35235455 24.08882512 -47.89459567 14.67683665 -39.59375 5.7890625 C-28.99673947 -3.73852495 -12.95346121 -6.21592266 0 0 Z M-111.890625 189.2578125 C-111.931875 222.2784375 -111.973125 255.2990625 -112.015625 289.3203125 C-112.03383301 299.72957275 -112.05204102 310.13883301 -112.07080078 320.86352539 C-112.07749148 330.23046046 -112.07749148 330.23046046 -112.08151245 339.59739685 C-112.08336853 343.75509292 -112.09083473 347.91273741 -112.10177612 352.07041931 C-112.11558354 357.38834428 -112.11959088 362.7061952 -112.11676955 368.02413642 C-112.11735875 369.96672477 -112.12127144 371.90931594 -112.12905526 373.85188878 C-112.20427624 393.55373394 -111.72261575 411.7827127 -97.890625 427.2578125 C-97.34535156 427.88429688 -96.80007812 428.51078125 -96.23828125 429.15625 C-86.37335596 439.78715773 -73.04842351 444.14057491 -58.890625 445.2578125 C-55.04268211 445.39333105 -51.19863769 445.39722571 -47.34858704 445.39152527 C-46.21554758 445.39379083 -45.08250812 445.39605638 -43.91513413 445.39839059 C-40.13392334 445.40470009 -36.35274867 445.40390319 -32.5715332 445.40307617 C-29.85403814 445.40552746 -27.13654558 445.40944447 -24.41905212 445.41325378 C-17.81216971 445.42153884 -11.20529621 445.42430766 -4.59840903 445.42486616 C0.77597152 445.42534238 6.15034915 445.4274024 11.52472878 445.43056679 C26.78447054 445.43936782 42.04420529 445.44398707 57.30394962 445.44323631 C58.12556763 445.44319636 58.94718564 445.4431564 59.79370117 445.44311523 C60.61633022 445.44307435 61.43895927 445.44303347 62.28651647 445.44299135 C75.61047609 445.44258513 88.93440742 445.45215016 102.25835886 445.4662536 C115.96124377 445.4806429 129.6641149 445.48752237 143.36700755 445.48665982 C151.05127554 445.48632872 158.73551386 445.48903782 166.41977501 445.49983788 C172.96358864 445.50897659 179.50735918 445.51109062 186.05117645 445.50432845 C189.38458589 445.50108004 192.71784587 445.50204812 196.05125809 445.5096817 C227.31655222 445.91577752 227.31655222 445.91577752 254.109375 431.2578125 C254.73585938 430.71253906 255.36234375 430.16726563 256.0078125 429.60546875 C266.91638092 419.48288888 271.21715398 405.77965242 272.109375 391.2578125 C272.29297356 384.70076848 272.23591067 378.13847496 272.22290039 371.57958984 C272.22259372 369.55588597 272.22272812 367.53218199 272.22326565 365.50847816 C272.22349057 360.10977397 272.21771242 354.71109213 272.21065521 349.31239319 C272.2049425 344.23861626 272.20469112 339.16484465 272.20397949 334.09106445 C272.19874095 319.2716442 272.18477972 304.45222806 272.171875 289.6328125 C272.15125 256.5090625 272.130625 223.3853125 272.109375 189.2578125 C145.389375 189.2578125 18.669375 189.2578125 -111.890625 189.2578125 Z " fill="#EFD500" transform="translate(175.890625,2.7421875)"/>
<path d="M0 0 C1.00842453 -0.00960754 2.01684906 -0.01921509 3.05583191 -0.02911377 C4.67622124 -0.03548859 4.67622124 -0.03548859 6.3293457 -0.04199219 C8.01445 -0.0505423 8.01445 -0.0505423 9.7335968 -0.05926514 C12.10982323 -0.06870168 14.48606266 -0.07524377 16.86230469 -0.07910156 C20.47460136 -0.08878535 24.0863236 -0.11981346 27.69848633 -0.15136719 C30.01293609 -0.15790006 32.32738991 -0.16314941 34.6418457 -0.16699219 C36.2470533 -0.18551239 36.2470533 -0.18551239 37.88468933 -0.20440674 C49.59287622 -0.17009906 58.15479554 2.58895216 66.5402832 10.86035156 C72.50525119 17.38224531 74.91052008 24.52362708 74.97875977 33.34350586 C74.98836731 34.35193039 74.99797485 35.36035492 75.00787354 36.39933777 C75.01212341 37.47959732 75.01637329 38.55985687 75.02075195 39.67285156 C75.02645203 40.79625443 75.0321521 41.91965729 75.0380249 43.07710266 C75.04746144 45.45332909 75.05400353 47.82956852 75.05786133 50.20581055 C75.06754512 53.81810722 75.09857322 57.42982945 75.13012695 61.04199219 C75.13665982 63.35644195 75.14190918 65.67089577 75.14575195 67.98535156 C75.15809875 69.05548996 75.17044556 70.12562836 75.1831665 71.22819519 C75.14885882 82.93638208 72.3898076 91.4983014 64.1184082 99.88378906 C57.59651445 105.84875705 50.45513268 108.25402594 41.63525391 108.32226562 C40.62682938 108.33187317 39.61840485 108.34148071 38.579422 108.35137939 C37.49916245 108.35562927 36.41890289 108.35987915 35.3059082 108.36425781 C34.18250534 108.36995789 33.05910248 108.37565796 31.9016571 108.38153076 C29.52543068 108.3909673 27.14919125 108.39750939 24.77294922 108.40136719 C21.16065254 108.41105098 17.54893031 108.44207908 13.93676758 108.47363281 C11.62231781 108.48016568 9.307864 108.48541504 6.9934082 108.48925781 C5.92326981 108.50160461 4.85313141 108.51395142 3.75056458 108.52667236 C-7.95762232 108.49236468 -16.51954163 105.73331346 -24.9050293 97.46191406 C-30.86999729 90.94002031 -33.27526617 83.79863854 -33.34350586 74.97875977 C-33.3531134 73.97033524 -33.36272095 72.96191071 -33.37261963 71.92292786 C-33.37686951 70.8426683 -33.38111938 69.76240875 -33.38549805 68.64941406 C-33.39404816 66.96430977 -33.39404816 66.96430977 -33.402771 65.24516296 C-33.41220754 62.86893654 -33.41874963 60.49269711 -33.42260742 58.11645508 C-33.43229121 54.5041584 -33.46331932 50.89243617 -33.49487305 47.28027344 C-33.50140592 44.96582367 -33.50665527 42.65136986 -33.51049805 40.33691406 C-33.52284485 39.26677567 -33.53519165 38.19663727 -33.5479126 37.09407043 C-33.51360492 25.38588354 -30.75455369 16.82396423 -22.4831543 8.43847656 C-15.96126055 2.47350857 -8.81987878 0.06823969 0 0 Z " fill="#EFD500" transform="translate(139.182373046875,233.8388671875)"/>
</svg>
