<?xml version="1.0" encoding="UTF-8"?>
<svg version="1.1" xmlns="http://www.w3.org/2000/svg" width="512" height="512">
<path d="M0 0 C8.67964949 5.17564285 12.94439559 11.76287428 16.109375 21.2578125 C16.109375 27.1978125 16.109375 33.1378125 16.109375 39.2578125 C58.349375 39.2578125 100.589375 39.2578125 144.109375 39.2578125 C144.109375 33.3178125 144.109375 27.3778125 144.109375 21.2578125 C146.86430509 11.61555717 151.44532732 5.51315827 159.984375 0.30078125 C168.30121305 -3.78119625 178.14528745 -4.10011688 187.12890625 -2.0546875 C195.89800392 1.17815957 202.00332695 6.89193182 206.109375 15.2578125 C208.31593237 20.46498248 208.34943103 25.0835718 208.234375 30.6328125 C208.22535156 31.46425781 208.21632813 32.29570313 208.20703125 33.15234375 C208.1836372 35.18762587 208.14777225 37.22275814 208.109375 39.2578125 C209.30691406 39.23460937 210.50445312 39.21140625 211.73828125 39.1875 C247.83341381 38.69549695 277.96074333 50.25716953 304.109375 75.2578125 C323.65051372 94.68771135 336.19591831 123.05978819 336.386186 150.65408379 C336.3830888 151.63727071 336.3799916 152.62045764 336.37680054 153.63343811 C336.38133165 154.71242683 336.38586276 155.79141556 336.39053118 156.90310091 C336.40309331 160.48370382 336.40156011 164.06415302 336.39990234 167.64477539 C336.40589277 170.22652378 336.4126995 172.80827038 336.42025757 175.39001465 C336.43679351 181.65526378 336.44236377 187.92047526 336.44348232 194.18574441 C336.44443648 199.28541477 336.44856503 204.38507284 336.45488358 209.4847393 C336.47247701 223.9820452 336.48172561 238.47932162 336.48022263 252.97663826 C336.48010276 254.14630413 336.48010276 254.14630413 336.47998047 255.33959961 C336.47989871 256.12034261 336.47981695 256.90108561 336.47973271 257.70548748 C336.4789207 270.34369917 336.49804177 282.98179143 336.5262572 295.6199686 C336.55508136 308.63480153 336.56879223 321.64957639 336.56706965 334.664442 C336.56640895 341.95594772 336.57175939 349.24732828 336.59342575 356.53880501 C336.61369439 363.40325599 336.61286715 370.26744011 336.59839249 377.1319046 C336.59631505 379.63791479 336.60094096 382.14394184 336.6131134 384.64992332 C336.75808042 416.58724165 329.67324783 444.89862282 308.109375 469.2578125 C307.53703125 469.96164062 306.9646875 470.66546875 306.375 471.390625 C301.61894549 477.16583404 296.02526309 481.70966455 290.109375 486.2578125 C289.32820313 486.86625 288.54703125 487.4746875 287.7421875 488.1015625 C276.32637877 496.55771712 262.84627731 502.71894992 249.109375 506.2578125 C247.79933313 506.62906297 247.79933313 506.62906297 246.46282578 507.00781345 C233.35437359 510.19958747 220.01800492 509.69360526 206.60767174 509.66464555 C202.87745375 509.65987302 199.1472853 509.67245955 195.41708374 509.68266296 C188.12752515 509.6997779 180.83805304 509.70070612 173.54847959 509.69545006 C167.61697426 509.6913929 161.6854943 509.69287018 155.75399017 509.69819832 C154.906697 509.69894674 154.05940382 509.69969516 153.18643509 509.70046626 C151.46461099 509.7019979 149.74278689 509.70353625 148.0209628 509.70508123 C131.9070434 509.71878022 115.79317266 509.71338726 99.67925438 509.70189602 C84.97518108 509.69196968 70.27123372 509.70489858 55.56717983 509.72883021 C40.42782402 509.75328248 25.28852671 509.76281387 10.14915156 509.75617748 C1.66610091 509.75269841 -6.81685301 509.75482984 -15.29988861 509.77242851 C-22.52234584 509.78722756 -29.74463823 509.78768642 -36.96709248 509.7703576 C-40.64348748 509.76190742 -44.319589 509.75954893 -47.99596786 509.77500916 C-81.26607501 509.90475349 -110.39619293 503.85607709 -135.890625 481.2578125 C-137.02177734 480.34128906 -137.02177734 480.34128906 -138.17578125 479.40625 C-159.35538286 461.84996648 -172.28895894 434.16061311 -175.890625 407.2578125 C-176.03816824 403.69966686 -176.03414394 400.14434547 -176.03106689 396.58352661 C-176.03403802 395.50754774 -176.03700914 394.43156887 -176.0400703 393.32298458 C-176.04874313 389.71678001 -176.05026438 386.1106087 -176.05175781 382.50439453 C-176.05638711 379.91866485 -176.06141193 377.33293585 -176.06680298 374.74720764 C-176.08036524 367.71985497 -176.08640833 360.69250802 -176.09081364 353.66514444 C-176.09358082 349.27120627 -176.09781915 344.87727028 -176.10231781 340.48333359 C-176.11450998 328.30185395 -176.12480793 316.12037606 -176.1281929 303.93889046 C-176.12841247 303.1597092 -176.12863203 302.38052793 -176.12885825 301.57773512 C-176.12907653 300.79674985 -176.12929481 300.01576458 -176.1295197 299.2111131 C-176.12996316 297.62869779 -176.13040972 296.04628249 -176.13085938 294.46386719 C-176.1310808 293.67894425 -176.13130223 292.89402131 -176.13153037 292.08531283 C-176.13547251 279.38651897 -176.15290888 266.68778271 -176.1762189 253.98901106 C-176.19999459 240.93031827 -176.21239765 227.87165429 -176.21356082 214.81293952 C-176.21447434 207.48960157 -176.22014421 200.16633857 -176.23838043 192.84302139 C-176.25549346 185.94669057 -176.25698777 179.05050356 -176.24824142 172.15415764 C-176.24747413 169.63237947 -176.25177278 167.11059351 -176.26169968 164.58883476 C-176.32310279 148.00877064 -175.81708318 132.42156045 -169.765625 116.7578125 C-169.4655957 115.96866455 -169.16556641 115.1795166 -168.85644531 114.36645508 C-156.82546024 83.81376235 -133.71720675 61.3966159 -103.953125 48.0078125 C-85.61205892 40.47487465 -67.44240145 38.87898368 -47.890625 39.2578125 C-47.93703125 38.07445312 -47.9834375 36.89109375 -48.03125 35.671875 C-48.35235455 24.08882512 -47.89459567 14.67683665 -39.59375 5.7890625 C-28.99673947 -3.73852495 -12.95346121 -6.21592266 0 0 Z M-111.890625 189.2578125 C-111.931875 222.2784375 -111.973125 255.2990625 -112.015625 289.3203125 C-112.03383301 299.72957275 -112.05204102 310.13883301 -112.07080078 320.86352539 C-112.07749148 330.23046046 -112.07749148 330.23046046 -112.08151245 339.59739685 C-112.08336853 343.75509292 -112.09083473 347.91273741 -112.10177612 352.07041931 C-112.11558354 357.38834428 -112.11959088 362.7061952 -112.11676955 368.02413642 C-112.11735875 369.96672477 -112.12127144 371.90931594 -112.12905526 373.85188878 C-112.20427624 393.55373394 -111.72261575 411.7827127 -97.890625 427.2578125 C-97.34535156 427.88429688 -96.80007812 428.51078125 -96.23828125 429.15625 C-86.37335596 439.78715773 -73.04842351 444.14057491 -58.890625 445.2578125 C-55.04268211 445.39333105 -51.19863769 445.39722571 -47.34858704 445.39152527 C-46.21554758 445.39379083 -45.08250812 445.39605638 -43.91513413 445.39839059 C-40.13392334 445.40470009 -36.35274867 445.40390319 -32.5715332 445.40307617 C-29.85403814 445.40552746 -27.13654558 445.40944447 -24.41905212 445.41325378 C-17.81216971 445.42153884 -11.20529621 445.42430766 -4.59840903 445.42486616 C0.77597152 445.42534238 6.15034915 445.4274024 11.52472878 445.43056679 C26.78447054 445.43936782 42.04420529 445.44398707 57.30394962 445.44323631 C58.12556763 445.44319636 58.94718564 445.4431564 59.79370117 445.44311523 C60.61633022 445.44307435 61.43895927 445.44303347 62.28651647 445.44299135 C75.61047609 445.44258513 88.93440742 445.45215016 102.25835886 445.4662536 C115.96124377 445.4806429 129.6641149 445.48752237 143.36700755 445.48665982 C151.05127554 445.48632872 158.73551386 445.48903782 166.41977501 445.49983788 C172.96358864 445.50897659 179.50735918 445.51109062 186.05117645 445.50432845 C189.38458589 445.50108004 192.71784587 445.50204812 196.05125809 445.5096817 C227.31655222 445.91577752 227.31655222 445.91577752 254.109375 431.2578125 C254.73585938 430.71253906 255.36234375 430.16726563 256.0078125 429.60546875 C266.91638092 419.48288888 271.21715398 405.77965242 272.109375 391.2578125 C272.29297356 384.70076848 272.23591067 378.13847496 272.22290039 371.57958984 C272.22259372 369.55588597 272.22272812 367.53218199 272.22326565 365.50847816 C272.22349057 360.10977397 272.21771242 354.71109213 272.21065521 349.31239319 C272.2049425 344.23861626 272.20469112 339.16484465 272.20397949 334.09106445 C272.19874095 319.2716442 272.18477972 304.45222806 272.171875 289.6328125 C272.15125 256.5090625 272.130625 223.3853125 272.109375 189.2578125 C145.389375 189.2578125 18.669375 189.2578125 -111.890625 189.2578125 Z " fill="#EFD500" transform="translate(175.890625,2.7421875)"/>
<path d="M0 0 C1.49040486 -0.00445668 1.49040486 -0.00445668 3.01091892 -0.0090034 C6.34402383 -0.01768264 9.6770928 -0.019198 13.01020813 -0.02069092 C15.39863156 -0.02531965 17.78705425 -0.03034438 20.17547607 -0.03573608 C26.66737863 -0.04885702 33.1592743 -0.05534138 39.65118766 -0.05974674 C43.70754168 -0.06251238 47.76389333 -0.06675033 51.82024574 -0.07125092 C63.05893523 -0.08344151 74.29762282 -0.09374105 85.53631878 -0.09712601 C86.2552247 -0.09734557 86.97413062 -0.09756514 87.71482157 -0.09779136 C88.43541378 -0.09800964 89.156006 -0.09822791 89.89843434 -0.09845281 C91.35854383 -0.09889627 92.81865333 -0.09934283 94.27876282 -0.09979248 C95.36515191 -0.10012463 95.36515191 -0.10012463 96.47348825 -0.10046348 C108.20318897 -0.10440961 119.93282751 -0.12185892 131.66250422 -0.145152 C143.71542554 -0.16889307 155.76831568 -0.18132912 167.82126075 -0.18249393 C174.58439352 -0.18340917 181.34744526 -0.18912337 188.11055565 -0.20731354 C194.47417471 -0.22380044 200.83764014 -0.22594658 207.20127296 -0.21717453 C209.53367652 -0.21640449 211.86608836 -0.2207425 214.19847107 -0.23063278 C217.38941343 -0.24336746 220.57981292 -0.23746684 223.77075195 -0.22705078 C224.68760432 -0.23510719 225.6044567 -0.24316359 226.54909247 -0.25146413 C237.6649999 -0.16695309 246.01109119 3.03293942 253.92549133 10.83966064 C262.10375807 19.7815002 262.41070252 29.60266048 262.44306946 41.21295166 C262.45272651 43.30442836 262.4837654 45.39490041 262.51533508 47.48614502 C262.60488886 58.60124153 261.50357962 67.40937284 254.23017883 76.09747314 C247.25152678 83.12991057 239.77652405 86.34482963 229.9316895 86.4172529 C228.50903126 86.41260709 228.50903126 86.41260709 227.05763245 86.40786743 C225.52919397 86.4146641 225.52919397 86.4146641 223.96987796 86.42159808 C220.55692428 86.43425406 217.14412994 86.43262091 213.7311554 86.43096924 C211.28347061 86.43695376 208.83578771 86.44375913 206.3881073 86.45132446 C200.4298499 86.46716415 194.47165509 86.47343324 188.51338246 86.47454922 C183.66806764 86.47550061 178.82276584 86.47961545 173.97745514 86.48595047 C160.22917195 86.50355888 146.48091994 86.51279008 132.7326254 86.51128952 C131.62153153 86.51116965 131.62153153 86.51116965 130.48799133 86.51104736 C129.74635375 86.5109656 129.00471617 86.51088384 128.24060473 86.5107996 C116.22641523 86.50998703 104.21235121 86.5291185 92.19819799 86.5573241 C79.85143533 86.58608095 67.5047338 86.59986282 55.15793681 86.59813654 C48.23047889 86.59747356 41.30315248 86.60292532 34.37572479 86.62449265 C27.85858757 86.64465308 21.34168014 86.64400212 14.82451248 86.62945938 C12.43566863 86.62736962 10.04680744 86.63208207 7.65799332 86.6441803 C4.39032827 86.65965452 1.12361732 86.65030928 -2.14402771 86.63491821 C-3.08354365 86.64520534 -4.02305959 86.65549247 -4.99104571 86.66609132 C-14.37618376 86.56878027 -22.1811407 83.60268091 -29.04325867 77.12872314 C-37.08272511 68.01494048 -38.14995118 57.61022066 -38.11283875 45.91705322 C-38.10968808 43.84318978 -38.13315317 41.77076935 -38.15849304 39.69708252 C-38.22090635 26.88315011 -36.22019304 17.66585661 -27.09794617 8.41778564 C-19.04961575 1.05672839 -10.53770665 -0.00983909 0 0 Z " fill="#EFD500" transform="translate(143.7971649169922,233.85955810546875)"/>
</svg>
