<svg id="svg" version="1.1" xmlns="http://www.w3.org/2000/svg" xmlns:xlink="http://www.w3.org/1999/xlink" width="400" height="400" viewBox="0, 0, 400,400"><g id="svgg"><path id="path0" d="M194.947 39.900 C 195.163 40.260,194.872 40.400,193.904 40.400 C 193.165 40.400,192.318 40.625,192.021 40.900 C 191.590 41.300,191.539 41.300,191.765 40.900 C 191.920 40.625,191.876 40.400,191.666 40.400 C 191.457 40.400,191.183 40.667,191.058 40.993 C 190.917 41.361,190.571 41.487,190.150 41.325 C 189.689 41.148,189.562 41.215,189.758 41.532 C 189.944 41.833,189.745 42.000,189.200 42.000 C 188.734 42.000,188.464 41.820,188.600 41.600 C 189.084 40.817,188.035 41.215,187.463 42.032 C 187.116 42.527,186.547 42.810,186.058 42.732 C 185.606 42.659,185.244 42.760,185.252 42.955 C 185.282 43.620,184.233 43.959,183.639 43.477 C 183.157 43.087,183.096 43.122,183.302 43.673 C 183.495 44.189,183.365 44.309,182.740 44.188 C 182.173 44.079,181.991 44.200,182.140 44.588 C 182.285 44.965,182.114 45.099,181.613 45.002 C 181.108 44.905,180.798 45.154,180.640 45.782 C 180.512 46.293,180.005 46.806,179.504 46.931 L 178.600 47.159 179.544 46.379 C 180.064 45.951,180.334 45.600,180.144 45.600 C 179.406 45.602,177.534 47.570,177.825 48.040 C 178.016 48.349,177.955 48.420,177.656 48.235 C 177.075 47.876,172.720 51.947,173.073 52.519 C 173.211 52.741,173.140 52.810,172.915 52.671 C 172.397 52.351,171.096 53.752,171.499 54.197 C 171.665 54.379,171.599 54.414,171.353 54.274 C 170.813 53.965,169.473 55.340,169.899 55.766 C 170.065 55.931,169.930 56.007,169.600 55.933 C 169.268 55.860,169.049 56.036,169.110 56.330 C 169.170 56.621,169.066 56.764,168.877 56.648 C 168.473 56.398,165.022 59.884,164.669 60.900 C 164.535 61.285,164.127 61.600,163.764 61.600 C 163.229 61.600,163.195 61.712,163.587 62.184 C 163.988 62.667,163.932 62.741,163.264 62.612 C 162.635 62.491,162.491 62.635,162.612 63.264 C 162.741 63.932,162.667 63.988,162.184 63.587 C 161.712 63.195,161.600 63.229,161.600 63.764 C 161.600 64.127,161.285 64.535,160.900 64.669 C 159.884 65.022,156.398 68.473,156.648 68.877 C 156.764 69.066,156.621 69.170,156.330 69.110 C 156.038 69.049,155.849 69.238,155.910 69.530 C 155.970 69.821,155.859 69.960,155.663 69.839 C 155.180 69.541,153.920 70.979,154.299 71.397 C 154.465 71.579,154.404 71.617,154.165 71.481 C 153.678 71.204,150.665 74.094,150.992 74.525 C 151.106 74.676,151.077 74.707,150.928 74.594 C 150.614 74.357,148.400 76.375,148.400 76.898 C 148.400 77.090,148.580 77.136,148.800 77.000 C 149.020 76.864,149.200 76.960,149.200 77.214 C 149.200 77.467,148.842 77.769,148.404 77.883 C 147.967 77.997,147.700 78.238,147.811 78.418 C 147.922 78.598,147.830 78.858,147.607 78.996 C 147.383 79.134,147.200 78.959,147.200 78.608 C 147.200 78.081,147.102 78.059,146.642 78.484 C 146.335 78.768,146.143 79.099,146.216 79.219 C 146.288 79.340,146.182 79.700,145.980 80.019 C 145.712 80.442,145.611 80.459,145.606 80.084 C 145.601 79.663,145.498 79.663,145.044 80.084 C 144.691 80.412,144.637 80.693,144.896 80.855 C 145.119 80.996,145.173 81.319,145.016 81.575 C 144.802 81.921,144.566 81.907,144.088 81.519 C 143.735 81.234,143.559 81.189,143.697 81.419 C 143.835 81.650,143.782 82.100,143.580 82.419 C 143.263 82.920,143.211 82.921,143.206 82.425 C 143.202 82.049,142.790 82.243,142.014 82.986 C 141.362 83.611,140.925 84.279,141.044 84.471 C 141.162 84.663,141.021 84.770,140.730 84.710 C 140.438 84.649,140.245 84.825,140.300 85.100 C 140.355 85.375,140.175 85.555,139.900 85.500 C 139.625 85.445,139.460 85.670,139.533 86.000 C 139.607 86.330,139.531 86.465,139.366 86.299 C 138.979 85.912,137.547 87.191,137.839 87.663 C 137.960 87.859,137.821 87.970,137.530 87.910 C 137.238 87.849,137.045 88.025,137.100 88.300 C 137.155 88.575,136.975 88.755,136.700 88.700 C 136.425 88.645,136.245 88.825,136.300 89.100 C 136.355 89.375,136.175 89.555,135.900 89.500 C 135.625 89.445,135.449 89.638,135.510 89.930 C 135.570 90.221,135.465 90.364,135.275 90.246 C 135.085 90.129,134.226 90.772,133.365 91.675 C 132.504 92.579,132.070 93.167,132.400 92.982 C 132.916 92.693,132.924 92.741,132.455 93.319 C 132.155 93.689,131.705 93.869,131.455 93.719 C 131.199 93.566,131.227 93.727,131.519 94.088 C 131.930 94.594,131.935 94.793,131.543 95.035 C 131.268 95.205,130.979 95.137,130.894 94.883 C 130.782 94.545,130.601 94.552,130.211 94.912 C 129.863 95.232,129.812 95.561,130.062 95.868 C 130.331 96.197,130.233 96.305,129.731 96.231 C 128.962 96.118,128.000 96.868,128.000 97.581 C 128.000 97.822,127.539 98.195,126.976 98.409 C 126.353 98.646,126.064 98.980,126.238 99.261 C 126.398 99.521,126.350 99.616,126.127 99.478 C 125.607 99.157,122.690 102.148,123.092 102.589 C 123.261 102.776,123.204 102.817,122.965 102.681 C 122.424 102.373,119.468 105.334,119.892 105.759 C 120.061 105.928,119.930 106.007,119.600 105.933 C 119.268 105.860,119.049 106.036,119.110 106.330 C 119.170 106.621,119.066 106.764,118.877 106.648 C 118.473 106.398,115.022 109.884,114.669 110.900 C 114.535 111.285,114.127 111.600,113.764 111.600 C 113.229 111.600,113.195 111.712,113.587 112.184 C 113.988 112.667,113.932 112.741,113.264 112.612 C 112.635 112.491,112.491 112.635,112.612 113.264 C 112.741 113.932,112.667 113.988,112.184 113.587 C 111.712 113.195,111.600 113.229,111.600 113.764 C 111.600 114.127,111.285 114.535,110.900 114.669 C 109.884 115.022,106.398 118.473,106.648 118.877 C 106.764 119.066,106.621 119.170,106.330 119.110 C 106.038 119.049,105.849 119.238,105.910 119.530 C 105.970 119.821,105.859 119.960,105.663 119.839 C 105.180 119.541,103.920 120.979,104.299 121.397 C 104.465 121.579,104.399 121.614,104.153 121.474 C 103.602 121.159,102.284 122.539,102.699 122.997 C 102.865 123.179,102.801 123.215,102.558 123.076 C 102.315 122.938,101.720 123.247,101.235 123.762 C 100.728 124.303,99.898 124.697,99.277 124.692 C 98.685 124.688,98.444 124.599,98.743 124.494 C 99.095 124.371,98.190 123.202,96.173 121.172 C 94.460 119.450,92.906 118.134,92.719 118.250 C 92.533 118.365,92.430 118.221,92.490 117.930 C 92.551 117.638,92.362 117.449,92.070 117.510 C 91.779 117.570,91.640 117.459,91.761 117.263 C 91.882 117.067,91.594 116.568,91.122 116.153 C 90.649 115.739,90.394 115.625,90.555 115.900 C 90.716 116.175,90.657 116.400,90.424 116.400 C 90.191 116.400,89.987 115.995,89.972 115.500 C 89.945 114.641,89.928 114.637,89.600 115.400 C 89.306 116.084,89.252 116.099,89.228 115.500 C 89.213 115.115,88.975 114.797,88.700 114.794 C 88.367 114.790,88.400 114.658,88.800 114.400 C 89.270 114.096,89.170 114.011,88.337 114.006 C 87.447 114.001,87.311 113.860,87.501 113.137 C 87.691 112.409,87.591 112.309,86.863 112.499 C 86.140 112.689,85.999 112.553,85.994 111.663 C 85.989 110.830,85.904 110.730,85.600 111.200 C 85.342 111.600,85.210 111.633,85.206 111.300 C 85.203 111.025,84.885 110.787,84.500 110.772 C 83.901 110.748,83.916 110.694,84.600 110.400 C 85.363 110.072,85.359 110.055,84.500 110.028 C 84.005 110.013,83.600 109.809,83.600 109.576 C 83.600 109.343,83.825 109.284,84.100 109.445 C 84.375 109.606,84.261 109.351,83.847 108.878 C 83.432 108.406,82.933 108.118,82.737 108.239 C 82.541 108.360,82.430 108.221,82.490 107.930 C 82.551 107.638,82.375 107.445,82.100 107.500 C 81.825 107.555,81.645 107.375,81.700 107.100 C 81.755 106.825,81.575 106.645,81.300 106.700 C 81.025 106.755,80.845 106.575,80.900 106.300 C 80.955 106.025,80.730 105.860,80.400 105.933 C 80.070 106.007,79.941 105.926,80.113 105.754 C 80.582 105.285,73.564 98.401,72.608 98.394 C 71.940 98.389,71.904 98.321,72.400 98.000 C 72.878 97.691,72.797 97.605,72.000 97.575 C 71.450 97.554,71.223 97.447,71.496 97.336 C 72.149 97.073,71.132 96.000,70.229 96.000 C 69.853 96.000,69.587 95.638,69.568 95.100 C 69.551 94.605,69.446 94.425,69.335 94.700 C 69.224 94.975,68.958 95.200,68.743 95.200 C 68.528 95.200,68.464 95.020,68.600 94.800 C 68.736 94.580,68.657 94.400,68.424 94.400 C 68.191 94.400,68.000 94.132,68.000 93.805 C 68.000 93.028,66.755 91.581,66.319 91.850 C 66.133 91.965,66.030 91.821,66.090 91.530 C 66.151 91.238,65.975 91.045,65.700 91.100 C 65.425 91.155,65.245 90.975,65.300 90.700 C 65.355 90.425,65.162 90.249,64.870 90.310 C 64.579 90.370,64.438 90.263,64.556 90.071 C 64.855 89.587,62.623 87.518,62.208 87.894 C 62.023 88.062,61.984 88.003,62.122 87.761 C 62.399 87.274,60.304 85.069,59.872 85.394 C 59.723 85.507,59.693 85.477,59.807 85.326 C 60.100 84.939,57.547 82.386,57.127 82.645 C 56.936 82.763,56.830 82.704,56.890 82.515 C 56.997 82.178,54.752 79.702,54.518 79.900 C 54.141 80.219,53.600 79.910,53.600 79.376 C 53.600 79.033,53.426 78.860,53.213 78.992 C 53.000 79.123,52.608 78.882,52.342 78.455 C 52.075 78.029,51.621 77.771,51.332 77.881 C 51.043 77.992,50.696 77.795,50.561 77.444 C 50.427 77.092,50.155 76.904,49.958 77.026 C 49.761 77.148,49.600 77.035,49.600 76.775 C 49.600 76.412,49.468 76.412,49.034 76.772 C 48.583 77.146,48.417 77.084,48.221 76.465 C 47.977 75.696,44.739 74.543,44.038 74.976 C 43.862 75.085,43.376 74.916,42.959 74.600 C 42.542 74.284,41.806 74.020,41.324 74.013 C 40.842 74.006,40.356 73.852,40.244 73.671 C 39.944 73.186,26.400 73.123,26.400 73.606 C 26.400 73.822,25.781 74.000,25.024 74.000 C 24.267 74.000,23.536 74.180,23.400 74.400 C 23.264 74.620,22.713 74.800,22.176 74.800 C 21.639 74.800,21.200 74.974,21.200 75.187 C 21.200 75.401,20.939 75.475,20.619 75.352 C 19.761 75.023,18.969 75.604,19.657 76.057 C 20.005 76.286,19.722 76.336,18.870 76.196 C 18.012 76.055,17.629 76.124,17.793 76.389 C 17.942 76.630,17.582 76.819,16.924 76.846 C 16.238 76.875,16.075 76.964,16.505 77.077 C 16.893 77.178,17.105 77.430,16.977 77.637 C 16.849 77.844,16.569 77.905,16.355 77.772 C 16.140 77.640,15.668 77.772,15.306 78.066 C 14.766 78.503,14.704 78.504,14.965 78.070 C 15.227 77.635,15.138 77.632,14.468 78.051 C 13.627 78.576,13.684 79.426,14.528 78.942 C 14.787 78.794,14.856 78.830,14.680 79.023 C 14.504 79.216,13.874 79.382,13.280 79.392 C 12.509 79.406,12.216 79.609,12.255 80.101 C 12.285 80.481,12.166 80.703,11.991 80.594 C 11.336 80.190,10.491 80.861,10.691 81.626 C 10.843 82.206,10.687 82.400,10.072 82.400 C 9.557 82.400,8.770 83.067,7.966 84.187 C 7.260 85.170,6.529 85.880,6.341 85.764 C 6.154 85.648,6.000 86.043,6.000 86.643 C 6.000 87.243,5.883 87.616,5.740 87.473 C 5.394 87.127,4.429 88.425,4.413 89.257 C 4.406 89.619,4.144 90.013,3.830 90.133 C 3.095 90.415,1.849 93.031,2.188 93.580 C 2.330 93.811,2.146 94.000,1.777 94.000 C 1.302 94.000,1.168 94.235,1.318 94.807 C 1.434 95.251,1.276 95.866,0.968 96.175 C 0.536 96.607,0.521 96.782,0.904 96.937 C 1.285 97.092,1.272 97.229,0.849 97.525 C 0.546 97.737,0.421 98.111,0.572 98.355 C 0.724 98.600,0.657 98.800,0.425 98.800 C 0.129 98.800,0.047 128.317,0.152 197.300 C 0.310 301.290,0.298 299.600,0.847 299.600 C 1.041 299.600,1.200 299.930,1.200 300.333 C 1.200 300.737,1.324 301.190,1.475 301.341 C 1.893 301.759,1.916 303.200,1.505 303.200 C 1.306 303.200,1.427 303.485,1.775 303.832 C 2.123 304.180,2.293 304.650,2.152 304.877 C 2.012 305.104,2.092 305.410,2.330 305.557 C 2.568 305.704,2.808 306.494,2.863 307.312 C 2.925 308.224,3.167 308.800,3.489 308.800 C 3.851 308.800,3.937 309.113,3.764 309.800 C 3.610 310.416,3.683 310.800,3.957 310.800 C 4.200 310.800,4.400 311.138,4.400 311.551 C 4.400 311.964,4.668 312.524,4.996 312.796 C 5.323 313.068,5.504 313.432,5.398 313.604 C 5.166 313.979,6.170 316.496,6.443 316.224 C 6.620 316.047,6.799 316.893,6.920 318.471 C 6.948 318.841,7.150 319.111,7.368 319.071 C 7.585 319.032,7.792 319.180,7.826 319.400 C 8.135 321.386,8.628 322.534,9.238 322.694 C 9.698 322.814,9.999 323.334,10.078 324.141 C 10.148 324.865,10.406 325.360,10.686 325.305 C 10.966 325.250,11.075 325.461,10.943 325.805 C 10.817 326.132,10.933 326.400,11.200 326.400 C 11.495 326.400,11.582 326.670,11.422 327.088 C 11.276 327.466,11.279 327.655,11.426 327.507 C 11.574 327.359,11.944 327.487,12.248 327.790 C 12.918 328.461,12.976 328.956,12.338 328.562 C 12.050 328.384,11.985 328.452,12.166 328.745 C 12.325 329.002,12.623 329.109,12.828 328.983 C 13.032 328.856,13.200 329.044,13.200 329.400 C 13.200 329.756,13.367 329.944,13.572 329.817 C 13.776 329.691,14.173 330.220,14.452 330.994 C 14.732 331.767,15.240 332.414,15.580 332.432 C 15.987 332.452,16.029 332.532,15.704 332.664 C 15.328 332.816,15.353 333.010,15.807 333.464 C 16.137 333.794,16.288 334.258,16.142 334.494 C 15.996 334.730,16.051 334.815,16.265 334.683 C 16.479 334.551,16.900 334.784,17.200 335.200 C 17.500 335.616,17.893 335.866,18.073 335.755 C 18.253 335.644,18.400 335.818,18.400 336.143 C 18.400 336.468,18.625 336.824,18.900 336.935 C 19.294 337.094,19.295 337.144,18.904 337.168 C 18.558 337.190,18.606 337.432,19.063 337.965 C 19.423 338.386,19.943 338.643,20.218 338.538 C 20.494 338.432,20.837 338.536,20.980 338.768 C 21.139 339.025,20.999 339.098,20.621 338.953 C 20.279 338.822,20.000 338.845,20.000 339.005 C 20.000 339.487,22.549 341.555,22.886 341.347 C 23.059 341.240,23.200 341.337,23.200 341.563 C 23.200 341.789,23.830 342.603,24.600 343.373 C 25.370 344.143,26.000 344.885,26.000 345.023 C 26.000 345.426,27.755 346.772,28.300 346.787 C 28.575 346.794,28.800 347.081,28.800 347.424 C 28.800 347.767,28.969 347.943,29.175 347.815 C 29.382 347.688,29.736 347.902,29.963 348.292 C 30.190 348.681,30.381 348.830,30.388 348.622 C 30.395 348.414,31.023 348.924,31.784 349.755 C 32.546 350.586,33.337 351.163,33.542 351.036 C 33.748 350.909,34.019 351.074,34.146 351.402 C 34.272 351.731,34.606 351.997,34.887 351.994 C 35.252 351.990,35.226 351.863,34.800 351.556 C 34.301 351.197,34.323 351.165,34.933 351.362 C 35.336 351.493,35.741 351.600,35.833 351.600 C 35.925 351.600,36.000 351.827,36.000 352.104 C 36.000 352.381,36.367 352.837,36.816 353.117 C 37.264 353.397,37.523 353.800,37.392 354.013 C 37.260 354.226,37.511 354.400,37.948 354.400 C 38.385 354.400,38.984 354.642,39.280 354.937 C 39.575 355.232,40.128 355.428,40.508 355.372 C 40.889 355.316,41.200 355.435,41.200 355.635 C 41.200 355.836,41.237 356.135,41.282 356.300 C 41.413 356.781,43.249 357.617,43.642 357.374 C 43.839 357.252,44.001 357.298,44.003 357.476 C 44.007 357.854,45.920 358.800,46.680 358.800 C 46.966 358.800,47.200 359.001,47.200 359.247 C 47.200 359.492,47.548 359.602,47.974 359.491 C 48.422 359.374,48.838 359.523,48.962 359.844 C 49.079 360.150,49.371 360.400,49.611 360.400 C 49.851 360.400,49.925 360.202,49.775 359.960 C 49.597 359.671,49.813 359.686,50.406 360.003 C 51.130 360.391,51.199 360.560,50.754 360.861 C 50.346 361.137,50.464 361.215,51.200 361.157 C 51.750 361.114,52.707 361.286,53.326 361.539 C 53.945 361.793,54.721 362.000,55.050 362.000 C 55.378 362.000,55.536 362.180,55.400 362.400 C 55.259 362.628,55.604 362.800,56.200 362.800 C 56.776 362.800,57.151 362.955,57.034 363.145 C 56.917 363.335,57.221 363.459,57.710 363.421 C 58.200 363.383,58.912 363.613,59.292 363.931 C 59.822 364.374,60.116 364.402,60.539 364.050 C 60.966 363.696,61.213 363.734,61.611 364.213 C 61.895 364.556,62.379 364.740,62.685 364.623 C 62.991 364.505,63.138 364.577,63.012 364.781 C 62.885 364.986,63.281 365.111,63.891 365.060 C 64.501 365.009,65.238 365.244,65.530 365.583 C 65.821 365.923,65.952 365.986,65.821 365.724 C 65.674 365.430,65.881 365.271,66.364 365.307 C 66.793 365.340,67.048 365.523,66.930 365.714 C 66.812 365.905,67.276 365.973,67.963 365.865 C 68.649 365.757,69.433 365.878,69.705 366.134 C 70.506 366.888,71.924 366.863,72.126 366.090 C 72.295 365.445,72.310 365.445,72.354 366.100 C 72.392 366.684,72.799 366.800,74.800 366.800 C 76.120 366.800,77.200 366.964,77.200 367.165 C 77.200 367.559,78.218 367.516,78.630 367.104 C 78.769 366.965,79.314 367.015,79.841 367.216 C 80.461 367.451,80.800 367.437,80.800 367.176 C 80.800 366.907,81.059 366.911,81.574 367.186 C 82.656 367.765,317.344 367.765,318.426 367.186 C 318.852 366.958,319.200 366.913,319.200 367.086 C 319.200 367.259,320.010 367.407,321.000 367.415 C 321.990 367.424,322.800 367.289,322.800 367.115 C 322.800 366.942,323.880 366.800,325.200 366.800 C 326.850 366.800,327.602 366.644,327.606 366.300 C 327.611 365.925,327.687 365.918,327.912 366.271 C 328.275 366.841,329.618 366.771,330.281 366.147 C 330.546 365.898,331.314 365.742,331.988 365.799 C 332.661 365.856,333.328 365.717,333.468 365.490 C 333.626 365.234,333.525 365.199,333.200 365.400 C 332.861 365.610,332.773 365.567,332.951 365.279 C 333.102 365.035,333.489 364.936,333.811 365.059 C 334.132 365.183,334.272 365.490,334.121 365.742 C 333.970 365.994,334.179 365.930,334.585 365.600 C 334.991 365.270,335.655 365.056,336.061 365.125 C 336.468 365.194,336.800 365.037,336.800 364.776 C 336.800 364.434,336.944 364.421,337.316 364.731 C 337.701 365.050,337.962 364.952,338.339 364.349 C 338.748 363.694,338.957 363.632,339.430 364.025 C 339.893 364.409,340.159 364.390,340.708 363.931 C 341.088 363.613,341.838 363.385,342.374 363.425 C 343.312 363.495,343.319 363.476,342.574 362.919 C 341.871 362.394,341.975 362.358,343.718 362.533 C 345.435 362.704,345.581 362.658,345.118 362.085 C 344.727 361.603,344.723 361.520,345.100 361.747 C 345.375 361.912,345.600 361.869,345.600 361.650 C 345.600 361.432,346.134 361.269,346.786 361.287 C 347.439 361.306,348.249 361.092,348.586 360.812 C 348.924 360.531,349.205 360.459,349.212 360.651 C 349.219 360.843,349.408 360.685,349.632 360.300 C 349.898 359.844,350.529 359.600,351.443 359.600 C 352.277 359.600,352.747 359.438,352.600 359.200 C 352.464 358.980,352.498 358.786,352.676 358.769 C 354.301 358.616,356.531 357.336,356.176 356.761 C 356.056 356.567,356.253 356.522,356.613 356.660 C 357.136 356.861,357.161 356.979,356.734 357.250 C 355.844 357.814,356.632 357.640,357.854 357.002 C 358.484 356.674,358.820 356.386,358.600 356.363 C 358.380 356.339,358.650 356.191,359.200 356.032 C 359.769 355.869,360.178 355.468,360.150 355.104 C 360.119 354.714,360.315 354.546,360.650 354.674 C 360.952 354.791,361.200 354.703,361.200 354.480 C 361.200 354.257,361.560 354.169,362.000 354.284 C 362.465 354.406,362.800 354.296,362.800 354.023 C 362.800 353.764,362.620 353.664,362.400 353.800 C 362.180 353.936,362.000 353.896,362.000 353.711 C 362.000 353.229,364.434 352.378,364.959 352.677 C 365.201 352.815,365.274 352.788,365.119 352.617 C 364.758 352.216,365.808 351.160,366.708 351.018 C 367.136 350.951,367.348 350.630,367.264 350.176 C 367.146 349.538,367.214 349.514,367.787 349.989 C 368.149 350.290,368.414 350.370,368.375 350.168 C 368.241 349.460,368.403 348.800,368.700 348.847 C 369.584 348.987,370.000 348.716,370.000 348.000 C 370.000 347.143,370.779 346.862,370.832 347.700 C 370.849 347.975,371.051 347.685,371.280 347.055 C 371.565 346.273,371.795 346.068,372.006 346.409 C 372.233 346.777,372.510 346.671,373.057 346.005 C 373.466 345.508,374.149 344.764,374.575 344.351 C 375.002 343.938,375.194 343.600,375.003 343.600 C 374.811 343.600,375.407 343.021,376.327 342.314 C 377.247 341.607,378.000 340.887,378.000 340.714 C 378.000 340.541,378.270 340.400,378.600 340.400 C 378.930 340.400,379.200 340.209,379.200 339.976 C 379.200 339.743,379.020 339.664,378.800 339.800 C 378.580 339.936,378.400 339.844,378.400 339.597 C 378.400 339.331,378.722 339.248,379.187 339.396 C 379.797 339.589,380.031 339.416,380.230 338.623 C 380.371 338.060,380.782 337.586,381.143 337.568 C 381.583 337.547,381.630 337.468,381.284 337.330 C 380.911 337.180,381.005 336.916,381.620 336.382 C 382.090 335.975,382.358 335.455,382.216 335.226 C 382.056 334.967,382.218 334.909,382.644 335.072 C 383.189 335.281,383.284 335.164,383.110 334.497 C 382.952 333.894,383.046 333.719,383.445 333.873 C 383.781 334.002,384.000 333.823,384.000 333.419 C 384.000 333.053,384.175 332.861,384.388 332.993 C 384.602 333.125,384.890 332.781,385.028 332.230 C 385.167 331.678,385.465 331.266,385.690 331.313 C 385.916 331.361,386.191 331.150,386.302 330.844 C 386.437 330.472,386.321 330.383,385.952 330.574 C 385.648 330.731,385.715 330.601,386.100 330.286 C 386.485 329.970,386.800 329.496,386.800 329.232 C 386.800 328.969,386.968 328.856,387.172 328.983 C 387.377 329.109,387.675 329.002,387.834 328.745 C 388.008 328.463,387.951 328.383,387.689 328.545 C 387.451 328.692,387.142 328.630,387.004 328.407 C 386.866 328.183,387.044 328.000,387.400 328.000 C 387.792 328.000,387.933 327.816,387.758 327.532 C 387.562 327.215,387.689 327.149,388.155 327.327 C 388.533 327.472,388.745 327.434,388.626 327.242 C 388.508 327.051,388.752 326.460,389.169 325.931 C 389.586 325.401,389.988 324.615,390.063 324.184 C 390.138 323.753,390.515 323.165,390.900 322.877 C 391.630 322.332,391.899 321.368,391.200 321.800 C 390.612 322.163,390.713 321.630,391.352 320.990 C 391.656 320.687,392.016 320.550,392.152 320.686 C 392.289 320.822,392.400 320.273,392.400 319.467 C 392.400 318.653,392.599 318.000,392.847 318.000 C 393.097 318.000,393.201 317.647,393.083 317.195 C 392.943 316.662,393.131 316.251,393.636 315.981 C 394.056 315.756,394.400 315.213,394.400 314.773 C 394.400 314.334,394.670 313.871,395.000 313.745 C 395.330 313.618,395.600 313.343,395.600 313.134 C 395.600 312.924,395.420 312.864,395.200 313.000 C 394.609 313.365,394.712 312.906,395.484 311.727 C 395.861 311.153,396.225 310.312,396.294 309.859 C 396.364 309.406,396.622 308.910,396.868 308.758 C 397.115 308.605,397.206 308.193,397.071 307.840 C 396.771 307.060,397.155 305.925,397.621 306.213 C 397.806 306.328,397.892 306.078,397.811 305.659 C 397.731 305.240,397.924 304.396,398.242 303.784 C 398.608 303.079,398.735 302.108,398.590 301.136 C 398.409 299.917,398.489 299.600,398.981 299.600 C 399.321 299.600,399.600 299.330,399.600 299.000 C 399.600 298.670,399.375 298.397,399.100 298.394 C 398.773 298.390,398.745 298.286,399.019 298.094 C 399.785 297.557,399.800 295.572,399.800 197.000 C 399.800 101.292,399.767 96.400,399.115 96.400 C 398.942 96.400,398.800 95.860,398.800 95.200 C 398.800 94.540,398.620 94.000,398.400 94.000 C 398.180 94.000,398.000 93.758,398.000 93.461 C 398.000 92.598,396.763 90.361,396.156 90.128 C 395.850 90.010,395.594 89.619,395.587 89.257 C 395.571 88.425,394.606 87.127,394.260 87.473 C 394.117 87.616,394.000 87.243,394.000 86.643 C 394.000 86.018,393.829 85.658,393.600 85.800 C 393.380 85.936,393.200 85.756,393.200 85.400 C 393.200 85.044,393.059 84.840,392.887 84.946 C 392.715 85.053,392.152 84.523,391.635 83.770 C 391.119 83.016,390.529 82.400,390.325 82.400 C 390.120 82.400,390.050 82.242,390.170 82.049 C 390.289 81.855,389.850 81.590,389.194 81.459 C 388.354 81.291,388.000 80.986,388.000 80.434 C 388.000 80.001,387.792 79.519,387.538 79.362 C 387.234 79.174,387.176 79.269,387.369 79.638 C 387.529 79.947,387.330 79.840,386.925 79.400 C 385.902 78.288,384.576 77.282,384.947 77.900 C 385.112 78.175,385.134 78.400,384.995 78.400 C 384.568 78.400,383.625 77.308,383.854 77.079 C 383.973 76.960,383.595 76.915,383.013 76.979 C 382.217 77.066,382.011 76.948,382.182 76.503 C 382.335 76.105,382.221 75.983,381.834 76.132 C 381.517 76.253,381.038 76.087,380.768 75.761 C 380.498 75.436,379.990 75.198,379.639 75.231 C 379.287 75.265,378.910 75.258,378.800 75.216 C 378.690 75.175,378.164 75.060,377.631 74.962 C 377.099 74.864,376.426 74.588,376.137 74.348 C 375.848 74.108,374.991 73.984,374.234 74.072 C 373.476 74.160,372.935 74.105,373.032 73.949 C 373.128 73.793,372.703 73.554,372.088 73.419 C 370.505 73.072,359.600 73.303,359.600 73.684 C 359.600 73.858,359.150 74.000,358.600 74.000 C 358.050 74.000,357.600 74.180,357.600 74.400 C 357.600 74.620,356.869 74.800,355.976 74.800 C 354.891 74.800,354.444 74.947,354.626 75.243 C 354.811 75.541,354.622 75.597,354.050 75.416 C 353.513 75.245,353.200 75.319,353.200 75.616 C 353.200 75.876,352.923 75.979,352.579 75.847 C 352.238 75.716,352.063 75.778,352.190 75.985 C 352.495 76.477,350.897 77.323,350.182 77.048 C 349.876 76.931,349.502 77.035,349.351 77.279 C 349.173 77.567,349.261 77.610,349.600 77.400 C 349.960 77.178,350.027 77.232,349.817 77.573 C 349.648 77.846,349.183 77.984,348.785 77.880 C 348.248 77.740,348.120 77.860,348.294 78.345 C 348.422 78.705,348.380 78.867,348.201 78.703 C 348.021 78.540,347.597 78.630,347.260 78.903 C 346.753 79.314,346.700 79.296,346.953 78.800 C 347.135 78.443,347.029 78.480,346.690 78.894 C 346.377 79.275,345.994 79.461,345.839 79.306 C 345.684 79.151,345.688 79.365,345.848 79.782 C 346.064 80.343,345.991 80.482,345.567 80.320 C 345.253 80.199,344.733 80.382,344.411 80.726 C 343.891 81.283,343.914 81.321,344.613 81.075 C 345.381 80.805,345.381 80.813,344.641 81.386 C 344.224 81.710,343.729 81.880,343.541 81.764 C 343.353 81.648,343.200 81.844,343.200 82.200 C 343.200 82.556,343.046 82.752,342.858 82.636 C 342.392 82.348,340.716 84.182,341.096 84.563 C 341.263 84.730,341.130 84.807,340.800 84.733 C 340.470 84.660,340.245 84.825,340.300 85.100 C 340.355 85.375,340.175 85.555,339.900 85.500 C 339.625 85.445,339.449 85.638,339.510 85.930 C 339.570 86.221,339.459 86.360,339.263 86.239 C 338.791 85.947,337.512 87.379,337.899 87.766 C 338.065 87.931,337.930 88.007,337.600 87.933 C 337.270 87.860,337.045 88.025,337.100 88.300 C 337.155 88.575,336.975 88.755,336.700 88.700 C 336.425 88.645,336.245 88.825,336.300 89.100 C 336.355 89.375,336.175 89.555,335.900 89.500 C 335.625 89.445,335.449 89.638,335.510 89.930 C 335.570 90.221,335.465 90.364,335.275 90.246 C 335.085 90.129,334.226 90.772,333.365 91.675 C 332.504 92.579,332.070 93.167,332.400 92.982 C 332.916 92.693,332.924 92.741,332.455 93.319 C 332.155 93.689,331.705 93.869,331.455 93.719 C 331.199 93.566,331.227 93.727,331.519 94.088 C 331.930 94.594,331.935 94.793,331.543 95.035 C 331.268 95.205,330.979 95.137,330.894 94.883 C 330.782 94.545,330.601 94.552,330.211 94.912 C 329.863 95.232,329.812 95.561,330.062 95.868 C 330.331 96.197,330.233 96.305,329.731 96.231 C 328.962 96.118,328.000 96.868,328.000 97.581 C 328.000 97.822,327.539 98.195,326.976 98.409 C 326.353 98.646,326.064 98.980,326.238 99.261 C 326.398 99.521,326.350 99.616,326.127 99.478 C 325.607 99.157,322.690 102.148,323.092 102.589 C 323.261 102.776,323.204 102.817,322.965 102.681 C 322.424 102.373,319.468 105.334,319.892 105.759 C 320.061 105.928,319.930 106.007,319.600 105.933 C 319.268 105.860,319.049 106.036,319.110 106.330 C 319.170 106.621,319.066 106.764,318.877 106.648 C 318.473 106.398,315.022 109.884,314.669 110.900 C 314.535 111.285,314.127 111.600,313.764 111.600 C 313.229 111.600,313.195 111.712,313.587 112.184 C 313.988 112.667,313.932 112.741,313.264 112.612 C 312.635 112.491,312.491 112.635,312.612 113.264 C 312.741 113.932,312.667 113.988,312.184 113.587 C 311.712 113.195,311.600 113.229,311.600 113.764 C 311.600 114.127,311.285 114.535,310.900 114.669 C 309.884 115.022,306.398 118.473,306.648 118.877 C 306.764 119.066,306.621 119.170,306.330 119.110 C 306.038 119.049,305.849 119.238,305.910 119.530 C 305.970 119.821,305.859 119.960,305.663 119.839 C 305.180 119.541,303.920 120.979,304.299 121.397 C 304.465 121.579,304.399 121.614,304.153 121.474 C 303.602 121.159,302.284 122.539,302.699 122.997 C 302.865 123.179,302.801 123.215,302.558 123.076 C 302.315 122.938,301.720 123.247,301.235 123.762 C 300.728 124.303,299.898 124.697,299.277 124.692 C 298.685 124.688,298.444 124.599,298.743 124.494 C 299.095 124.371,298.190 123.202,296.173 121.172 C 294.460 119.450,292.906 118.134,292.719 118.250 C 292.533 118.365,292.430 118.221,292.490 117.930 C 292.551 117.638,292.362 117.449,292.070 117.510 C 291.779 117.570,291.640 117.459,291.761 117.263 C 291.882 117.067,291.594 116.568,291.122 116.153 C 290.649 115.739,290.394 115.625,290.555 115.900 C 290.716 116.175,290.657 116.400,290.424 116.400 C 290.191 116.400,289.987 115.995,289.972 115.500 C 289.945 114.641,289.928 114.637,289.600 115.400 C 289.306 116.084,289.252 116.099,289.228 115.500 C 289.213 115.115,288.975 114.797,288.700 114.794 C 288.367 114.790,288.400 114.658,288.800 114.400 C 289.270 114.096,289.170 114.011,288.337 114.006 C 287.447 114.001,287.311 113.860,287.501 113.137 C 287.691 112.409,287.591 112.309,286.863 112.499 C 286.140 112.689,285.999 112.553,285.994 111.663 C 285.989 110.830,285.904 110.730,285.600 111.200 C 285.342 111.600,285.210 111.633,285.206 111.300 C 285.203 111.025,284.885 110.787,284.500 110.772 C 283.901 110.748,283.916 110.694,284.600 110.400 C 285.363 110.072,285.359 110.055,284.500 110.028 C 284.005 110.013,283.600 109.809,283.600 109.576 C 283.600 109.343,283.825 109.284,284.100 109.445 C 284.375 109.606,284.261 109.351,283.847 108.878 C 283.432 108.406,282.933 108.118,282.737 108.239 C 282.541 108.360,282.430 108.221,282.490 107.930 C 282.551 107.638,282.375 107.445,282.100 107.500 C 281.825 107.555,281.645 107.375,281.700 107.100 C 281.755 106.825,281.575 106.645,281.300 106.700 C 281.025 106.755,280.845 106.575,280.900 106.300 C 280.955 106.025,280.730 105.860,280.400 105.933 C 280.070 106.007,279.941 105.926,280.113 105.754 C 280.582 105.285,273.564 98.401,272.608 98.394 C 271.940 98.389,271.904 98.321,272.400 98.000 C 272.878 97.691,272.797 97.605,272.000 97.575 C 271.450 97.554,271.223 97.447,271.496 97.336 C 272.149 97.073,271.132 96.000,270.229 96.000 C 269.853 96.000,269.587 95.638,269.568 95.100 C 269.551 94.605,269.446 94.425,269.335 94.700 C 269.224 94.975,268.958 95.200,268.743 95.200 C 268.528 95.200,268.464 95.020,268.600 94.800 C 268.736 94.580,268.657 94.400,268.424 94.400 C 268.191 94.400,268.000 94.132,268.000 93.805 C 268.000 93.028,266.755 91.581,266.319 91.850 C 266.133 91.965,266.030 91.821,266.090 91.530 C 266.151 91.238,265.975 91.045,265.700 91.100 C 265.425 91.155,265.245 90.975,265.300 90.700 C 265.355 90.425,265.162 90.249,264.870 90.310 C 264.579 90.370,264.438 90.263,264.556 90.071 C 264.855 89.587,262.623 87.518,262.208 87.894 C 262.023 88.062,261.984 88.003,262.122 87.761 C 262.399 87.274,260.304 85.069,259.872 85.394 C 259.723 85.507,259.694 85.476,259.808 85.325 C 260.140 84.887,257.111 82.000,256.319 82.000 C 255.923 82.000,255.600 81.809,255.600 81.576 C 255.600 81.343,255.420 81.264,255.200 81.400 C 254.980 81.536,254.800 81.457,254.800 81.224 C 254.800 80.991,254.987 80.800,255.216 80.800 C 255.455 80.800,255.413 80.565,255.116 80.244 C 254.742 79.842,254.519 79.814,254.306 80.144 C 254.121 80.431,254.010 80.330,254.006 79.871 C 254.003 79.471,253.730 78.873,253.400 78.543 C 252.867 78.010,252.800 78.015,252.800 78.595 C 252.800 78.954,252.617 79.134,252.393 78.996 C 252.170 78.858,252.078 78.598,252.189 78.418 C 252.300 78.238,252.033 77.997,251.596 77.883 C 251.158 77.769,250.800 77.467,250.800 77.214 C 250.800 76.960,250.980 76.864,251.200 77.000 C 252.034 77.515,251.553 76.505,250.472 75.469 C 249.852 74.875,249.193 74.526,249.008 74.694 C 248.823 74.862,248.782 74.807,248.916 74.571 C 249.223 74.030,243.070 67.864,242.646 68.288 C 242.474 68.460,242.393 68.330,242.467 68.000 C 242.540 67.668,242.364 67.449,242.070 67.510 C 241.779 67.570,241.640 67.459,241.761 67.263 C 241.882 67.067,241.594 66.568,241.122 66.153 C 240.649 65.739,240.394 65.625,240.555 65.900 C 240.716 66.175,240.657 66.400,240.424 66.400 C 240.191 66.400,239.987 65.995,239.972 65.500 C 239.945 64.641,239.928 64.637,239.600 65.400 C 239.306 66.084,239.252 66.099,239.228 65.500 C 239.213 65.115,238.975 64.797,238.700 64.794 C 238.367 64.790,238.400 64.658,238.800 64.400 C 239.270 64.096,239.170 64.011,238.337 64.006 C 237.447 64.001,237.311 63.860,237.501 63.137 C 237.691 62.409,237.591 62.309,236.863 62.499 C 236.140 62.689,235.999 62.553,235.994 61.663 C 235.989 60.830,235.904 60.730,235.600 61.200 C 235.342 61.600,235.210 61.633,235.206 61.300 C 235.203 61.025,234.885 60.787,234.500 60.772 C 233.901 60.748,233.916 60.694,234.600 60.400 C 235.363 60.072,235.359 60.055,234.500 60.028 C 234.005 60.013,233.600 59.809,233.600 59.576 C 233.600 59.343,233.825 59.284,234.100 59.445 C 234.375 59.606,234.261 59.351,233.847 58.878 C 233.432 58.406,232.933 58.118,232.737 58.239 C 232.541 58.360,232.430 58.221,232.490 57.930 C 232.551 57.638,232.362 57.449,232.070 57.510 C 231.779 57.570,231.635 57.468,231.749 57.282 C 231.864 57.096,230.040 55.067,227.696 52.772 C 225.351 50.477,223.776 49.013,224.194 49.517 C 224.858 50.317,224.868 50.401,224.274 50.173 C 223.900 50.029,223.488 49.494,223.360 48.983 C 223.199 48.343,222.931 48.129,222.498 48.295 C 222.080 48.455,221.967 48.378,222.160 48.065 C 222.521 47.481,221.576 46.475,220.884 46.705 C 220.604 46.799,220.426 46.637,220.487 46.347 C 220.549 46.057,220.192 45.757,219.694 45.681 C 219.196 45.605,218.890 45.378,219.015 45.176 C 219.140 44.974,218.985 44.907,218.672 45.028 C 218.359 45.148,217.831 44.974,217.499 44.642 C 217.167 44.310,216.755 44.165,216.584 44.319 C 216.413 44.474,216.394 44.263,216.542 43.852 C 216.760 43.246,216.658 43.144,216.006 43.314 C 215.481 43.452,215.200 43.330,215.200 42.965 C 215.200 42.613,214.871 42.455,214.316 42.540 C 213.830 42.614,213.076 42.343,212.641 41.937 C 211.798 41.153,210.987 40.932,211.400 41.600 C 211.536 41.820,211.457 42.000,211.224 42.000 C 210.991 42.000,210.800 41.820,210.800 41.600 C 210.800 41.380,210.386 41.200,209.880 41.200 C 209.374 41.200,208.718 40.975,208.421 40.700 C 207.984 40.294,207.942 40.312,208.200 40.800 C 208.458 41.288,208.416 41.306,207.979 40.900 C 207.682 40.625,206.835 40.400,206.096 40.400 C 205.357 40.400,204.845 40.250,204.959 40.067 C 205.072 39.883,204.911 39.733,204.600 39.733 C 204.289 39.733,204.144 39.928,204.276 40.167 C 204.409 40.405,204.275 40.375,203.979 40.100 C 203.623 39.770,202.097 39.600,199.496 39.600 C 196.448 39.600,195.621 39.713,195.853 40.100 C 196.028 40.391,195.839 40.350,195.400 40.000 C 194.961 39.650,194.772 39.609,194.947 39.900 M227.737 53.696 C 227.638 53.859,227.316 53.769,227.021 53.496 C 226.726 53.223,226.565 52.867,226.663 52.704 C 226.762 52.541,227.084 52.631,227.379 52.904 C 227.674 53.177,227.835 53.533,227.737 53.696 M230.937 56.896 C 230.838 57.059,230.516 56.969,230.221 56.696 C 229.926 56.423,229.765 56.067,229.863 55.904 C 229.962 55.741,230.284 55.831,230.579 56.104 C 230.874 56.377,231.035 56.733,230.937 56.896 M167.671 58.420 C 167.192 58.866,166.800 59.104,166.800 58.949 C 166.800 58.560,168.160 57.267,168.371 57.456 C 168.465 57.540,168.150 57.974,167.671 58.420 M158.507 67.600 C 158.130 68.040,157.684 68.400,157.515 68.400 C 157.346 68.400,157.516 68.040,157.893 67.600 C 158.270 67.160,158.716 66.800,158.885 66.800 C 159.054 66.800,158.884 67.160,158.507 67.600 M244.137 70.096 C 244.038 70.259,243.716 70.169,243.421 69.896 C 243.126 69.623,242.965 69.267,243.063 69.104 C 243.162 68.941,243.484 69.031,243.779 69.304 C 244.074 69.577,244.235 69.933,244.137 70.096 M247.600 73.375 C 247.600 73.502,247.252 73.389,246.826 73.123 C 246.400 72.857,246.142 72.495,246.251 72.317 C 246.445 72.003,247.600 72.909,247.600 73.375 M334.306 91.772 C 333.924 92.051,333.730 92.396,333.873 92.540 C 334.016 92.683,333.923 92.800,333.667 92.800 C 333.410 92.800,333.200 92.680,333.200 92.534 C 333.200 92.124,334.574 90.879,334.799 91.084 C 334.909 91.184,334.687 91.493,334.306 91.772 M79.200 104.600 C 79.478 104.935,79.521 105.200,79.298 105.200 C 79.078 105.200,78.674 104.930,78.400 104.600 C 78.122 104.265,78.079 104.000,78.302 104.000 C 78.522 104.000,78.926 104.270,79.200 104.600 M279.200 104.600 C 279.478 104.935,279.521 105.200,279.298 105.200 C 279.078 105.200,278.674 104.930,278.400 104.600 C 278.122 104.265,278.079 104.000,278.302 104.000 C 278.522 104.000,278.926 104.270,279.200 104.600 M117.671 108.420 C 117.192 108.866,116.800 109.104,116.800 108.949 C 116.800 108.560,118.160 107.267,118.371 107.456 C 118.465 107.540,118.150 107.974,117.671 108.420 M317.671 108.420 C 317.192 108.866,316.800 109.104,316.800 108.949 C 316.800 108.560,318.160 107.267,318.371 107.456 C 318.465 107.540,318.150 107.974,317.671 108.420 M108.507 117.600 C 108.130 118.040,107.684 118.400,107.515 118.400 C 107.346 118.400,107.516 118.040,107.893 117.600 C 108.270 117.160,108.716 116.800,108.885 116.800 C 109.054 116.800,108.884 117.160,108.507 117.600 M308.507 117.600 C 308.130 118.040,307.684 118.400,307.515 118.400 C 307.346 118.400,307.516 118.040,307.893 117.600 C 308.270 117.160,308.716 116.800,308.885 116.800 C 309.054 116.800,308.884 117.160,308.507 117.600 M94.137 120.096 C 94.038 120.259,93.716 120.169,93.421 119.896 C 93.126 119.623,92.965 119.267,93.063 119.104 C 93.162 118.941,93.484 119.031,93.779 119.304 C 94.074 119.577,94.235 119.933,94.137 120.096 M294.137 120.096 C 294.038 120.259,293.716 120.169,293.421 119.896 C 293.126 119.623,292.965 119.267,293.063 119.104 C 293.162 118.941,293.484 119.031,293.779 119.304 C 294.074 119.577,294.235 119.933,294.137 120.096 M97.337 123.296 C 97.238 123.459,96.916 123.369,96.621 123.096 C 96.326 122.823,96.165 122.467,96.263 122.304 C 96.362 122.141,96.684 122.231,96.979 122.504 C 97.274 122.777,97.435 123.133,97.337 123.296 M297.337 123.296 C 297.238 123.459,296.916 123.369,296.621 123.096 C 296.326 122.823,296.165 122.467,296.263 122.304 C 296.362 122.141,296.684 122.231,296.979 122.504 C 297.274 122.777,297.435 123.133,297.337 123.296 " stroke="none" fill="#3c3c44" fill-rule="evenodd"></path><path id="path1" d="M188.600 41.600 C 188.464 41.820,188.734 42.000,189.200 42.000 C 189.666 42.000,189.936 41.820,189.800 41.600 C 189.664 41.380,189.394 41.200,189.200 41.200 C 189.006 41.200,188.736 41.380,188.600 41.600 M186.000 42.400 C 185.515 42.714,185.572 42.789,186.300 42.794 C 186.795 42.797,187.200 42.620,187.200 42.400 C 187.200 41.899,186.776 41.899,186.000 42.400 M217.200 44.322 C 217.200 44.514,217.661 44.882,218.225 45.139 C 218.811 45.406,219.145 45.434,219.003 45.205 C 218.640 44.618,217.200 43.912,217.200 44.322 M179.544 46.379 C 178.622 47.141,178.620 47.153,179.472 46.940 C 179.952 46.820,180.441 46.469,180.560 46.161 C 180.846 45.414,180.667 45.453,179.544 46.379 M226.663 52.704 C 226.565 52.867,226.726 53.223,227.021 53.496 C 227.316 53.769,227.638 53.859,227.737 53.696 C 227.835 53.533,227.674 53.177,227.379 52.904 C 227.084 52.631,226.762 52.541,226.663 52.704 M229.863 55.904 C 229.765 56.067,229.926 56.423,230.221 56.696 C 230.516 56.969,230.838 57.059,230.937 56.896 C 231.035 56.733,230.874 56.377,230.579 56.104 C 230.284 55.831,229.962 55.741,229.863 55.904 M167.500 57.985 C 166.482 58.977,166.640 59.380,167.671 58.420 C 168.150 57.974,168.465 57.540,168.371 57.456 C 168.277 57.372,167.885 57.610,167.500 57.985 M234.400 60.692 C 234.730 60.817,235.132 61.118,235.294 61.360 C 235.475 61.631,235.590 61.532,235.594 61.100 C 235.598 60.630,235.305 60.410,234.700 60.432 C 234.099 60.453,233.999 60.539,234.400 60.692 M236.000 61.921 C 236.000 62.536,236.177 62.707,236.634 62.532 C 236.982 62.398,237.117 62.177,236.934 62.040 C 236.750 61.903,236.465 61.628,236.300 61.429 C 236.135 61.230,236.000 61.451,236.000 61.921 M162.453 62.648 C 162.013 63.145,162.005 63.358,162.412 63.733 C 162.766 64.061,162.841 64.064,162.663 63.745 C 162.354 63.192,163.342 62.288,163.801 62.703 C 163.981 62.867,163.999 62.775,163.841 62.500 C 163.467 61.852,163.126 61.888,162.453 62.648 M237.462 63.383 C 237.292 63.826,237.476 63.998,238.113 63.994 C 238.601 63.991,238.820 63.853,238.600 63.689 C 238.380 63.525,238.087 63.250,237.949 63.078 C 237.812 62.906,237.592 63.043,237.462 63.383 M238.640 64.706 C 238.882 64.868,239.183 65.270,239.308 65.600 C 239.461 66.001,239.547 65.901,239.568 65.300 C 239.590 64.695,239.370 64.402,238.900 64.406 C 238.468 64.410,238.369 64.525,238.640 64.706 M157.893 67.600 C 157.516 68.040,157.346 68.400,157.515 68.400 C 157.684 68.400,158.130 68.040,158.507 67.600 C 158.884 67.160,159.054 66.800,158.885 66.800 C 158.716 66.800,158.270 67.160,157.893 67.600 M243.063 69.104 C 242.965 69.267,243.126 69.623,243.421 69.896 C 243.716 70.169,244.038 70.259,244.137 70.096 C 244.235 69.933,244.074 69.577,243.779 69.304 C 243.484 69.031,243.162 68.941,243.063 69.104 M246.251 72.317 C 246.142 72.495,246.400 72.857,246.826 73.123 C 247.735 73.691,247.845 73.388,247.026 72.568 C 246.710 72.252,246.361 72.139,246.251 72.317 M372.505 73.477 C 372.893 73.578,373.090 73.855,372.943 74.092 C 372.785 74.349,372.864 74.408,373.138 74.238 C 373.907 73.763,373.657 73.197,372.700 73.246 C 372.015 73.282,371.968 73.337,372.505 73.477 M350.400 76.833 C 349.190 77.479,348.141 78.231,348.070 78.504 C 347.983 78.831,348.051 78.857,348.270 78.579 C 348.451 78.348,349.320 77.827,350.200 77.421 C 352.014 76.586,353.572 75.585,352.989 75.630 C 352.775 75.646,351.610 76.188,350.400 76.833 M147.682 77.450 C 147.098 78.076,147.035 79.349,147.607 78.996 C 147.830 78.858,147.922 78.598,147.811 78.418 C 147.700 78.238,147.967 77.997,148.404 77.883 C 148.842 77.769,149.200 77.508,149.200 77.304 C 149.200 76.760,148.241 76.852,147.682 77.450 M250.800 77.237 C 250.800 77.478,251.158 77.769,251.596 77.883 C 252.033 77.997,252.300 78.238,252.189 78.418 C 252.078 78.598,252.170 78.858,252.393 78.996 C 252.983 79.360,252.893 78.029,252.290 77.471 C 251.597 76.829,250.800 76.704,250.800 77.237 M388.000 80.487 C 388.000 80.832,388.296 81.228,388.657 81.367 C 389.586 81.723,389.611 81.518,388.748 80.630 C 388.129 79.993,388.000 79.969,388.000 80.487 M143.700 81.398 C 143.425 81.711,143.203 82.199,143.206 82.483 C 143.210 82.849,143.323 82.825,143.592 82.400 C 143.800 82.070,144.187 81.800,144.452 81.800 C 144.717 81.800,145.008 81.575,145.100 81.300 C 145.326 80.622,144.321 80.693,143.700 81.398 M254.800 81.224 C 254.800 81.457,254.980 81.536,255.200 81.400 C 255.420 81.264,255.600 81.343,255.600 81.576 C 255.600 81.809,255.883 82.000,256.229 82.000 C 256.787 82.000,256.790 81.933,256.257 81.400 C 255.561 80.703,254.800 80.611,254.800 81.224 M333.900 91.585 C 333.087 92.377,333.006 92.800,333.667 92.800 C 333.923 92.800,334.016 92.683,333.873 92.540 C 333.730 92.396,333.924 92.051,334.306 91.772 C 334.687 91.493,334.909 91.184,334.799 91.084 C 334.690 90.985,334.285 91.210,333.900 91.585 M131.661 93.547 C 130.767 94.323,130.479 95.374,131.230 95.123 C 131.466 95.044,131.601 94.868,131.530 94.732 C 131.459 94.596,131.743 94.105,132.162 93.642 C 133.106 92.599,132.817 92.544,131.661 93.547 M331.661 93.547 C 330.767 94.323,330.479 95.374,331.230 95.123 C 331.466 95.044,331.601 94.868,331.530 94.732 C 331.459 94.596,331.743 94.105,332.162 93.642 C 333.106 92.599,332.817 92.544,331.661 93.547 M68.000 93.771 C 68.000 94.117,68.191 94.400,68.424 94.400 C 68.657 94.400,68.736 94.580,68.600 94.800 C 68.464 95.020,68.543 95.200,68.776 95.200 C 69.389 95.200,69.297 94.439,68.600 93.743 C 68.067 93.210,68.000 93.213,68.000 93.771 M268.000 93.771 C 268.000 94.117,268.191 94.400,268.424 94.400 C 268.657 94.400,268.736 94.580,268.600 94.800 C 268.464 95.020,268.543 95.200,268.776 95.200 C 269.389 95.200,269.297 94.439,268.600 93.743 C 268.067 93.210,268.000 93.213,268.000 93.771 M78.400 104.600 C 78.674 104.930,79.078 105.200,79.298 105.200 C 79.521 105.200,79.478 104.935,79.200 104.600 C 78.926 104.270,78.522 104.000,78.302 104.000 C 78.079 104.000,78.122 104.265,78.400 104.600 M278.400 104.600 C 278.674 104.930,279.078 105.200,279.298 105.200 C 279.521 105.200,279.478 104.935,279.200 104.600 C 278.926 104.270,278.522 104.000,278.302 104.000 C 278.079 104.000,278.122 104.265,278.400 104.600 M117.500 107.985 C 116.482 108.977,116.640 109.380,117.671 108.420 C 118.150 107.974,118.465 107.540,118.371 107.456 C 118.277 107.372,117.885 107.610,117.500 107.985 M317.500 107.985 C 316.482 108.977,316.640 109.380,317.671 108.420 C 318.150 107.974,318.465 107.540,318.371 107.456 C 318.277 107.372,317.885 107.610,317.500 107.985 M84.400 110.692 C 84.730 110.817,85.132 111.118,85.294 111.360 C 85.475 111.631,85.590 111.532,85.594 111.100 C 85.598 110.630,85.305 110.410,84.700 110.432 C 84.099 110.453,83.999 110.539,84.400 110.692 M284.400 110.692 C 284.730 110.817,285.132 111.118,285.294 111.360 C 285.475 111.631,285.590 111.532,285.594 111.100 C 285.598 110.630,285.305 110.410,284.700 110.432 C 284.099 110.453,283.999 110.539,284.400 110.692 M86.000 111.921 C 86.000 112.536,86.177 112.707,86.634 112.532 C 86.982 112.398,87.117 112.177,86.934 112.040 C 86.750 111.903,86.465 111.628,86.300 111.429 C 86.135 111.230,86.000 111.451,86.000 111.921 M286.000 111.921 C 286.000 112.536,286.177 112.707,286.634 112.532 C 286.982 112.398,287.117 112.177,286.934 112.040 C 286.750 111.903,286.465 111.628,286.300 111.429 C 286.135 111.230,286.000 111.451,286.000 111.921 M112.453 112.648 C 112.013 113.145,112.005 113.358,112.412 113.733 C 112.766 114.061,112.841 114.064,112.663 113.745 C 112.354 113.192,113.342 112.288,113.801 112.703 C 113.981 112.867,113.999 112.775,113.841 112.500 C 113.467 111.852,113.126 111.888,112.453 112.648 M312.453 112.648 C 312.013 113.145,312.005 113.358,312.412 113.733 C 312.766 114.061,312.841 114.064,312.663 113.745 C 312.354 113.192,313.342 112.288,313.801 112.703 C 313.981 112.867,313.999 112.775,313.841 112.500 C 313.467 111.852,313.126 111.888,312.453 112.648 M87.462 113.383 C 87.292 113.826,87.476 113.998,88.113 113.994 C 88.601 113.991,88.820 113.853,88.600 113.689 C 88.380 113.525,88.087 113.250,87.949 113.078 C 87.812 112.906,87.592 113.043,87.462 113.383 M287.462 113.383 C 287.292 113.826,287.476 113.998,288.113 113.994 C 288.601 113.991,288.820 113.853,288.600 113.689 C 288.380 113.525,288.087 113.250,287.949 113.078 C 287.812 112.906,287.592 113.043,287.462 113.383 M88.640 114.706 C 88.882 114.868,89.183 115.270,89.308 115.600 C 89.461 116.001,89.547 115.901,89.568 115.300 C 89.590 114.695,89.370 114.402,88.900 114.406 C 88.468 114.410,88.369 114.525,88.640 114.706 M288.640 114.706 C 288.882 114.868,289.183 115.270,289.308 115.600 C 289.461 116.001,289.547 115.901,289.568 115.300 C 289.590 114.695,289.370 114.402,288.900 114.406 C 288.468 114.410,288.369 114.525,288.640 114.706 M107.893 117.600 C 107.516 118.040,107.346 118.400,107.515 118.400 C 107.684 118.400,108.130 118.040,108.507 117.600 C 108.884 117.160,109.054 116.800,108.885 116.800 C 108.716 116.800,108.270 117.160,107.893 117.600 M307.893 117.600 C 307.516 118.040,307.346 118.400,307.515 118.400 C 307.684 118.400,308.130 118.040,308.507 117.600 C 308.884 117.160,309.054 116.800,308.885 116.800 C 308.716 116.800,308.270 117.160,307.893 117.600 M93.063 119.104 C 92.965 119.267,93.126 119.623,93.421 119.896 C 93.716 120.169,94.038 120.259,94.137 120.096 C 94.235 119.933,94.074 119.577,93.779 119.304 C 93.484 119.031,93.162 118.941,93.063 119.104 M293.063 119.104 C 292.965 119.267,293.126 119.623,293.421 119.896 C 293.716 120.169,294.038 120.259,294.137 120.096 C 294.235 119.933,294.074 119.577,293.779 119.304 C 293.484 119.031,293.162 118.941,293.063 119.104 M96.263 122.304 C 96.165 122.467,96.326 122.823,96.621 123.096 C 96.916 123.369,97.238 123.459,97.337 123.296 C 97.435 123.133,97.274 122.777,96.979 122.504 C 96.684 122.231,96.362 122.141,96.263 122.304 M296.263 122.304 C 296.165 122.467,296.326 122.823,296.621 123.096 C 296.916 123.369,297.238 123.459,297.337 123.296 C 297.435 123.133,297.274 122.777,296.979 122.504 C 296.684 122.231,296.362 122.141,296.263 122.304 M1.290 302.219 C 1.245 302.759,1.357 303.200,1.538 303.200 C 1.718 303.200,1.840 302.844,1.808 302.408 C 1.721 301.223,1.383 301.099,1.290 302.219 M393.094 316.239 C 392.734 316.600,393.230 317.629,393.642 317.374 C 393.839 317.252,394.000 316.893,394.000 316.576 C 394.000 315.987,393.523 315.810,393.094 316.239 M9.206 323.100 C 9.224 323.977,9.988 324.559,9.994 323.700 C 9.997 323.205,9.820 322.800,9.600 322.800 C 9.380 322.800,9.203 322.935,9.206 323.100 M12.533 328.971 C 12.785 329.505,13.055 329.878,13.132 329.801 C 13.381 329.553,12.758 328.000,12.411 328.000 C 12.226 328.000,12.281 328.437,12.533 328.971 M386.917 329.100 C 386.885 329.705,386.960 329.930,387.083 329.600 C 387.207 329.270,387.485 328.775,387.703 328.500 C 387.980 328.150,387.930 328.000,387.536 328.000 C 387.204 328.000,386.951 328.450,386.917 329.100 M13.614 329.654 C 13.606 329.794,13.863 330.514,14.184 331.254 C 14.506 331.994,14.769 332.330,14.770 332.000 C 14.772 331.424,13.643 329.134,13.614 329.654 M368.245 349.428 C 368.113 349.770,367.824 349.939,367.603 349.802 C 367.381 349.665,367.200 349.743,367.200 349.976 C 367.200 350.542,367.646 350.492,368.524 349.826 C 368.922 349.524,369.076 349.171,368.866 349.041 C 368.656 348.911,368.376 349.085,368.245 349.428 M34.203 351.595 C 34.061 351.824,34.227 351.888,34.596 351.746 C 34.990 351.595,35.188 351.692,35.116 352.001 C 35.052 352.275,35.225 352.582,35.500 352.683 C 35.775 352.784,36.000 352.601,36.000 352.276 C 36.000 351.951,35.715 351.576,35.367 351.443 C 34.538 351.125,34.490 351.131,34.203 351.595 M362.700 353.076 C 362.315 353.176,362.000 353.409,362.000 353.592 C 362.000 353.775,362.360 353.831,362.800 353.716 C 363.240 353.601,363.600 353.348,363.600 353.153 C 363.600 352.959,363.555 352.821,363.500 352.846 C 363.445 352.872,363.085 352.975,362.700 353.076 M356.188 356.780 C 356.314 356.984,356.098 357.336,355.708 357.563 C 355.319 357.790,355.180 357.975,355.400 357.975 C 356.313 357.974,357.268 356.912,356.591 356.652 C 356.243 356.518,356.062 356.576,356.188 356.780 M345.600 361.624 C 345.600 361.857,345.450 361.955,345.267 361.841 C 345.083 361.728,344.933 361.903,344.933 362.231 C 344.933 362.641,345.062 362.698,345.347 362.413 C 345.574 362.186,346.095 362.000,346.504 362.000 C 346.913 362.000,347.136 361.820,347.000 361.600 C 346.671 361.068,345.600 361.086,345.600 361.624 M342.302 362.666 C 342.579 362.777,342.679 363.078,342.526 363.334 C 342.372 363.590,342.596 363.536,343.023 363.213 C 343.450 362.890,343.875 362.575,343.967 362.513 C 344.058 362.451,343.608 362.414,342.967 362.432 C 342.325 362.449,342.026 362.554,342.302 362.666 M332.850 365.340 C 332.551 365.700,332.649 365.849,333.213 365.891 C 334.161 365.962,334.606 365.365,333.827 365.066 C 333.514 364.946,333.075 365.069,332.850 365.340 " stroke="none" fill="#403c44" fill-rule="evenodd"></path><path id="path2" d="M188.600 41.600 C 188.464 41.820,188.734 42.000,189.200 42.000 C 189.666 42.000,189.936 41.820,189.800 41.600 C 189.664 41.380,189.394 41.200,189.200 41.200 C 189.006 41.200,188.736 41.380,188.600 41.600 M186.000 42.400 C 185.515 42.714,185.572 42.789,186.300 42.794 C 186.795 42.797,187.200 42.620,187.200 42.400 C 187.200 41.899,186.776 41.899,186.000 42.400 M217.200 44.322 C 217.200 44.514,217.661 44.882,218.225 45.139 C 218.811 45.406,219.145 45.434,219.003 45.205 C 218.640 44.618,217.200 43.912,217.200 44.322 M179.544 46.379 C 178.622 47.141,178.620 47.153,179.472 46.940 C 179.952 46.820,180.441 46.469,180.560 46.161 C 180.846 45.414,180.667 45.453,179.544 46.379 M226.663 52.704 C 226.565 52.867,226.726 53.223,227.021 53.496 C 227.316 53.769,227.638 53.859,227.737 53.696 C 227.835 53.533,227.674 53.177,227.379 52.904 C 227.084 52.631,226.762 52.541,226.663 52.704 M229.863 55.904 C 229.765 56.067,229.926 56.423,230.221 56.696 C 230.516 56.969,230.838 57.059,230.937 56.896 C 231.035 56.733,230.874 56.377,230.579 56.104 C 230.284 55.831,229.962 55.741,229.863 55.904 M167.500 57.985 C 166.482 58.977,166.640 59.380,167.671 58.420 C 168.150 57.974,168.465 57.540,168.371 57.456 C 168.277 57.372,167.885 57.610,167.500 57.985 M234.400 60.692 C 234.730 60.817,235.132 61.118,235.294 61.360 C 235.475 61.631,235.590 61.532,235.594 61.100 C 235.598 60.630,235.305 60.410,234.700 60.432 C 234.099 60.453,233.999 60.539,234.400 60.692 M236.000 61.921 C 236.000 62.536,236.177 62.707,236.634 62.532 C 236.982 62.398,237.117 62.177,236.934 62.040 C 236.750 61.903,236.465 61.628,236.300 61.429 C 236.135 61.230,236.000 61.451,236.000 61.921 M162.453 62.648 C 162.013 63.145,162.005 63.358,162.412 63.733 C 162.766 64.061,162.841 64.064,162.663 63.745 C 162.354 63.192,163.342 62.288,163.801 62.703 C 163.981 62.867,163.999 62.775,163.841 62.500 C 163.467 61.852,163.126 61.888,162.453 62.648 M237.462 63.383 C 237.292 63.826,237.476 63.998,238.113 63.994 C 238.601 63.991,238.820 63.853,238.600 63.689 C 238.380 63.525,238.087 63.250,237.949 63.078 C 237.812 62.906,237.592 63.043,237.462 63.383 M238.640 64.706 C 238.882 64.868,239.183 65.270,239.308 65.600 C 239.461 66.001,239.547 65.901,239.568 65.300 C 239.590 64.695,239.370 64.402,238.900 64.406 C 238.468 64.410,238.369 64.525,238.640 64.706 M157.893 67.600 C 157.516 68.040,157.346 68.400,157.515 68.400 C 157.684 68.400,158.130 68.040,158.507 67.600 C 158.884 67.160,159.054 66.800,158.885 66.800 C 158.716 66.800,158.270 67.160,157.893 67.600 M243.063 69.104 C 242.965 69.267,243.126 69.623,243.421 69.896 C 243.716 70.169,244.038 70.259,244.137 70.096 C 244.235 69.933,244.074 69.577,243.779 69.304 C 243.484 69.031,243.162 68.941,243.063 69.104 M246.251 72.317 C 246.142 72.495,246.400 72.857,246.826 73.123 C 247.735 73.691,247.845 73.388,247.026 72.568 C 246.710 72.252,246.361 72.139,246.251 72.317 M372.505 73.477 C 372.893 73.578,373.090 73.855,372.943 74.092 C 372.785 74.349,372.864 74.408,373.138 74.238 C 373.907 73.763,373.657 73.197,372.700 73.246 C 372.015 73.282,371.968 73.337,372.505 73.477 M350.400 76.833 C 349.190 77.479,348.141 78.231,348.070 78.504 C 347.983 78.831,348.051 78.857,348.270 78.579 C 348.451 78.348,349.320 77.827,350.200 77.421 C 352.014 76.586,353.572 75.585,352.989 75.630 C 352.775 75.646,351.610 76.188,350.400 76.833 M147.682 77.450 C 147.098 78.076,147.035 79.349,147.607 78.996 C 147.830 78.858,147.922 78.598,147.811 78.418 C 147.700 78.238,147.967 77.997,148.404 77.883 C 148.842 77.769,149.200 77.508,149.200 77.304 C 149.200 76.760,148.241 76.852,147.682 77.450 M250.800 77.237 C 250.800 77.478,251.158 77.769,251.596 77.883 C 252.033 77.997,252.300 78.238,252.189 78.418 C 252.078 78.598,252.170 78.858,252.393 78.996 C 252.983 79.360,252.893 78.029,252.290 77.471 C 251.597 76.829,250.800 76.704,250.800 77.237 M388.000 80.487 C 388.000 80.832,388.296 81.228,388.657 81.367 C 389.586 81.723,389.611 81.518,388.748 80.630 C 388.129 79.993,388.000 79.969,388.000 80.487 M143.700 81.398 C 143.425 81.711,143.203 82.199,143.206 82.483 C 143.210 82.849,143.323 82.825,143.592 82.400 C 143.800 82.070,144.187 81.800,144.452 81.800 C 144.717 81.800,145.008 81.575,145.100 81.300 C 145.326 80.622,144.321 80.693,143.700 81.398 M254.800 81.224 C 254.800 81.457,254.980 81.536,255.200 81.400 C 255.420 81.264,255.600 81.343,255.600 81.576 C 255.600 81.809,255.883 82.000,256.229 82.000 C 256.787 82.000,256.790 81.933,256.257 81.400 C 255.561 80.703,254.800 80.611,254.800 81.224 M333.900 91.585 C 333.087 92.377,333.006 92.800,333.667 92.800 C 333.923 92.800,334.016 92.683,333.873 92.540 C 333.730 92.396,333.924 92.051,334.306 91.772 C 334.687 91.493,334.909 91.184,334.799 91.084 C 334.690 90.985,334.285 91.210,333.900 91.585 M131.661 93.547 C 130.767 94.323,130.479 95.374,131.230 95.123 C 131.466 95.044,131.601 94.868,131.530 94.732 C 131.459 94.596,131.743 94.105,132.162 93.642 C 133.106 92.599,132.817 92.544,131.661 93.547 M331.661 93.547 C 330.767 94.323,330.479 95.374,331.230 95.123 C 331.466 95.044,331.601 94.868,331.530 94.732 C 331.459 94.596,331.743 94.105,332.162 93.642 C 333.106 92.599,332.817 92.544,331.661 93.547 M68.000 93.771 C 68.000 94.117,68.191 94.400,68.424 94.400 C 68.657 94.400,68.736 94.580,68.600 94.800 C 68.464 95.020,68.543 95.200,68.776 95.200 C 69.389 95.200,69.297 94.439,68.600 93.743 C 68.067 93.210,68.000 93.213,68.000 93.771 M268.000 93.771 C 268.000 94.117,268.191 94.400,268.424 94.400 C 268.657 94.400,268.736 94.580,268.600 94.800 C 268.464 95.020,268.543 95.200,268.776 95.200 C 269.389 95.200,269.297 94.439,268.600 93.743 C 268.067 93.210,268.000 93.213,268.000 93.771 M78.400 104.600 C 78.674 104.930,79.078 105.200,79.298 105.200 C 79.521 105.200,79.478 104.935,79.200 104.600 C 78.926 104.270,78.522 104.000,78.302 104.000 C 78.079 104.000,78.122 104.265,78.400 104.600 M278.400 104.600 C 278.674 104.930,279.078 105.200,279.298 105.200 C 279.521 105.200,279.478 104.935,279.200 104.600 C 278.926 104.270,278.522 104.000,278.302 104.000 C 278.079 104.000,278.122 104.265,278.400 104.600 M117.500 107.985 C 116.482 108.977,116.640 109.380,117.671 108.420 C 118.150 107.974,118.465 107.540,118.371 107.456 C 118.277 107.372,117.885 107.610,117.500 107.985 M317.500 107.985 C 316.482 108.977,316.640 109.380,317.671 108.420 C 318.150 107.974,318.465 107.540,318.371 107.456 C 318.277 107.372,317.885 107.610,317.500 107.985 M84.400 110.692 C 84.730 110.817,85.132 111.118,85.294 111.360 C 85.475 111.631,85.590 111.532,85.594 111.100 C 85.598 110.630,85.305 110.410,84.700 110.432 C 84.099 110.453,83.999 110.539,84.400 110.692 M284.400 110.692 C 284.730 110.817,285.132 111.118,285.294 111.360 C 285.475 111.631,285.590 111.532,285.594 111.100 C 285.598 110.630,285.305 110.410,284.700 110.432 C 284.099 110.453,283.999 110.539,284.400 110.692 M86.000 111.921 C 86.000 112.536,86.177 112.707,86.634 112.532 C 86.982 112.398,87.117 112.177,86.934 112.040 C 86.750 111.903,86.465 111.628,86.300 111.429 C 86.135 111.230,86.000 111.451,86.000 111.921 M286.000 111.921 C 286.000 112.536,286.177 112.707,286.634 112.532 C 286.982 112.398,287.117 112.177,286.934 112.040 C 286.750 111.903,286.465 111.628,286.300 111.429 C 286.135 111.230,286.000 111.451,286.000 111.921 M112.453 112.648 C 112.013 113.145,112.005 113.358,112.412 113.733 C 112.766 114.061,112.841 114.064,112.663 113.745 C 112.354 113.192,113.342 112.288,113.801 112.703 C 113.981 112.867,113.999 112.775,113.841 112.500 C 113.467 111.852,113.126 111.888,112.453 112.648 M312.453 112.648 C 312.013 113.145,312.005 113.358,312.412 113.733 C 312.766 114.061,312.841 114.064,312.663 113.745 C 312.354 113.192,313.342 112.288,313.801 112.703 C 313.981 112.867,313.999 112.775,313.841 112.500 C 313.467 111.852,313.126 111.888,312.453 112.648 M87.462 113.383 C 87.292 113.826,87.476 113.998,88.113 113.994 C 88.601 113.991,88.820 113.853,88.600 113.689 C 88.380 113.525,88.087 113.250,87.949 113.078 C 87.812 112.906,87.592 113.043,87.462 113.383 M287.462 113.383 C 287.292 113.826,287.476 113.998,288.113 113.994 C 288.601 113.991,288.820 113.853,288.600 113.689 C 288.380 113.525,288.087 113.250,287.949 113.078 C 287.812 112.906,287.592 113.043,287.462 113.383 M88.640 114.706 C 88.882 114.868,89.183 115.270,89.308 115.600 C 89.461 116.001,89.547 115.901,89.568 115.300 C 89.590 114.695,89.370 114.402,88.900 114.406 C 88.468 114.410,88.369 114.525,88.640 114.706 M288.640 114.706 C 288.882 114.868,289.183 115.270,289.308 115.600 C 289.461 116.001,289.547 115.901,289.568 115.300 C 289.590 114.695,289.370 114.402,288.900 114.406 C 288.468 114.410,288.369 114.525,288.640 114.706 M107.893 117.600 C 107.516 118.040,107.346 118.400,107.515 118.400 C 107.684 118.400,108.130 118.040,108.507 117.600 C 108.884 117.160,109.054 116.800,108.885 116.800 C 108.716 116.800,108.270 117.160,107.893 117.600 M307.893 117.600 C 307.516 118.040,307.346 118.400,307.515 118.400 C 307.684 118.400,308.130 118.040,308.507 117.600 C 308.884 117.160,309.054 116.800,308.885 116.800 C 308.716 116.800,308.270 117.160,307.893 117.600 M93.063 119.104 C 92.965 119.267,93.126 119.623,93.421 119.896 C 93.716 120.169,94.038 120.259,94.137 120.096 C 94.235 119.933,94.074 119.577,93.779 119.304 C 93.484 119.031,93.162 118.941,93.063 119.104 M293.063 119.104 C 292.965 119.267,293.126 119.623,293.421 119.896 C 293.716 120.169,294.038 120.259,294.137 120.096 C 294.235 119.933,294.074 119.577,293.779 119.304 C 293.484 119.031,293.162 118.941,293.063 119.104 M96.263 122.304 C 96.165 122.467,96.326 122.823,96.621 123.096 C 96.916 123.369,97.238 123.459,97.337 123.296 C 97.435 123.133,97.274 122.777,96.979 122.504 C 96.684 122.231,96.362 122.141,96.263 122.304 M296.263 122.304 C 296.165 122.467,296.326 122.823,296.621 123.096 C 296.916 123.369,297.238 123.459,297.337 123.296 C 297.435 123.133,297.274 122.777,296.979 122.504 C 296.684 122.231,296.362 122.141,296.263 122.304 M1.290 302.219 C 1.245 302.759,1.357 303.200,1.538 303.200 C 1.718 303.200,1.840 302.844,1.808 302.408 C 1.721 301.223,1.383 301.099,1.290 302.219 M393.094 316.239 C 392.734 316.600,393.230 317.629,393.642 317.374 C 393.839 317.252,394.000 316.893,394.000 316.576 C 394.000 315.987,393.523 315.810,393.094 316.239 M9.206 323.100 C 9.224 323.977,9.988 324.559,9.994 323.700 C 9.997 323.205,9.820 322.800,9.600 322.800 C 9.380 322.800,9.203 322.935,9.206 323.100 M12.533 328.971 C 12.785 329.505,13.055 329.878,13.132 329.801 C 13.381 329.553,12.758 328.000,12.411 328.000 C 12.226 328.000,12.281 328.437,12.533 328.971 M386.917 329.100 C 386.885 329.705,386.960 329.930,387.083 329.600 C 387.207 329.270,387.485 328.775,387.703 328.500 C 387.980 328.150,387.930 328.000,387.536 328.000 C 387.204 328.000,386.951 328.450,386.917 329.100 M13.614 329.654 C 13.606 329.794,13.863 330.514,14.184 331.254 C 14.506 331.994,14.769 332.330,14.770 332.000 C 14.772 331.424,13.643 329.134,13.614 329.654 M368.245 349.428 C 368.113 349.770,367.824 349.939,367.603 349.802 C 367.381 349.665,367.200 349.743,367.200 349.976 C 367.200 350.542,367.646 350.492,368.524 349.826 C 368.922 349.524,369.076 349.171,368.866 349.041 C 368.656 348.911,368.376 349.085,368.245 349.428 M34.203 351.595 C 34.061 351.824,34.227 351.888,34.596 351.746 C 34.990 351.595,35.188 351.692,35.116 352.001 C 35.052 352.275,35.225 352.582,35.500 352.683 C 35.775 352.784,36.000 352.601,36.000 352.276 C 36.000 351.951,35.715 351.576,35.367 351.443 C 34.538 351.125,34.490 351.131,34.203 351.595 M362.700 353.076 C 362.315 353.176,362.000 353.409,362.000 353.592 C 362.000 353.775,362.360 353.831,362.800 353.716 C 363.240 353.601,363.600 353.348,363.600 353.153 C 363.600 352.959,363.555 352.821,363.500 352.846 C 363.445 352.872,363.085 352.975,362.700 353.076 M356.188 356.780 C 356.314 356.984,356.098 357.336,355.708 357.563 C 355.319 357.790,355.180 357.975,355.400 357.975 C 356.313 357.974,357.268 356.912,356.591 356.652 C 356.243 356.518,356.062 356.576,356.188 356.780 M345.600 361.624 C 345.600 361.857,345.450 361.955,345.267 361.841 C 345.083 361.728,344.933 361.903,344.933 362.231 C 344.933 362.641,345.062 362.698,345.347 362.413 C 345.574 362.186,346.095 362.000,346.504 362.000 C 346.913 362.000,347.136 361.820,347.000 361.600 C 346.671 361.068,345.600 361.086,345.600 361.624 M342.302 362.666 C 342.579 362.777,342.679 363.078,342.526 363.334 C 342.372 363.590,342.596 363.536,343.023 363.213 C 343.450 362.890,343.875 362.575,343.967 362.513 C 344.058 362.451,343.608 362.414,342.967 362.432 C 342.325 362.449,342.026 362.554,342.302 362.666 M332.850 365.340 C 332.551 365.700,332.649 365.849,333.213 365.891 C 334.161 365.962,334.606 365.365,333.827 365.066 C 333.514 364.946,333.075 365.069,332.850 365.340 " stroke="none" fill="#403c44" fill-rule="evenodd"></path><path id="path3" d="M188.600 41.600 C 188.464 41.820,188.734 42.000,189.200 42.000 C 189.666 42.000,189.936 41.820,189.800 41.600 C 189.664 41.380,189.394 41.200,189.200 41.200 C 189.006 41.200,188.736 41.380,188.600 41.600 M186.000 42.400 C 185.515 42.714,185.572 42.789,186.300 42.794 C 186.795 42.797,187.200 42.620,187.200 42.400 C 187.200 41.899,186.776 41.899,186.000 42.400 M217.200 44.322 C 217.200 44.514,217.661 44.882,218.225 45.139 C 218.811 45.406,219.145 45.434,219.003 45.205 C 218.640 44.618,217.200 43.912,217.200 44.322 M179.544 46.379 C 178.622 47.141,178.620 47.153,179.472 46.940 C 179.952 46.820,180.441 46.469,180.560 46.161 C 180.846 45.414,180.667 45.453,179.544 46.379 M226.663 52.704 C 226.565 52.867,226.726 53.223,227.021 53.496 C 227.316 53.769,227.638 53.859,227.737 53.696 C 227.835 53.533,227.674 53.177,227.379 52.904 C 227.084 52.631,226.762 52.541,226.663 52.704 M229.863 55.904 C 229.765 56.067,229.926 56.423,230.221 56.696 C 230.516 56.969,230.838 57.059,230.937 56.896 C 231.035 56.733,230.874 56.377,230.579 56.104 C 230.284 55.831,229.962 55.741,229.863 55.904 M167.500 57.985 C 166.482 58.977,166.640 59.380,167.671 58.420 C 168.150 57.974,168.465 57.540,168.371 57.456 C 168.277 57.372,167.885 57.610,167.500 57.985 M234.400 60.692 C 234.730 60.817,235.132 61.118,235.294 61.360 C 235.475 61.631,235.590 61.532,235.594 61.100 C 235.598 60.630,235.305 60.410,234.700 60.432 C 234.099 60.453,233.999 60.539,234.400 60.692 M236.000 61.921 C 236.000 62.536,236.177 62.707,236.634 62.532 C 236.982 62.398,237.117 62.177,236.934 62.040 C 236.750 61.903,236.465 61.628,236.300 61.429 C 236.135 61.230,236.000 61.451,236.000 61.921 M162.453 62.648 C 162.013 63.145,162.005 63.358,162.412 63.733 C 162.766 64.061,162.841 64.064,162.663 63.745 C 162.354 63.192,163.342 62.288,163.801 62.703 C 163.981 62.867,163.999 62.775,163.841 62.500 C 163.467 61.852,163.126 61.888,162.453 62.648 M237.462 63.383 C 237.292 63.826,237.476 63.998,238.113 63.994 C 238.601 63.991,238.820 63.853,238.600 63.689 C 238.380 63.525,238.087 63.250,237.949 63.078 C 237.812 62.906,237.592 63.043,237.462 63.383 M238.640 64.706 C 238.882 64.868,239.183 65.270,239.308 65.600 C 239.461 66.001,239.547 65.901,239.568 65.300 C 239.590 64.695,239.370 64.402,238.900 64.406 C 238.468 64.410,238.369 64.525,238.640 64.706 M157.893 67.600 C 157.516 68.040,157.346 68.400,157.515 68.400 C 157.684 68.400,158.130 68.040,158.507 67.600 C 158.884 67.160,159.054 66.800,158.885 66.800 C 158.716 66.800,158.270 67.160,157.893 67.600 M243.063 69.104 C 242.965 69.267,243.126 69.623,243.421 69.896 C 243.716 70.169,244.038 70.259,244.137 70.096 C 244.235 69.933,244.074 69.577,243.779 69.304 C 243.484 69.031,243.162 68.941,243.063 69.104 M246.251 72.317 C 246.142 72.495,246.400 72.857,246.826 73.123 C 247.735 73.691,247.845 73.388,247.026 72.568 C 246.710 72.252,246.361 72.139,246.251 72.317 M372.505 73.477 C 372.893 73.578,373.090 73.855,372.943 74.092 C 372.785 74.349,372.864 74.408,373.138 74.238 C 373.907 73.763,373.657 73.197,372.700 73.246 C 372.015 73.282,371.968 73.337,372.505 73.477 M350.400 76.833 C 349.190 77.479,348.141 78.231,348.070 78.504 C 347.983 78.831,348.051 78.857,348.270 78.579 C 348.451 78.348,349.320 77.827,350.200 77.421 C 352.014 76.586,353.572 75.585,352.989 75.630 C 352.775 75.646,351.610 76.188,350.400 76.833 M147.682 77.450 C 147.098 78.076,147.035 79.349,147.607 78.996 C 147.830 78.858,147.922 78.598,147.811 78.418 C 147.700 78.238,147.967 77.997,148.404 77.883 C 148.842 77.769,149.200 77.508,149.200 77.304 C 149.200 76.760,148.241 76.852,147.682 77.450 M250.800 77.237 C 250.800 77.478,251.158 77.769,251.596 77.883 C 252.033 77.997,252.300 78.238,252.189 78.418 C 252.078 78.598,252.170 78.858,252.393 78.996 C 252.983 79.360,252.893 78.029,252.290 77.471 C 251.597 76.829,250.800 76.704,250.800 77.237 M388.000 80.487 C 388.000 80.832,388.296 81.228,388.657 81.367 C 389.586 81.723,389.611 81.518,388.748 80.630 C 388.129 79.993,388.000 79.969,388.000 80.487 M143.700 81.398 C 143.425 81.711,143.203 82.199,143.206 82.483 C 143.210 82.849,143.323 82.825,143.592 82.400 C 143.800 82.070,144.187 81.800,144.452 81.800 C 144.717 81.800,145.008 81.575,145.100 81.300 C 145.326 80.622,144.321 80.693,143.700 81.398 M254.800 81.224 C 254.800 81.457,254.980 81.536,255.200 81.400 C 255.420 81.264,255.600 81.343,255.600 81.576 C 255.600 81.809,255.883 82.000,256.229 82.000 C 256.787 82.000,256.790 81.933,256.257 81.400 C 255.561 80.703,254.800 80.611,254.800 81.224 M333.900 91.585 C 333.087 92.377,333.006 92.800,333.667 92.800 C 333.923 92.800,334.016 92.683,333.873 92.540 C 333.730 92.396,333.924 92.051,334.306 91.772 C 334.687 91.493,334.909 91.184,334.799 91.084 C 334.690 90.985,334.285 91.210,333.900 91.585 M131.661 93.547 C 130.767 94.323,130.479 95.374,131.230 95.123 C 131.466 95.044,131.601 94.868,131.530 94.732 C 131.459 94.596,131.743 94.105,132.162 93.642 C 133.106 92.599,132.817 92.544,131.661 93.547 M331.661 93.547 C 330.767 94.323,330.479 95.374,331.230 95.123 C 331.466 95.044,331.601 94.868,331.530 94.732 C 331.459 94.596,331.743 94.105,332.162 93.642 C 333.106 92.599,332.817 92.544,331.661 93.547 M68.000 93.771 C 68.000 94.117,68.191 94.400,68.424 94.400 C 68.657 94.400,68.736 94.580,68.600 94.800 C 68.464 95.020,68.543 95.200,68.776 95.200 C 69.389 95.200,69.297 94.439,68.600 93.743 C 68.067 93.210,68.000 93.213,68.000 93.771 M268.000 93.771 C 268.000 94.117,268.191 94.400,268.424 94.400 C 268.657 94.400,268.736 94.580,268.600 94.800 C 268.464 95.020,268.543 95.200,268.776 95.200 C 269.389 95.200,269.297 94.439,268.600 93.743 C 268.067 93.210,268.000 93.213,268.000 93.771 M78.400 104.600 C 78.674 104.930,79.078 105.200,79.298 105.200 C 79.521 105.200,79.478 104.935,79.200 104.600 C 78.926 104.270,78.522 104.000,78.302 104.000 C 78.079 104.000,78.122 104.265,78.400 104.600 M278.400 104.600 C 278.674 104.930,279.078 105.200,279.298 105.200 C 279.521 105.200,279.478 104.935,279.200 104.600 C 278.926 104.270,278.522 104.000,278.302 104.000 C 278.079 104.000,278.122 104.265,278.400 104.600 M117.500 107.985 C 116.482 108.977,116.640 109.380,117.671 108.420 C 118.150 107.974,118.465 107.540,118.371 107.456 C 118.277 107.372,117.885 107.610,117.500 107.985 M317.500 107.985 C 316.482 108.977,316.640 109.380,317.671 108.420 C 318.150 107.974,318.465 107.540,318.371 107.456 C 318.277 107.372,317.885 107.610,317.500 107.985 M84.400 110.692 C 84.730 110.817,85.132 111.118,85.294 111.360 C 85.475 111.631,85.590 111.532,85.594 111.100 C 85.598 110.630,85.305 110.410,84.700 110.432 C 84.099 110.453,83.999 110.539,84.400 110.692 M284.400 110.692 C 284.730 110.817,285.132 111.118,285.294 111.360 C 285.475 111.631,285.590 111.532,285.594 111.100 C 285.598 110.630,285.305 110.410,284.700 110.432 C 284.099 110.453,283.999 110.539,284.400 110.692 M86.000 111.921 C 86.000 112.536,86.177 112.707,86.634 112.532 C 86.982 112.398,87.117 112.177,86.934 112.040 C 86.750 111.903,86.465 111.628,86.300 111.429 C 86.135 111.230,86.000 111.451,86.000 111.921 M286.000 111.921 C 286.000 112.536,286.177 112.707,286.634 112.532 C 286.982 112.398,287.117 112.177,286.934 112.040 C 286.750 111.903,286.465 111.628,286.300 111.429 C 286.135 111.230,286.000 111.451,286.000 111.921 M112.453 112.648 C 112.013 113.145,112.005 113.358,112.412 113.733 C 112.766 114.061,112.841 114.064,112.663 113.745 C 112.354 113.192,113.342 112.288,113.801 112.703 C 113.981 112.867,113.999 112.775,113.841 112.500 C 113.467 111.852,113.126 111.888,112.453 112.648 M312.453 112.648 C 312.013 113.145,312.005 113.358,312.412 113.733 C 312.766 114.061,312.841 114.064,312.663 113.745 C 312.354 113.192,313.342 112.288,313.801 112.703 C 313.981 112.867,313.999 112.775,313.841 112.500 C 313.467 111.852,313.126 111.888,312.453 112.648 M87.462 113.383 C 87.292 113.826,87.476 113.998,88.113 113.994 C 88.601 113.991,88.820 113.853,88.600 113.689 C 88.380 113.525,88.087 113.250,87.949 113.078 C 87.812 112.906,87.592 113.043,87.462 113.383 M287.462 113.383 C 287.292 113.826,287.476 113.998,288.113 113.994 C 288.601 113.991,288.820 113.853,288.600 113.689 C 288.380 113.525,288.087 113.250,287.949 113.078 C 287.812 112.906,287.592 113.043,287.462 113.383 M88.640 114.706 C 88.882 114.868,89.183 115.270,89.308 115.600 C 89.461 116.001,89.547 115.901,89.568 115.300 C 89.590 114.695,89.370 114.402,88.900 114.406 C 88.468 114.410,88.369 114.525,88.640 114.706 M288.640 114.706 C 288.882 114.868,289.183 115.270,289.308 115.600 C 289.461 116.001,289.547 115.901,289.568 115.300 C 289.590 114.695,289.370 114.402,288.900 114.406 C 288.468 114.410,288.369 114.525,288.640 114.706 M107.893 117.600 C 107.516 118.040,107.346 118.400,107.515 118.400 C 107.684 118.400,108.130 118.040,108.507 117.600 C 108.884 117.160,109.054 116.800,108.885 116.800 C 108.716 116.800,108.270 117.160,107.893 117.600 M307.893 117.600 C 307.516 118.040,307.346 118.400,307.515 118.400 C 307.684 118.400,308.130 118.040,308.507 117.600 C 308.884 117.160,309.054 116.800,308.885 116.800 C 308.716 116.800,308.270 117.160,307.893 117.600 M93.063 119.104 C 92.965 119.267,93.126 119.623,93.421 119.896 C 93.716 120.169,94.038 120.259,94.137 120.096 C 94.235 119.933,94.074 119.577,93.779 119.304 C 93.484 119.031,93.162 118.941,93.063 119.104 M293.063 119.104 C 292.965 119.267,293.126 119.623,293.421 119.896 C 293.716 120.169,294.038 120.259,294.137 120.096 C 294.235 119.933,294.074 119.577,293.779 119.304 C 293.484 119.031,293.162 118.941,293.063 119.104 M96.263 122.304 C 96.165 122.467,96.326 122.823,96.621 123.096 C 96.916 123.369,97.238 123.459,97.337 123.296 C 97.435 123.133,97.274 122.777,96.979 122.504 C 96.684 122.231,96.362 122.141,96.263 122.304 M296.263 122.304 C 296.165 122.467,296.326 122.823,296.621 123.096 C 296.916 123.369,297.238 123.459,297.337 123.296 C 297.435 123.133,297.274 122.777,296.979 122.504 C 296.684 122.231,296.362 122.141,296.263 122.304 M1.290 302.219 C 1.245 302.759,1.357 303.200,1.538 303.200 C 1.718 303.200,1.840 302.844,1.808 302.408 C 1.721 301.223,1.383 301.099,1.290 302.219 M393.094 316.239 C 392.734 316.600,393.230 317.629,393.642 317.374 C 393.839 317.252,394.000 316.893,394.000 316.576 C 394.000 315.987,393.523 315.810,393.094 316.239 M9.206 323.100 C 9.224 323.977,9.988 324.559,9.994 323.700 C 9.997 323.205,9.820 322.800,9.600 322.800 C 9.380 322.800,9.203 322.935,9.206 323.100 M12.533 328.971 C 12.785 329.505,13.055 329.878,13.132 329.801 C 13.381 329.553,12.758 328.000,12.411 328.000 C 12.226 328.000,12.281 328.437,12.533 328.971 M386.917 329.100 C 386.885 329.705,386.960 329.930,387.083 329.600 C 387.207 329.270,387.485 328.775,387.703 328.500 C 387.980 328.150,387.930 328.000,387.536 328.000 C 387.204 328.000,386.951 328.450,386.917 329.100 M13.614 329.654 C 13.606 329.794,13.863 330.514,14.184 331.254 C 14.506 331.994,14.769 332.330,14.770 332.000 C 14.772 331.424,13.643 329.134,13.614 329.654 M368.245 349.428 C 368.113 349.770,367.824 349.939,367.603 349.802 C 367.381 349.665,367.200 349.743,367.200 349.976 C 367.200 350.542,367.646 350.492,368.524 349.826 C 368.922 349.524,369.076 349.171,368.866 349.041 C 368.656 348.911,368.376 349.085,368.245 349.428 M34.203 351.595 C 34.061 351.824,34.227 351.888,34.596 351.746 C 34.990 351.595,35.188 351.692,35.116 352.001 C 35.052 352.275,35.225 352.582,35.500 352.683 C 35.775 352.784,36.000 352.601,36.000 352.276 C 36.000 351.951,35.715 351.576,35.367 351.443 C 34.538 351.125,34.490 351.131,34.203 351.595 M362.700 353.076 C 362.315 353.176,362.000 353.409,362.000 353.592 C 362.000 353.775,362.360 353.831,362.800 353.716 C 363.240 353.601,363.600 353.348,363.600 353.153 C 363.600 352.959,363.555 352.821,363.500 352.846 C 363.445 352.872,363.085 352.975,362.700 353.076 M356.188 356.780 C 356.314 356.984,356.098 357.336,355.708 357.563 C 355.319 357.790,355.180 357.975,355.400 357.975 C 356.313 357.974,357.268 356.912,356.591 356.652 C 356.243 356.518,356.062 356.576,356.188 356.780 M345.600 361.624 C 345.600 361.857,345.450 361.955,345.267 361.841 C 345.083 361.728,344.933 361.903,344.933 362.231 C 344.933 362.641,345.062 362.698,345.347 362.413 C 345.574 362.186,346.095 362.000,346.504 362.000 C 346.913 362.000,347.136 361.820,347.000 361.600 C 346.671 361.068,345.600 361.086,345.600 361.624 M342.302 362.666 C 342.579 362.777,342.679 363.078,342.526 363.334 C 342.372 363.590,342.596 363.536,343.023 363.213 C 343.450 362.890,343.875 362.575,343.967 362.513 C 344.058 362.451,343.608 362.414,342.967 362.432 C 342.325 362.449,342.026 362.554,342.302 362.666 M332.850 365.340 C 332.551 365.700,332.649 365.849,333.213 365.891 C 334.161 365.962,334.606 365.365,333.827 365.066 C 333.514 364.946,333.075 365.069,332.850 365.340 " stroke="none" fill="#403c44" fill-rule="evenodd"></path><path id="path4" d="M188.600 41.600 C 188.464 41.820,188.734 42.000,189.200 42.000 C 189.666 42.000,189.936 41.820,189.800 41.600 C 189.664 41.380,189.394 41.200,189.200 41.200 C 189.006 41.200,188.736 41.380,188.600 41.600 M186.000 42.400 C 185.515 42.714,185.572 42.789,186.300 42.794 C 186.795 42.797,187.200 42.620,187.200 42.400 C 187.200 41.899,186.776 41.899,186.000 42.400 M217.200 44.322 C 217.200 44.514,217.661 44.882,218.225 45.139 C 218.811 45.406,219.145 45.434,219.003 45.205 C 218.640 44.618,217.200 43.912,217.200 44.322 M179.544 46.379 C 178.622 47.141,178.620 47.153,179.472 46.940 C 179.952 46.820,180.441 46.469,180.560 46.161 C 180.846 45.414,180.667 45.453,179.544 46.379 M226.663 52.704 C 226.565 52.867,226.726 53.223,227.021 53.496 C 227.316 53.769,227.638 53.859,227.737 53.696 C 227.835 53.533,227.674 53.177,227.379 52.904 C 227.084 52.631,226.762 52.541,226.663 52.704 M229.863 55.904 C 229.765 56.067,229.926 56.423,230.221 56.696 C 230.516 56.969,230.838 57.059,230.937 56.896 C 231.035 56.733,230.874 56.377,230.579 56.104 C 230.284 55.831,229.962 55.741,229.863 55.904 M167.500 57.985 C 166.482 58.977,166.640 59.380,167.671 58.420 C 168.150 57.974,168.465 57.540,168.371 57.456 C 168.277 57.372,167.885 57.610,167.500 57.985 M234.400 60.692 C 234.730 60.817,235.132 61.118,235.294 61.360 C 235.475 61.631,235.590 61.532,235.594 61.100 C 235.598 60.630,235.305 60.410,234.700 60.432 C 234.099 60.453,233.999 60.539,234.400 60.692 M236.000 61.921 C 236.000 62.536,236.177 62.707,236.634 62.532 C 236.982 62.398,237.117 62.177,236.934 62.040 C 236.750 61.903,236.465 61.628,236.300 61.429 C 236.135 61.230,236.000 61.451,236.000 61.921 M162.453 62.648 C 162.013 63.145,162.005 63.358,162.412 63.733 C 162.766 64.061,162.841 64.064,162.663 63.745 C 162.354 63.192,163.342 62.288,163.801 62.703 C 163.981 62.867,163.999 62.775,163.841 62.500 C 163.467 61.852,163.126 61.888,162.453 62.648 M237.462 63.383 C 237.292 63.826,237.476 63.998,238.113 63.994 C 238.601 63.991,238.820 63.853,238.600 63.689 C 238.380 63.525,238.087 63.250,237.949 63.078 C 237.812 62.906,237.592 63.043,237.462 63.383 M238.640 64.706 C 238.882 64.868,239.183 65.270,239.308 65.600 C 239.461 66.001,239.547 65.901,239.568 65.300 C 239.590 64.695,239.370 64.402,238.900 64.406 C 238.468 64.410,238.369 64.525,238.640 64.706 M157.893 67.600 C 157.516 68.040,157.346 68.400,157.515 68.400 C 157.684 68.400,158.130 68.040,158.507 67.600 C 158.884 67.160,159.054 66.800,158.885 66.800 C 158.716 66.800,158.270 67.160,157.893 67.600 M243.063 69.104 C 242.965 69.267,243.126 69.623,243.421 69.896 C 243.716 70.169,244.038 70.259,244.137 70.096 C 244.235 69.933,244.074 69.577,243.779 69.304 C 243.484 69.031,243.162 68.941,243.063 69.104 M246.251 72.317 C 246.142 72.495,246.400 72.857,246.826 73.123 C 247.735 73.691,247.845 73.388,247.026 72.568 C 246.710 72.252,246.361 72.139,246.251 72.317 M372.505 73.477 C 372.893 73.578,373.090 73.855,372.943 74.092 C 372.785 74.349,372.864 74.408,373.138 74.238 C 373.907 73.763,373.657 73.197,372.700 73.246 C 372.015 73.282,371.968 73.337,372.505 73.477 M350.400 76.833 C 349.190 77.479,348.141 78.231,348.070 78.504 C 347.983 78.831,348.051 78.857,348.270 78.579 C 348.451 78.348,349.320 77.827,350.200 77.421 C 352.014 76.586,353.572 75.585,352.989 75.630 C 352.775 75.646,351.610 76.188,350.400 76.833 M147.682 77.450 C 147.098 78.076,147.035 79.349,147.607 78.996 C 147.830 78.858,147.922 78.598,147.811 78.418 C 147.700 78.238,147.967 77.997,148.404 77.883 C 148.842 77.769,149.200 77.508,149.200 77.304 C 149.200 76.760,148.241 76.852,147.682 77.450 M250.800 77.237 C 250.800 77.478,251.158 77.769,251.596 77.883 C 252.033 77.997,252.300 78.238,252.189 78.418 C 252.078 78.598,252.170 78.858,252.393 78.996 C 252.983 79.360,252.893 78.029,252.290 77.471 C 251.597 76.829,250.800 76.704,250.800 77.237 M388.000 80.487 C 388.000 80.832,388.296 81.228,388.657 81.367 C 389.586 81.723,389.611 81.518,388.748 80.630 C 388.129 79.993,388.000 79.969,388.000 80.487 M143.700 81.398 C 143.425 81.711,143.203 82.199,143.206 82.483 C 143.210 82.849,143.323 82.825,143.592 82.400 C 143.800 82.070,144.187 81.800,144.452 81.800 C 144.717 81.800,145.008 81.575,145.100 81.300 C 145.326 80.622,144.321 80.693,143.700 81.398 M254.800 81.224 C 254.800 81.457,254.980 81.536,255.200 81.400 C 255.420 81.264,255.600 81.343,255.600 81.576 C 255.600 81.809,255.883 82.000,256.229 82.000 C 256.787 82.000,256.790 81.933,256.257 81.400 C 255.561 80.703,254.800 80.611,254.800 81.224 M333.900 91.585 C 333.087 92.377,333.006 92.800,333.667 92.800 C 333.923 92.800,334.016 92.683,333.873 92.540 C 333.730 92.396,333.924 92.051,334.306 91.772 C 334.687 91.493,334.909 91.184,334.799 91.084 C 334.690 90.985,334.285 91.210,333.900 91.585 M131.661 93.547 C 130.767 94.323,130.479 95.374,131.230 95.123 C 131.466 95.044,131.601 94.868,131.530 94.732 C 131.459 94.596,131.743 94.105,132.162 93.642 C 133.106 92.599,132.817 92.544,131.661 93.547 M331.661 93.547 C 330.767 94.323,330.479 95.374,331.230 95.123 C 331.466 95.044,331.601 94.868,331.530 94.732 C 331.459 94.596,331.743 94.105,332.162 93.642 C 333.106 92.599,332.817 92.544,331.661 93.547 M68.000 93.771 C 68.000 94.117,68.191 94.400,68.424 94.400 C 68.657 94.400,68.736 94.580,68.600 94.800 C 68.464 95.020,68.543 95.200,68.776 95.200 C 69.389 95.200,69.297 94.439,68.600 93.743 C 68.067 93.210,68.000 93.213,68.000 93.771 M268.000 93.771 C 268.000 94.117,268.191 94.400,268.424 94.400 C 268.657 94.400,268.736 94.580,268.600 94.800 C 268.464 95.020,268.543 95.200,268.776 95.200 C 269.389 95.200,269.297 94.439,268.600 93.743 C 268.067 93.210,268.000 93.213,268.000 93.771 M78.400 104.600 C 78.674 104.930,79.078 105.200,79.298 105.200 C 79.521 105.200,79.478 104.935,79.200 104.600 C 78.926 104.270,78.522 104.000,78.302 104.000 C 78.079 104.000,78.122 104.265,78.400 104.600 M278.400 104.600 C 278.674 104.930,279.078 105.200,279.298 105.200 C 279.521 105.200,279.478 104.935,279.200 104.600 C 278.926 104.270,278.522 104.000,278.302 104.000 C 278.079 104.000,278.122 104.265,278.400 104.600 M117.500 107.985 C 116.482 108.977,116.640 109.380,117.671 108.420 C 118.150 107.974,118.465 107.540,118.371 107.456 C 118.277 107.372,117.885 107.610,117.500 107.985 M317.500 107.985 C 316.482 108.977,316.640 109.380,317.671 108.420 C 318.150 107.974,318.465 107.540,318.371 107.456 C 318.277 107.372,317.885 107.610,317.500 107.985 M84.400 110.692 C 84.730 110.817,85.132 111.118,85.294 111.360 C 85.475 111.631,85.590 111.532,85.594 111.100 C 85.598 110.630,85.305 110.410,84.700 110.432 C 84.099 110.453,83.999 110.539,84.400 110.692 M284.400 110.692 C 284.730 110.817,285.132 111.118,285.294 111.360 C 285.475 111.631,285.590 111.532,285.594 111.100 C 285.598 110.630,285.305 110.410,284.700 110.432 C 284.099 110.453,283.999 110.539,284.400 110.692 M86.000 111.921 C 86.000 112.536,86.177 112.707,86.634 112.532 C 86.982 112.398,87.117 112.177,86.934 112.040 C 86.750 111.903,86.465 111.628,86.300 111.429 C 86.135 111.230,86.000 111.451,86.000 111.921 M286.000 111.921 C 286.000 112.536,286.177 112.707,286.634 112.532 C 286.982 112.398,287.117 112.177,286.934 112.040 C 286.750 111.903,286.465 111.628,286.300 111.429 C 286.135 111.230,286.000 111.451,286.000 111.921 M112.453 112.648 C 112.013 113.145,112.005 113.358,112.412 113.733 C 112.766 114.061,112.841 114.064,112.663 113.745 C 112.354 113.192,113.342 112.288,113.801 112.703 C 113.981 112.867,113.999 112.775,113.841 112.500 C 113.467 111.852,113.126 111.888,112.453 112.648 M312.453 112.648 C 312.013 113.145,312.005 113.358,312.412 113.733 C 312.766 114.061,312.841 114.064,312.663 113.745 C 312.354 113.192,313.342 112.288,313.801 112.703 C 313.981 112.867,313.999 112.775,313.841 112.500 C 313.467 111.852,313.126 111.888,312.453 112.648 M87.462 113.383 C 87.292 113.826,87.476 113.998,88.113 113.994 C 88.601 113.991,88.820 113.853,88.600 113.689 C 88.380 113.525,88.087 113.250,87.949 113.078 C 87.812 112.906,87.592 113.043,87.462 113.383 M287.462 113.383 C 287.292 113.826,287.476 113.998,288.113 113.994 C 288.601 113.991,288.820 113.853,288.600 113.689 C 288.380 113.525,288.087 113.250,287.949 113.078 C 287.812 112.906,287.592 113.043,287.462 113.383 M88.640 114.706 C 88.882 114.868,89.183 115.270,89.308 115.600 C 89.461 116.001,89.547 115.901,89.568 115.300 C 89.590 114.695,89.370 114.402,88.900 114.406 C 88.468 114.410,88.369 114.525,88.640 114.706 M288.640 114.706 C 288.882 114.868,289.183 115.270,289.308 115.600 C 289.461 116.001,289.547 115.901,289.568 115.300 C 289.590 114.695,289.370 114.402,288.900 114.406 C 288.468 114.410,288.369 114.525,288.640 114.706 M107.893 117.600 C 107.516 118.040,107.346 118.400,107.515 118.400 C 107.684 118.400,108.130 118.040,108.507 117.600 C 108.884 117.160,109.054 116.800,108.885 116.800 C 108.716 116.800,108.270 117.160,107.893 117.600 M307.893 117.600 C 307.516 118.040,307.346 118.400,307.515 118.400 C 307.684 118.400,308.130 118.040,308.507 117.600 C 308.884 117.160,309.054 116.800,308.885 116.800 C 308.716 116.800,308.270 117.160,307.893 117.600 M93.063 119.104 C 92.965 119.267,93.126 119.623,93.421 119.896 C 93.716 120.169,94.038 120.259,94.137 120.096 C 94.235 119.933,94.074 119.577,93.779 119.304 C 93.484 119.031,93.162 118.941,93.063 119.104 M293.063 119.104 C 292.965 119.267,293.126 119.623,293.421 119.896 C 293.716 120.169,294.038 120.259,294.137 120.096 C 294.235 119.933,294.074 119.577,293.779 119.304 C 293.484 119.031,293.162 118.941,293.063 119.104 M96.263 122.304 C 96.165 122.467,96.326 122.823,96.621 123.096 C 96.916 123.369,97.238 123.459,97.337 123.296 C 97.435 123.133,97.274 122.777,96.979 122.504 C 96.684 122.231,96.362 122.141,96.263 122.304 M296.263 122.304 C 296.165 122.467,296.326 122.823,296.621 123.096 C 296.916 123.369,297.238 123.459,297.337 123.296 C 297.435 123.133,297.274 122.777,296.979 122.504 C 296.684 122.231,296.362 122.141,296.263 122.304 M1.290 302.219 C 1.245 302.759,1.357 303.200,1.538 303.200 C 1.718 303.200,1.840 302.844,1.808 302.408 C 1.721 301.223,1.383 301.099,1.290 302.219 M393.094 316.239 C 392.734 316.600,393.230 317.629,393.642 317.374 C 393.839 317.252,394.000 316.893,394.000 316.576 C 394.000 315.987,393.523 315.810,393.094 316.239 M9.206 323.100 C 9.224 323.977,9.988 324.559,9.994 323.700 C 9.997 323.205,9.820 322.800,9.600 322.800 C 9.380 322.800,9.203 322.935,9.206 323.100 M12.533 328.971 C 12.785 329.505,13.055 329.878,13.132 329.801 C 13.381 329.553,12.758 328.000,12.411 328.000 C 12.226 328.000,12.281 328.437,12.533 328.971 M386.917 329.100 C 386.885 329.705,386.960 329.930,387.083 329.600 C 387.207 329.270,387.485 328.775,387.703 328.500 C 387.980 328.150,387.930 328.000,387.536 328.000 C 387.204 328.000,386.951 328.450,386.917 329.100 M13.614 329.654 C 13.606 329.794,13.863 330.514,14.184 331.254 C 14.506 331.994,14.769 332.330,14.770 332.000 C 14.772 331.424,13.643 329.134,13.614 329.654 M368.245 349.428 C 368.113 349.770,367.824 349.939,367.603 349.802 C 367.381 349.665,367.200 349.743,367.200 349.976 C 367.200 350.542,367.646 350.492,368.524 349.826 C 368.922 349.524,369.076 349.171,368.866 349.041 C 368.656 348.911,368.376 349.085,368.245 349.428 M34.203 351.595 C 34.061 351.824,34.227 351.888,34.596 351.746 C 34.990 351.595,35.188 351.692,35.116 352.001 C 35.052 352.275,35.225 352.582,35.500 352.683 C 35.775 352.784,36.000 352.601,36.000 352.276 C 36.000 351.951,35.715 351.576,35.367 351.443 C 34.538 351.125,34.490 351.131,34.203 351.595 M362.700 353.076 C 362.315 353.176,362.000 353.409,362.000 353.592 C 362.000 353.775,362.360 353.831,362.800 353.716 C 363.240 353.601,363.600 353.348,363.600 353.153 C 363.600 352.959,363.555 352.821,363.500 352.846 C 363.445 352.872,363.085 352.975,362.700 353.076 M356.188 356.780 C 356.314 356.984,356.098 357.336,355.708 357.563 C 355.319 357.790,355.180 357.975,355.400 357.975 C 356.313 357.974,357.268 356.912,356.591 356.652 C 356.243 356.518,356.062 356.576,356.188 356.780 M345.600 361.624 C 345.600 361.857,345.450 361.955,345.267 361.841 C 345.083 361.728,344.933 361.903,344.933 362.231 C 344.933 362.641,345.062 362.698,345.347 362.413 C 345.574 362.186,346.095 362.000,346.504 362.000 C 346.913 362.000,347.136 361.820,347.000 361.600 C 346.671 361.068,345.600 361.086,345.600 361.624 M342.302 362.666 C 342.579 362.777,342.679 363.078,342.526 363.334 C 342.372 363.590,342.596 363.536,343.023 363.213 C 343.450 362.890,343.875 362.575,343.967 362.513 C 344.058 362.451,343.608 362.414,342.967 362.432 C 342.325 362.449,342.026 362.554,342.302 362.666 M332.850 365.340 C 332.551 365.700,332.649 365.849,333.213 365.891 C 334.161 365.962,334.606 365.365,333.827 365.066 C 333.514 364.946,333.075 365.069,332.850 365.340 " stroke="none" fill="#403c44" fill-rule="evenodd"></path></g></svg>