<?xml version="1.0" encoding="UTF-8"?>
<svg version="1.1" xmlns="http://www.w3.org/2000/svg" width="512" height="512">
<path d="M0 0 C11.28155216 9.66908022 21.6069145 20.47342881 32.08788133 30.98648739 C34.51766466 33.4226143 36.9503691 35.85582104 39.38273621 38.28936768 C43.9671499 42.87686279 48.5490135 47.46689577 53.12991589 52.05789685 C58.35422076 57.29346319 63.58143911 62.52611668 68.80887759 67.75855398 C79.54244638 78.50251475 90.27243738 89.25004195 101 100 C104.76357972 98.24195089 107.13945594 96.08465305 110.06884766 93.1105957 C110.80640793 92.36624519 110.80640793 92.36624519 111.55886841 91.6068573 C112.62393551 90.53085228 113.68671668 89.45258077 114.7474556 88.37230873 C116.43405157 86.65543332 118.12733633 84.9454198 119.82260132 83.23710632 C124.6408566 78.37921865 129.44648127 73.50890796 134.24853516 68.63500977 C137.19037067 65.65010748 140.13976194 62.67283274 143.0935173 59.69972801 C144.21026771 58.57250423 145.32410158 57.44238234 146.43477249 56.30916786 C158.26574825 44.23864891 169.42021762 34.71940729 187 34.5 C199.19064783 34.63968844 209.32918144 38.60218647 218.1953125 47.10546875 C222.4338119 51.64895242 225.73404512 56.20050161 228 62 C228.34075876 62.82351833 228.68151752 63.64703667 229.03260231 64.4955101 C230.30158916 69.09253534 230.28301648 73.34451383 230.26742554 78.09136963 C230.27195665 79.10468408 230.27648776 80.11799854 230.28115618 81.16201949 C230.29381237 84.55630159 230.29217896 87.95042348 230.29052734 91.34472656 C230.29651215 93.77943122 230.30331759 96.21413397 230.31088257 98.64883423 C230.32672557 104.57768268 230.33299167 110.50649362 230.33410732 116.43535891 C230.33505926 121.26153559 230.33917683 126.08769922 230.34550858 130.91387177 C230.36312404 144.62162968 230.37234798 158.32935631 230.37084763 172.03712562 C230.37072776 173.1450668 230.37072776 173.1450668 230.37060547 174.27539062 C230.37052371 175.01492972 230.37044195 175.75446882 230.37035771 176.51641819 C230.36954665 188.47347139 230.38863799 200.43039806 230.4168822 212.38741472 C230.44570871 224.68901555 230.45941688 236.99055491 230.45769465 249.29219031 C230.45703369 256.18860447 230.46239487 263.0848863 230.48405075 269.98126984 C230.50432382 276.47872993 230.5034896 282.97598406 230.48901749 289.47346115 C230.48694004 291.84604425 230.49156602 294.21864518 230.5037384 296.59119797 C230.6465595 326.38177118 223.53537355 353.5438007 203 376 C202.24203125 376.83917969 201.4840625 377.67835938 200.703125 378.54296875 C181.82806354 398.43580313 155.3331523 410.07664974 127.98532581 411.11439538 C119.65488391 411.29727314 111.3230236 411.28633782 102.9910388 411.27610838 C99.18721166 411.27361981 95.38340808 411.28268154 91.57958984 411.29014587 C84.14566525 411.30283652 76.71177687 411.30469361 69.27784327 411.30234561 C63.22906582 411.30055584 57.18029928 411.30232615 51.13152313 411.30657005 C50.26757779 411.30716524 49.40363244 411.30776043 48.51350693 411.30837366 C46.75786084 411.30958553 45.00221474 411.31079966 43.24656865 411.31201603 C26.81504863 411.32287001 10.38354917 411.32073934 -6.04797199 411.31463119 C-21.04301649 411.30946477 -36.03799598 411.32071403 -51.03302762 411.33972941 C-66.47069978 411.35915434 -81.90834126 411.36735561 -97.34602571 411.36360615 C-105.99673494 411.36170105 -114.64738888 411.36411381 -123.29808807 411.37832069 C-130.66325012 411.39029506 -138.02832282 411.39157213 -145.39348623 411.37953053 C-149.1427457 411.3736838 -152.89184224 411.37242399 -156.64109039 411.38453293 C-194.03078183 411.49688672 -224.95275669 405.20467823 -252.6875 378.75 C-271.18431041 359.55418222 -282.3563766 334.06135182 -282.26742554 307.26025391 C-282.27195665 306.23772837 -282.27648776 305.21520283 -282.28115618 304.16169167 C-282.29372423 300.76660147 -282.29218476 297.37167325 -282.29052734 293.9765625 C-282.29651716 291.52976274 -282.30332375 289.08296485 -282.31088257 286.63616943 C-282.32667296 280.69899203 -282.33298867 274.76185204 -282.33410732 268.82465792 C-282.33506087 263.99615703 -282.33918635 259.16766914 -282.34550858 254.33917236 C-282.36309729 240.62549559 -282.37235062 226.91184998 -282.37084763 213.19816184 C-282.37076772 212.46052234 -282.3706878 211.72288284 -282.37060547 210.96289062 C-282.37052371 210.22434286 -282.37044195 209.4857951 -282.37035771 208.72486711 C-282.36954444 196.75047012 -282.38869842 184.7761988 -282.4168822 172.80183816 C-282.44564603 160.48316268 -282.45942072 148.16454844 -282.45769465 135.84583855 C-282.45703218 128.93910274 -282.4624621 122.03249888 -282.48405075 115.12579346 C-282.50422167 108.63157181 -282.5035533 102.13755656 -282.48901749 95.64331818 C-282.48692934 93.26456546 -282.49163053 90.88579527 -282.5037384 88.50707245 C-282.5192349 85.25097215 -282.50985301 81.99582667 -282.49447632 78.73974609 C-282.50990701 77.33995734 -282.50990701 77.33995734 -282.52564943 75.91189003 C-282.39857842 63.67165409 -277.43089692 54.75789168 -269.15625 46.0625 C-259.42820645 36.81288482 -248.35676827 34.48902621 -235.3984375 34.73046875 C-218.21162765 35.47948601 -206.68499124 47.85928417 -195.33203125 59.375 C-194.16014266 60.55249929 -192.98757849 61.72932656 -191.81437683 62.90551758 C-188.7614822 65.96974507 -185.71771415 69.04287784 -182.67590332 72.11810303 C-179.55708728 75.26787227 -176.42952316 78.40892999 -173.30273438 81.55078125 C-167.19333844 87.69213674 -161.09357814 93.84294959 -155 100 C-151.70127883 98.55923372 -149.53405405 96.77764941 -147.00421143 94.23126221 C-146.21934357 93.44625336 -145.43447571 92.66124451 -144.62582397 91.85244751 C-143.77380402 90.99009491 -142.92178406 90.12774231 -142.04394531 89.23925781 C-140.65534945 87.84617867 -139.2667533 86.4530998 -137.87814665 85.06003141 C-136.38792298 83.56306989 -134.90021209 82.06365141 -133.41318512 80.56351471 C-130.30771256 77.43095168 -127.19458574 74.30607134 -124.08026123 71.18231201 C-116.9031829 63.9811546 -109.73610453 56.77007113 -102.56919861 49.55879211 C-96.00999023 42.95914891 -89.44864761 36.36166571 -82.8791244 29.77228808 C-79.78921852 26.67246555 -76.70424543 23.56784334 -73.62305498 20.45935869 C-72.16259687 18.98751469 -70.69981786 17.51802455 -69.23599243 16.04953003 C-67.45890129 14.26674541 -65.68536757 12.48040388 -63.91629028 10.68966675 C-46.23131469 -6.99844071 -22.5792272 -15.86963631 0 0 Z " fill="#EFD500" transform="translate(282,59)"/>
</svg>
