<?xml version="1.0" standalone="no"?>
<!DOCTYPE svg PUBLIC "-//W3C//DTD SVG 20010904//EN"
 "http://www.w3.org/TR/2001/REC-SVG-20010904/DTD/svg10.dtd">
<svg version="1.0" xmlns="http://www.w3.org/2000/svg"
 width="512.000000pt" height="512.000000pt" viewBox="0 0 512.000000 512.000000"
 preserveAspectRatio="xMidYMid meet">

<g transform="translate(0.000000,512.000000) scale(0.100000,-0.100000)"
fill="#000000" stroke="none">
<path d="M2430 4581 c-30 -9 -69 -26 -85 -36 -17 -10 -262 -249 -545 -531
l-515 -514 -303 300 c-331 328 -358 348 -493 370 -218 37 -437 -119 -479 -340
-6 -33 -10 -479 -10 -1224 0 -979 3 -1187 15 -1269 65 -434 389 -782 821 -883
75 -18 157 -19 1729 -19 l1650 0 90 24 c200 52 354 139 496 281 125 124 208
257 264 425 54 161 55 172 55 1441 0 743 -4 1191 -10 1225 -41 220 -265 378
-481 340 -130 -23 -148 -36 -480 -367 l-305 -305 -500 499 c-274 274 -519 513
-543 530 -94 68 -254 91 -371 53z"/>
</g>
</svg>
