<?xml version="1.0" encoding="UTF-8"?>
<svg version="1.1" xmlns="http://www.w3.org/2000/svg" width="512" height="512">
<path d="M0 0 C2.3409061 -0.00543076 4.68180878 -0.01255874 7.02270508 -0.02124023 C13.33676656 -0.03936287 19.65056447 -0.03245188 25.96463013 -0.01972389 C31.92400104 -0.01057379 37.88334873 -0.01758691 43.84271908 -0.02343267 C56.36462298 -0.03479909 68.88640914 -0.02178698 81.40829372 -0.00023121 C92.11860886 0.01763622 102.82875049 0.01453099 113.5390625 -0.00390625 C126.0206207 -0.02538299 138.5020761 -0.03370082 150.98365021 -0.0214572 C157.57466463 -0.01516561 164.1655828 -0.0143169 170.7565918 -0.02760315 C176.95547272 -0.03922795 183.15402864 -0.03101529 189.35287476 -0.00802612 C191.61664289 -0.00277432 193.88043877 -0.00419162 196.14419556 -0.01307678 C223.14429546 -0.10921403 245.70777188 6.46282589 265.71875 25.26757812 C281.30333458 41.64546668 288.90665781 62.68883182 288.79393005 85.1149292 C288.80200836 87.07370369 288.80200836 87.07370369 288.81024987 89.07204938 C288.8245794 92.65843436 288.82049939 96.2445871 288.81308305 99.83098412 C288.8083223 103.71389233 288.82088685 107.59675238 288.83110046 111.47964478 C288.84823814 119.07227244 288.84913884 126.66481716 288.84388756 134.25745913 C288.83983464 140.43407113 288.8413027 146.61065875 288.84663582 152.78726959 C288.84738424 153.66871553 288.84813266 154.55016147 288.84890376 155.45831789 C288.85043536 157.24940052 288.85197371 159.04048315 288.85351873 160.83156577 C288.86722598 177.60352742 288.86181895 194.37544234 288.85033352 211.14740291 C288.84040656 226.46080605 288.85333568 241.77408827 288.87726771 257.08747277 C288.90170468 272.84374187 288.91125508 288.59995476 288.90461498 304.35624242 C288.90113251 313.18913747 288.90329016 322.02193962 288.92086601 330.85482025 C288.93564579 338.37528706 288.93614865 345.89559557 288.9187951 353.41605946 C288.91032929 357.24610893 288.90802584 361.07587633 288.92344666 364.90591049 C289.0428724 396.82256579 283.5657984 423.00947465 260.40625 446.51757812 C248.60934555 458.33420984 231.19158424 470.39118485 213.84375 470.83007812 C203.31695007 470.67658894 196.03011847 467.17654406 188.50390625 459.87695312 C182.29726993 452.89593201 180.00303808 444.2548452 180.53125 435.01757812 C181.6649728 425.78031391 185.62262432 418.84153307 192.40625 412.51757812 C195.82161219 409.87675812 199.46903219 407.95716909 203.37109375 406.12695312 C212.80699922 401.6947602 217.43844216 397.43633341 221.64453125 387.92382812 C223.61873437 381.6873711 223.5477658 375.29873443 223.52650452 368.83021545 C223.52735894 367.87276678 223.52821337 366.91531811 223.52909368 365.92885584 C223.53073671 362.73062751 223.52524641 359.53245199 223.51977539 356.33422852 C223.51949324 354.0376587 223.5196518 351.7410888 223.5202179 349.44451904 C223.52050478 343.21578546 223.51462563 336.98707114 223.50764394 330.75834203 C223.50139228 324.24672751 223.50080516 317.73511254 223.49961853 311.22349548 C223.49686367 300.29604753 223.49061764 289.36860669 223.48168945 278.44116211 C223.47250465 267.18790726 223.46542904 255.93465433 223.46118164 244.68139648 C223.46091892 243.98726558 223.46065619 243.29313467 223.46038551 242.5779695 C223.45908043 239.09557535 223.45781673 235.61318119 223.45657361 232.13078701 C223.44621385 203.25971272 223.42853222 174.38864559 223.40625 145.51757812 C222.66076904 145.12143311 221.91528809 144.72528809 221.1472168 144.31713867 C219.67248901 143.52496948 219.67248901 143.52496948 218.16796875 142.71679688 C217.19561279 142.19690186 216.22325684 141.67700684 215.22143555 141.14135742 C212.70212078 139.68823432 210.48294387 138.1466225 208.21875 136.33007812 C201.66479751 131.23107639 194.09940486 129.12376591 185.80859375 129.69726562 C176.41421559 130.99213069 169.9256043 135.68782032 162.40625 141.14257812 C150.89336457 149.29154234 137.13475492 152.09374119 123.2421875 150.05273438 C112.14768851 147.81529961 103.27228673 143.2298729 94.55078125 136.12695312 C87.83762568 131.08902946 80.23216027 128.9277274 71.8984375 129.77148438 C64.03410222 131.10625688 58.29999525 134.11714843 51.87451172 138.76147461 C38.90739352 148.10919517 25.1173163 152.41899794 9.08984375 150.02148438 C-0.6599852 147.98403488 -8.20184805 144.39054033 -16.15625 138.45507812 C-24.16845778 132.48254631 -31.92751886 128.74140208 -42.1015625 129.77148438 C-50.46013633 131.1901414 -56.40545 134.56756314 -63.15625 139.58007812 C-70.52746188 145.01735941 -76.24477496 147.63055134 -85.59375 146.51757812 C-89.55826616 145.13861598 -90.93739525 143.22544344 -92.84375 139.64257812 C-95.16733135 134.78591219 -95.71750557 130.13598443 -95.77075195 124.7878418 C-95.78358719 123.65863815 -95.79642242 122.52943451 -95.80964661 121.36601257 C-95.81703354 120.15145889 -95.82442047 118.93690521 -95.83203125 117.68554688 C-95.840103 116.42100174 -95.84817474 115.1564566 -95.85649109 113.85359192 C-95.87031847 111.17294677 -95.8813361 108.49242391 -95.88891602 105.81176758 C-95.89771608 103.09343638 -95.91845051 100.37562638 -95.95043945 97.6574707 C-96.35007048 62.92102389 -96.35007048 62.92102389 -87.84375 47.20507812 C-87.32941406 46.21991211 -87.32941406 46.21991211 -86.8046875 45.21484375 C-75.89322564 24.84545418 -58.37004414 10.65888179 -36.49482727 3.50399017 C-24.31274796 0.03300799 -12.59982561 -0.04945385 0 0 Z " fill="#EFD500" transform="translate(223.59375,-0.517578125)"/>
<path d="M0 0 C4.37891102 3.52335114 7.85057383 4.93541378 13.4375 5.6875 C21.67917015 4.72597182 28.10830224 -0.32265059 34.69140625 -5.046875 C49.81512843 -15.36603442 67.50267908 -17.42814565 85.25488281 -14.17285156 C96.11666831 -11.79632144 105.74021062 -6.2572513 114.4375 0.5 C119.69033741 4.5212102 124.54263594 6.02523414 131.1875 5.25 C136.55625588 3.25232339 141.05765349 0.47594039 145.4375 -3.1875 C158.00848226 -13.4139829 175.32382642 -16.79008017 191.14770508 -15.35571289 C207.77204553 -13.47540149 222.6322456 -5.90975463 234.1875 6.25 C239.52390446 13.17819259 241.49712043 19.83420846 241.48828125 28.58203125 C241.49388062 29.39376297 241.49947998 30.20549469 241.50524902 31.04182434 C241.51725002 33.71556684 241.51080151 36.38875675 241.5 39.0625 C241.49726578 40.45248199 241.49726578 40.45248199 241.49447632 41.87054443 C241.27727088 108.07221591 239.21423629 234.05880147 189.765625 283.73828125 C188.48945312 284.98158203 188.48945312 284.98158203 187.1875 286.25 C186.31351562 287.13751953 186.31351562 287.13751953 185.421875 288.04296875 C173.17362116 299.57983411 156.25724548 305.4005806 139.72096252 305.39717102 C138.76284996 305.40084771 137.8047374 305.4045244 136.81759113 305.4083125 C133.60438149 305.41933277 130.39120421 305.42319042 127.17797852 305.42700195 C124.87486163 305.43326797 122.57174575 305.4399149 120.26863098 305.44691467 C112.70122988 305.46794521 105.13382861 305.47831778 97.56640625 305.48828125 C94.95870389 305.49232952 92.35100163 305.49644646 89.74329948 305.50063133 C78.89236115 305.51750008 68.04142573 305.53213341 57.19047642 305.53938007 C54.37674012 305.54128977 51.56300384 305.54321013 48.74926758 305.54516602 C48.04998235 305.54564976 47.35069711 305.5461335 46.63022142 305.5466319 C35.3170586 305.55492183 24.00400187 305.58024186 12.69088531 305.61274669 C1.05830774 305.64589497 -10.57421059 305.66350373 -22.20683533 305.66702431 C-28.73091698 305.6693707 -35.25483096 305.6782776 -41.77886772 305.70348549 C-47.92256612 305.72683991 -54.06598734 305.73096967 -60.2097187 305.72072411 C-62.45659433 305.72023039 -64.70348395 305.72650193 -66.95031738 305.74028015 C-89.16681138 305.86882231 -107.84950495 301.69005751 -124.32568359 285.80029297 C-136.64661848 272.95334116 -143.33883294 255.72408283 -143.375 238.0625 C-143.43010742 236.72155273 -143.43010742 236.72155273 -143.48632812 235.35351562 C-143.60317407 216.0999008 -135.42383948 196.08598672 -130.09246826 177.79278564 C-116.28763706 130.30825665 -103.25125045 82.68357108 -101.4621582 32.97607422 C-101.02378544 20.83670963 -99.00598663 12.52360094 -90.3671875 3.6015625 C-64.70433263 -20.02082073 -27.42009285 -22.09223561 0 0 Z M63.375 54.375 C44.00805425 68.23069432 20.5741536 71.98528773 -2.71875 68.625 C-12.06312471 66.96620008 -20.15585592 63.58915401 -28.45703125 59.0546875 C-31.22104366 57.56810574 -33.89569082 56.37990988 -36.8125 55.25 C-37.81251666 61.58258304 -38.78796144 67.91389434 -39.6015625 74.2734375 C-44.8728779 114.92363617 -55.31508826 154.32531334 -66.66015625 193.64453125 C-67.14122833 195.31467285 -67.14122833 195.31467285 -67.63201904 197.01855469 C-69.19203404 202.42873761 -70.76311145 207.83522873 -72.35595703 213.23583984 C-72.92887549 215.20275155 -73.5016373 217.16970891 -74.07421875 219.13671875 C-74.46867943 220.45262749 -74.46867943 220.45262749 -74.87110901 221.79512024 C-76.54964359 227.60062733 -77.40945612 233.22171486 -77.8125 239.25 C-73.99327899 241.79614734 -70.91420581 241.5314107 -66.48846436 241.51069641 C-65.19958356 241.51643473 -65.19958356 241.51643473 -63.88466477 241.52228898 C-60.99433737 241.53263939 -58.10420786 241.52862292 -55.21386719 241.5246582 C-53.14598913 241.52900364 -51.07811268 241.53418622 -49.01023865 241.54014587 C-43.3840746 241.5535676 -37.7579776 241.55411085 -32.13180065 241.55158257 C-27.43751935 241.55051466 -22.74325171 241.5553918 -18.04897332 241.560188 C-6.97323099 241.5712949 4.10247744 241.57171443 15.17822266 241.56567383 C26.60653511 241.55963672 38.03472436 241.57193571 49.46301579 241.5932439 C59.27033119 241.61085784 69.07760737 241.61686144 78.884938 241.61360615 C84.74424126 241.61179228 90.60345671 241.61443963 96.46274567 241.62832069 C101.97520266 241.6408904 107.48746777 241.63896291 112.9999218 241.62590981 C115.02235669 241.62354234 117.04480504 241.62628479 119.0672245 241.63453293 C121.83021573 241.64498791 124.59256168 241.63690954 127.35552979 241.6242218 C128.15408363 241.63159609 128.95263747 241.63897037 129.77538991 241.64656812 C134.95995283 241.59655662 138.60389315 240.7355948 143.1875 238.25 C148.20889419 230.94698692 149.75771227 221.56019712 151.9375 213.0625 C152.26131653 211.81289993 152.26131653 211.81289993 152.5916748 210.53805542 C165.60921502 160.21244564 175.01694913 108.3395137 176.1875 56.25 C174.59035156 57.04664063 174.59035156 57.04664063 172.9609375 57.859375 C150.83219053 68.70207661 126.85740556 73.5870063 102.6640625 66.44921875 C92.40982406 62.91208257 82.74607744 58.744169 74.25 51.875 C69.83736758 48.39838052 67.24136942 51.48594961 63.375 54.375 Z " fill="#EFD500" transform="translate(142.8125,206.75)"/>
<path d="M0 0 C4.90185241 4.15701241 7.63783881 8.83558052 8.20361328 15.34130859 C8.30922478 18.23103039 8.32838199 21.10834416 8.3125 24 C8.30686035 25.09449463 8.3012207 26.18898926 8.29541016 27.31665039 C8.01418076 47.09598734 5.44228843 66.60477392 2.0625 86.0625 C1.88083282 87.12269852 1.88083282 87.12269852 1.69549561 88.20431519 C-3.07437351 115.72214131 -3.07437351 115.72214131 -11.19140625 121.58203125 C-18.18171628 125.20962212 -24.551872 126.59962307 -32.26171875 124.3359375 C-38.06425374 121.79387455 -42.4288606 117.44525833 -45.05712891 111.68188477 C-48.39368007 102.19146152 -44.93987283 91.17030267 -43 81.625 C-42.56822229 79.46852629 -42.1395214 77.31153527 -41.71606445 75.15341187 C-41.33406163 73.21118866 -40.94269952 71.27081309 -40.55078125 69.33056641 C-40.07686566 66.46480555 -39.88458168 63.89301514 -40 61 C-40.67804688 61.05800781 -41.35609375 61.11601562 -42.0546875 61.17578125 C-49.46576695 61.5350441 -54.92255732 60.39108922 -61 56 C-66.70643336 50.00496541 -67.36691848 44.2649208 -67.26953125 36.296875 C-66.82746399 30.88955958 -65.30978517 27.28076777 -61.4453125 23.46484375 C-56.83827636 19.75746488 -51.589805 17.04149863 -46.4362793 14.18066406 C-39.21745132 10.10865342 -32.7384175 5.11071887 -26.37109375 -0.1875 C-18.27006309 -6.38005062 -8.32757946 -4.67826128 0 0 Z " fill="#EFD500" transform="translate(227,302)"/>
</svg>
