<?xml version="1.0" encoding="UTF-8"?>
<!DOCTYPE svg PUBLIC "-//W3C//DTD SVG 1.1//EN" "http://www.w3.org/Graphics/SVG/1.1/DTD/svg11.dtd">
<svg xmlns="http://www.w3.org/2000/svg" version="1.1" width="512px" height="512px" style="shape-rendering:geometricPrecision; text-rendering:geometricPrecision; image-rendering:optimizeQuality; fill-rule:evenodd; clip-rule:evenodd" xmlns:xlink="http://www.w3.org/1999/xlink">
<g><path style="opacity:0.941" fill="#010202" d="M 243.5,9.5 C 341.244,8.89052 416.077,49.5572 468,131.5C 505.176,198.78 511.176,268.78 486,341.5C 453.727,422.107 395.56,473.274 311.5,495C 216.535,513.454 136.035,487.621 70,417.5C 15.2308,351.018 -2.10251,275.685 18,191.5C 41.6168,111.549 92.1168,56.0494 169.5,25C 193.596,16.4155 218.262,11.2488 243.5,9.5 Z"/></g>
<g><path style="opacity:1" fill="#8b949c" d="M 269.5,21.5 C 264.833,21.5 260.167,21.5 255.5,21.5C 255.5,40.8333 255.5,60.1667 255.5,79.5C 189.71,81.6346 139.21,110.301 104,165.5C 71.3816,225.439 71.3816,285.439 104,345.5C 139.212,400.7 189.712,429.366 255.5,431.5C 255.5,450.833 255.5,470.167 255.5,489.5C 260.167,489.5 264.833,489.5 269.5,489.5C 177.937,492.136 106.77,455.47 56,379.5C 9.80646,299.073 8.80646,218.073 53,136.5C 103.276,57.2753 175.442,18.9419 269.5,21.5 Z"/></g>
<g><path style="opacity:1" fill="#c2c6c8" d="M 269.5,21.5 C 351.807,28.3831 414.641,66.7164 458,136.5C 501.898,217.252 501.231,297.585 456,377.5C 412.448,445.377 350.282,482.71 269.5,489.5C 264.833,489.5 260.167,489.5 255.5,489.5C 255.5,470.167 255.5,450.833 255.5,431.5C 322.215,429.208 373.049,399.874 408,343.5C 439.609,283.932 439.276,224.599 407,165.5C 371.836,110.322 321.336,81.655 255.5,79.5C 255.5,60.1667 255.5,40.8333 255.5,21.5C 260.167,21.5 264.833,21.5 269.5,21.5 Z"/></g>
<g><path style="opacity:1" fill="#050505" d="M 255.5,79.5 C 321.336,81.655 371.836,110.322 407,165.5C 439.276,224.599 439.609,283.932 408,343.5C 373.049,399.874 322.215,429.208 255.5,431.5C 189.712,429.366 139.212,400.7 104,345.5C 71.3816,285.439 71.3816,225.439 104,165.5C 139.21,110.301 189.71,81.6346 255.5,79.5 Z"/></g>
<g><path style="opacity:1" fill="#c2c6c8" d="M 235.5,90.5 C 308.38,85.851 363.546,114.518 401,176.5C 425.523,225.866 426.857,275.866 405,326.5C 379.016,377.469 337.85,408.302 281.5,419C 206.227,426.945 149.06,398.779 110,334.5C 88.9568,293.888 84.6235,251.555 97,207.5C 115.833,152.667 152.667,115.833 207.5,97C 216.938,94.6736 226.272,92.5069 235.5,90.5 Z"/></g>
<g><path style="opacity:1" fill="#8c959d" d="M 251.5,136.5 C 256.39,135.784 260.556,137.117 264,140.5C 273.393,164.011 282.393,187.677 291,211.5C 292.563,214.728 295.063,216.895 298.5,218C 320.833,218.333 343.167,218.667 365.5,219C 371.257,221.682 373.424,226.182 372,232.5C 370.878,234.624 369.378,236.457 367.5,238C 349.5,250.667 331.5,263.333 313.5,276C 308.919,279.438 307.419,283.938 309,289.5C 316.945,309.723 324.611,330.057 332,350.5C 332.923,362.898 327.423,367.064 315.5,363C 298.167,350.333 280.833,337.667 263.5,325C 258.994,322.186 254.327,321.853 249.5,324C 230.777,337.722 211.777,351.056 192.5,364C 181.502,365.333 177.002,360.5 179,349.5C 186.667,329.5 194.333,309.5 202,289.5C 203.581,283.938 202.081,279.438 197.5,276C 178.068,262.534 158.902,248.701 140,234.5C 137.107,227.988 138.607,222.821 144.5,219C 167.167,218.667 189.833,218.333 212.5,218C 215.937,216.895 218.437,214.728 220,211.5C 228.607,187.677 237.607,164.011 247,140.5C 248.397,138.93 249.897,137.596 251.5,136.5 Z"/></g>
</svg>
