<?xml version="1.0" encoding="UTF-8"?>
<!DOCTYPE svg PUBLIC "-//W3C//DTD SVG 1.1//EN" "http://www.w3.org/Graphics/SVG/1.1/DTD/svg11.dtd">
<svg xmlns="http://www.w3.org/2000/svg" version="1.1" width="512px" height="512px" style="shape-rendering:geometricPrecision; text-rendering:geometricPrecision; image-rendering:optimizeQuality; fill-rule:evenodd; clip-rule:evenodd" xmlns:xlink="http://www.w3.org/1999/xlink">
<g><path style="opacity:0.911" fill="#000000" d="M 357.5,43.5 C 360.685,43.0196 363.519,43.6863 366,45.5C 373.305,56.3051 380.805,66.9718 388.5,77.5C 402.704,80.7733 416.87,84.1066 431,87.5C 432.302,102.407 432.968,117.407 433,132.5C 441.667,141.833 450.333,151.167 459,160.5C 460.422,163.03 460.755,165.697 460,168.5C 451.833,179.5 443.667,190.5 435.5,201.5C 437.328,214.124 438.995,226.791 440.5,239.5C 440.485,241.634 439.985,243.634 439,245.5C 425.601,250.227 412.101,254.727 398.5,259C 391.752,271.164 384.752,283.164 377.5,295C 375.305,296.373 372.971,296.706 370.5,296C 358.281,291.973 346.114,287.806 334,283.5C 322.107,288.863 310.273,294.363 298.5,300C 295.412,300.847 292.579,300.347 290,298.5C 282.361,287.201 274.361,276.201 266,265.5C 252.236,262.748 238.569,259.748 225,256.5C 223.698,241.593 223.032,226.593 223,211.5C 214.333,202.167 205.667,192.833 197,183.5C 195.578,180.97 195.245,178.303 196,175.5C 203.423,164.988 211.09,154.655 219,144.5C 218.621,130.96 217.454,117.46 215.5,104C 215.305,101.648 215.972,99.6477 217.5,98C 230.76,93.4688 244.094,89.1355 257.5,85C 264.33,72.3363 271.663,60.0029 279.5,48C 281.833,47.3333 284.167,47.3333 286.5,48C 298.35,52.1719 310.183,56.3386 322,60.5C 334.048,55.1051 345.881,49.4385 357.5,43.5 Z M 356.5,58.5 C 357.675,58.281 358.675,58.6143 359.5,59.5C 366.64,69.8063 373.973,79.973 381.5,90C 394.165,92.5663 406.832,95.0663 419.5,97.5C 419.333,110.837 419.5,124.171 420,137.5C 428.129,147.298 436.629,156.798 445.5,166C 437.878,176.078 430.378,186.244 423,196.5C 423.906,209.829 425.073,223.163 426.5,236.5C 414.035,239.867 401.701,243.7 389.5,248C 383.167,259 376.833,270 370.5,281C 358.036,277.903 345.703,274.07 333.5,269.5C 321.607,274.696 309.774,280.03 298,285.5C 290.192,275.019 282.359,264.519 274.5,254C 261.893,251.179 249.226,248.679 236.5,246.5C 236.667,233.163 236.5,219.829 236,206.5C 227.871,196.702 219.371,187.202 210.5,178C 218,167.833 225.5,157.667 233,147.5C 232.333,135.488 231.166,123.488 229.5,111.5C 229.833,110.167 230.167,108.833 230.5,107.5C 242.574,103.698 254.574,99.6976 266.5,95.5C 273.253,84.3297 279.753,72.9964 286,61.5C 297.863,66.3986 310.029,70.3986 322.5,73.5C 334.354,69.5706 345.687,64.5706 356.5,58.5 Z M 318.5,98.5 C 357.185,96.7467 383.685,113.747 398,149.5C 406.856,185.611 396.023,214.111 365.5,235C 329.904,252.82 298.404,247.32 271,218.5C 249.388,188.083 249.055,157.416 270,126.5C 282.735,111.054 298.902,101.721 318.5,98.5 Z M 327.5,147.5 C 329.871,152.748 332.537,157.915 335.5,163C 341.085,164.186 346.751,164.852 352.5,165C 347.981,168.522 343.815,172.355 340,176.5C 339.939,181.438 340.773,186.272 342.5,191C 342.167,191.5 341.833,192 341.5,192.5C 337.176,189.755 332.676,187.422 328,185.5C 323.165,187.164 318.665,189.497 314.5,192.5C 314.167,192 313.833,191.5 313.5,191C 315.227,186.272 316.061,181.438 316,176.5C 312.185,172.355 308.019,168.522 303.5,165C 309.249,164.852 314.915,164.186 320.5,163C 323.7,158.238 326.033,153.072 327.5,147.5 Z"/></g>
<g><path style="opacity:0.909" fill="#000000" d="M 317.5,85.5 C 353.557,83.2803 381.724,96.947 402,126.5C 422.874,167.383 417.374,204.217 385.5,237C 354.027,261.636 320.361,264.969 284.5,247C 253.455,227.077 239.289,198.577 242,161.5C 250.013,118.987 275.18,93.6541 317.5,85.5 Z M 318.5,98.5 C 298.902,101.721 282.735,111.054 270,126.5C 249.055,157.416 249.388,188.083 271,218.5C 298.404,247.32 329.904,252.82 365.5,235C 396.023,214.111 406.856,185.611 398,149.5C 383.685,113.747 357.185,96.7467 318.5,98.5 Z M 327.5,147.5 C 326.033,153.072 323.7,158.238 320.5,163C 314.915,164.186 309.249,164.852 303.5,165C 308.019,168.522 312.185,172.355 316,176.5C 316.061,181.438 315.227,186.272 313.5,191C 313.833,191.5 314.167,192 314.5,192.5C 318.665,189.497 323.165,187.164 328,185.5C 332.676,187.422 337.176,189.755 341.5,192.5C 341.833,192 342.167,191.5 342.5,191C 340.773,186.272 339.939,181.438 340,176.5C 343.815,172.355 347.981,168.522 352.5,165C 346.751,164.852 341.085,164.186 335.5,163C 332.537,157.915 329.871,152.748 327.5,147.5 Z"/></g>
<g><path style="opacity:0.915" fill="#000000" d="M 325.5,123.5 C 328.272,123.22 330.772,123.887 333,125.5C 336.5,133.833 340,142.167 343.5,150.5C 353.14,151.855 362.806,153.022 372.5,154C 375.654,156.775 376.154,159.942 374,163.5C 367.146,169.69 360.313,175.856 353.5,182C 355.815,190.261 357.815,198.594 359.5,207C 359.586,212.584 356.92,214.917 351.5,214C 343.416,209.543 335.582,204.709 328,199.5C 320.418,204.709 312.584,209.543 304.5,214C 297.129,214.27 294.629,210.77 297,203.5C 298.679,196.451 300.512,189.451 302.5,182.5C 295.51,175.678 288.343,169.011 281,162.5C 280.07,159.15 280.903,156.317 283.5,154C 293.194,153.022 302.86,151.855 312.5,150.5C 315.333,143.5 318.167,136.5 321,129.5C 321.804,126.854 323.304,124.854 325.5,123.5 Z M 327.5,147.5 C 326.033,153.072 323.7,158.238 320.5,163C 314.915,164.186 309.249,164.852 303.5,165C 308.019,168.522 312.185,172.355 316,176.5C 316.061,181.438 315.227,186.272 313.5,191C 313.833,191.5 314.167,192 314.5,192.5C 318.665,189.497 323.165,187.164 328,185.5C 332.676,187.422 337.176,189.755 341.5,192.5C 341.833,192 342.167,191.5 342.5,191C 340.773,186.272 339.939,181.438 340,176.5C 343.815,172.355 347.981,168.522 352.5,165C 346.751,164.852 341.085,164.186 335.5,163C 332.537,157.915 329.871,152.748 327.5,147.5 Z"/></g>
<g><path style="opacity:0.923" fill="#000000" d="M 17.5,296.5 C 43.8354,296.333 70.1688,296.5 96.5,297C 97.3333,297.833 98.1667,298.667 99,299.5C 99.3333,305.833 99.6667,312.167 100,318.5C 123.938,304.047 149.772,299.213 177.5,304C 194.954,306.891 211.288,312.891 226.5,322C 232.056,323.806 237.722,325.139 243.5,326C 271.197,326.062 298.864,326.728 326.5,328C 339.456,330.56 349.956,337.06 358,347.5C 359.689,350.891 361.856,353.891 364.5,356.5C 386.833,345.333 409.167,334.167 431.5,323C 443.776,317.076 456.443,316.076 469.5,320C 478.331,324.245 486.664,329.245 494.5,335C 497.167,338.667 497.167,342.333 494.5,346C 445.327,378.752 396.327,411.752 347.5,445C 318.115,464.277 286.115,470.61 251.5,464C 217.108,454.203 182.774,444.203 148.5,434C 138.327,430.876 128.327,431.543 118.5,436C 112.247,440.043 106.08,444.21 100,448.5C 99.6667,453.833 99.3333,459.167 99,464.5C 98.5,465.667 97.6667,466.5 96.5,467C 70.1667,467.667 43.8333,467.667 17.5,467C 16.5838,466.626 15.7504,466.126 15,465.5C 14.3333,410.167 14.3333,354.833 15,299.5C 16.045,298.627 16.8783,297.627 17.5,296.5 Z M 26.5,309.5 C 46.5,309.5 66.5,309.5 86.5,309.5C 86.5,357.833 86.5,406.167 86.5,454.5C 66.5,454.5 46.5,454.5 26.5,454.5C 26.5,406.167 26.5,357.833 26.5,309.5 Z M 147.5,315.5 C 173.076,313.78 196.743,319.613 218.5,333C 226.264,335.941 234.264,337.941 242.5,339C 268.167,339.333 293.833,339.667 319.5,340C 340.397,343.397 352.397,355.563 355.5,376.5C 320.165,376.333 284.832,376.5 249.5,377C 246.009,378.821 244.843,381.654 246,385.5C 246.5,387.333 247.667,388.5 249.5,389C 288.167,389.667 326.833,389.667 365.5,389C 366.333,388.167 367.167,387.333 368,386.5C 368.383,380.661 368.549,374.994 368.5,369.5C 392.833,357.333 417.167,345.167 441.5,333C 454.591,328.399 466.425,330.566 477,339.5C 477.617,340.449 477.451,341.282 476.5,342C 430.227,372.608 384.227,403.608 338.5,435C 312.333,451.767 283.999,457.1 253.5,451C 217.833,440.667 182.167,430.333 146.5,420C 129.022,417.077 113.522,421.243 100,432.5C 99.3333,400.167 99.3333,367.833 100,335.5C 113.797,323.85 129.631,317.183 147.5,315.5 Z"/></g>
</svg>
