<?xml version="1.0" encoding="UTF-8"?>
<!DOCTYPE svg PUBLIC "-//W3C//DTD SVG 1.1//EN" "http://www.w3.org/Graphics/SVG/1.1/DTD/svg11.dtd">
<svg xmlns="http://www.w3.org/2000/svg" version="1.1" width="512px" height="512px" style="shape-rendering:geometricPrecision; text-rendering:geometricPrecision; image-rendering:optimizeQuality; fill-rule:evenodd; clip-rule:evenodd" xmlns:xlink="http://www.w3.org/1999/xlink">
<g><path style="opacity:0.983" fill="#515260" d="M 304.5,-0.5 C 307.5,-0.5 310.5,-0.5 313.5,-0.5C 319.521,0.338528 325.521,1.83853 331.5,4C 337.531,7.01556 343.531,10.0156 349.5,13C 359.47,14.1472 369.47,15.1472 379.5,16C 400.242,20.8674 414.908,33.0341 423.5,52.5C 415.833,52.5 408.167,52.5 400.5,52.5C 394.45,44.2971 386.45,38.7971 376.5,36C 357.694,37.2984 340.36,32.9651 324.5,23C 319.654,21.1921 314.654,20.0254 309.5,19.5C 304.416,20.1801 299.416,21.1801 294.5,22.5C 271.833,21.8333 249.167,21.1667 226.5,20.5C 230.14,18.338 234.14,16.838 238.5,16C 248.53,15.1472 258.53,14.1472 268.5,13C 275.348,9.41001 282.348,6.07668 289.5,3C 294.586,1.62032 299.586,0.45365 304.5,-0.5 Z"/></g>
<g><path style="opacity:0.982" fill="#555665" d="M 226.5,20.5 C 249.167,21.1667 271.833,21.8333 294.5,22.5C 280.506,32.4074 264.839,36.574 247.5,35C 237.862,36.1545 229.529,39.9878 222.5,46.5C 215.167,45.8333 207.833,45.1667 200.5,44.5C 204.748,36.2023 210.748,29.369 218.5,24C 221.071,22.5462 223.738,21.3795 226.5,20.5 Z"/></g>
<g><path style="opacity:0.966" fill="#666879" d="M 400.5,52.5 C 408.167,52.5 415.833,52.5 423.5,52.5C 430.466,58.6199 438.133,63.7866 446.5,68C 453.272,73.2554 458.272,79.7554 461.5,87.5C 453.833,87.5 446.167,87.5 438.5,87.5C 430.698,82.0947 422.698,76.928 414.5,72C 408.426,66.4392 403.76,59.9392 400.5,52.5 Z"/></g>
<g><path style="opacity:0.981" fill="#717386" d="M 300.5,119.5 C 293.922,120.46 287.255,120.793 280.5,120.5C 280.18,104.802 272.513,95.1358 257.5,91.5C 245.786,94.5475 238.452,101.881 235.5,113.5C 232.518,112.835 229.352,112.502 226,112.5C 222.238,112.585 218.738,113.252 215.5,114.5C 218.749,89.5846 232.749,75.2513 257.5,71.5C 279.811,73.6401 293.645,85.6401 299,107.5C 299.828,111.466 300.328,115.466 300.5,119.5 Z"/></g>
<g><path style="opacity:0.969" fill="#6b6c7f" d="M 200.5,44.5 C 207.833,45.1667 215.167,45.8333 222.5,46.5C 214.659,63.1736 202.326,75.3403 185.5,83C 179.573,87.7043 175.239,93.5376 172.5,100.5C 165.646,100.824 158.979,100.491 152.5,99.5C 155.18,85.3146 162.513,74.148 174.5,66C 185.472,61.5199 194.139,54.3532 200.5,44.5 Z"/></g>
<g><path style="opacity:0.969" fill="#6f7084" d="M 362.5,100.5 C 354.833,100.5 347.167,100.5 339.5,100.5C 345.322,90.8611 351.155,81.1944 357,71.5C 361.2,67.2856 366.034,66.4522 371.5,69C 375.714,73.2002 376.548,78.0336 374,83.5C 370.304,89.3442 366.47,95.0109 362.5,100.5 Z"/></g>
<g><path style="opacity:0.958" fill="#77798d" d="M 438.5,87.5 C 446.167,87.5 453.833,87.5 461.5,87.5C 464.394,92.005 466.227,97.005 467,102.5C 467.499,108.491 467.666,114.491 467.5,120.5C 460.833,120.5 454.167,120.5 447.5,120.5C 448.999,108.152 445.999,97.1518 438.5,87.5 Z"/></g>
<g><path style="opacity:0.97" fill="#86899e" d="M 235.5,113.5 C 233.912,125.906 237.579,136.406 246.5,145C 261.316,151.837 271.816,147.671 278,132.5C 279.283,128.586 280.116,124.586 280.5,120.5C 287.255,120.793 293.922,120.46 300.5,119.5C 300.3,142.093 289.967,157.926 269.5,167C 242.483,171.574 224.983,160.74 217,134.5C 215.726,127.897 215.226,121.23 215.5,114.5C 218.738,113.252 222.238,112.585 226,112.5C 229.352,112.502 232.518,112.835 235.5,113.5 Z"/></g>
<g><path style="opacity:0.97" fill="#83869a" d="M 152.5,99.5 C 158.979,100.491 165.646,100.824 172.5,100.5C 171.072,110.78 169.905,121.113 169,131.5C 166.721,138.724 163.388,145.391 159,151.5C 157.326,155.021 156.16,158.687 155.5,162.5C 148.922,161.54 142.255,161.207 135.5,161.5C 135.965,156.345 137.131,151.345 139,146.5C 142.603,140.293 145.936,133.96 149,127.5C 149.868,117.989 151.034,108.656 152.5,99.5 Z"/></g>
<g><path style="opacity:0.967" fill="#86889e" d="M 339.5,100.5 C 347.167,100.5 354.833,100.5 362.5,100.5C 348.998,123.51 334.998,146.176 320.5,168.5C 312.833,168.5 305.167,168.5 297.5,168.5C 311.002,145.49 325.002,122.824 339.5,100.5 Z"/></g>
<g><path style="opacity:0.969" fill="#8c8fa5" d="M 447.5,120.5 C 454.167,120.5 460.833,120.5 467.5,120.5C 469.362,128.892 472.862,136.559 478,143.5C 483.675,156.445 484.842,169.778 481.5,183.5C 474.08,183.203 466.746,183.536 459.5,184.5C 464.016,175.029 464.516,165.363 461,155.5C 453.648,144.947 449.148,133.28 447.5,120.5 Z"/></g>
<g><path style="opacity:0.968" fill="#979ab0" d="M 402.5,208.5 C 395.833,208.5 389.167,208.5 382.5,208.5C 379.179,193.038 369.846,186.205 354.5,188C 351.351,189.662 348.351,191.495 345.5,193.5C 337.833,193.5 330.167,193.5 322.5,193.5C 336.519,167.081 356.852,160.581 383.5,174C 394.425,183.021 400.759,194.521 402.5,208.5 Z"/></g>
<g><path style="opacity:0.974" fill="#a0a4bb" d="M 135.5,161.5 C 142.255,161.207 148.922,161.54 155.5,162.5C 155.334,166.846 155.501,171.179 156,175.5C 160.608,185.048 164.941,194.715 169,204.5C 170.156,212.449 170.822,220.449 171,228.5C 172.435,237.539 176.602,245.039 183.5,251C 195.119,256.219 204.953,263.719 213,273.5C 215.446,277.394 217.612,281.394 219.5,285.5C 211.833,284.167 204.167,284.167 196.5,285.5C 194.734,283.229 192.734,281.063 190.5,279C 161.297,266.118 147.797,243.618 150,211.5C 147.135,203.438 143.469,195.771 139,188.5C 135.721,179.684 134.554,170.684 135.5,161.5 Z"/></g>
<g><path style="opacity:0.967" fill="#a2a5bd" d="M 297.5,168.5 C 305.167,168.5 312.833,168.5 320.5,168.5C 300.892,200.615 281.058,232.615 261,264.5C 255.001,269.968 249.335,269.634 244,263.5C 242.75,260.923 242.416,258.257 243,255.5C 260.634,226.061 278.801,197.061 297.5,168.5 Z"/></g>
<g><path style="opacity:0.974" fill="#a8abc4" d="M 322.5,193.5 C 330.167,193.5 337.833,193.5 345.5,193.5C 338.968,202.45 336.801,212.45 339,223.5C 343.034,239.239 352.868,245.405 368.5,242C 380.08,233.769 384.746,222.602 382.5,208.5C 389.167,208.5 395.833,208.5 402.5,208.5C 404.99,232.023 395.99,249.523 375.5,261C 350.75,267.864 332.917,259.697 322,236.5C 316.193,222.106 316.36,207.772 322.5,193.5 Z"/></g>
<g><path style="opacity:0.968" fill="#a4a8c0" d="M 481.5,183.5 C 477.587,192.324 473.421,200.991 469,209.5C 471.503,241.018 458.67,263.518 430.5,277C 427.964,279.705 425.297,282.205 422.5,284.5C 414.757,285.13 407.424,284.463 400.5,282.5C 407.768,268.402 418.768,258.236 433.5,252C 440.419,246.323 444.919,239.157 447,230.5C 445.334,213.394 449.5,198.061 459.5,184.5C 466.746,183.536 474.08,183.203 481.5,183.5 Z"/></g>
<g><path style="opacity:0.971" fill="#8c8fa4" d="M 400.5,282.5 C 407.424,284.463 414.757,285.13 422.5,284.5C 413.831,303.172 399.498,314.839 379.5,319.5C 332.167,318.167 284.833,318.167 237.5,319.5C 218.385,314.717 204.718,303.383 196.5,285.5C 204.167,284.167 211.833,284.167 219.5,285.5C 225.842,292.995 233.842,297.828 243.5,300C 255.818,299.547 267.818,301.214 279.5,305C 298.311,318.567 317.311,318.9 336.5,306C 348.704,301.286 361.371,299.286 374.5,300C 385.804,297.827 394.471,291.993 400.5,282.5 Z"/></g>
<g><path style="opacity:0.988" fill="#83869a" d="M 237.5,319.5 C 284.833,318.167 332.167,318.167 379.5,319.5C 370.164,320.096 360.83,320.929 351.5,322C 343.469,325.683 335.469,329.35 327.5,333C 316.577,335.856 305.577,336.189 294.5,334C 284.904,330.533 275.571,326.533 266.5,322C 256.858,320.868 247.192,320.035 237.5,319.5 Z"/></g>
<g><path style="opacity:0.993" fill="#828498" d="M 99.5,331.5 C 67.2768,330.852 35.2768,331.519 3.5,333.5C 1.05501,322.343 5.38835,316.343 16.5,315.5C 41.1567,316.518 65.8233,317.352 90.5,318C 97.572,319.649 100.572,324.149 99.5,331.5 Z"/></g>
<g><path style="opacity:0.988" fill="#7a7c8f" d="M 219.5,346.5 C 172.598,347.171 125.598,347.838 78.5,348.5C 78.5,344.833 78.5,341.167 78.5,337.5C 60.1716,336.945 41.8383,336.611 23.5,336.5C 23.5,340.167 23.5,343.833 23.5,347.5C 16.6457,347.824 9.97904,347.491 3.5,346.5C 3.5,342.167 3.5,337.833 3.5,333.5C 35.2768,331.519 67.2768,330.852 99.5,331.5C 98.8099,335.49 98.6432,339.49 99,343.5C 139.63,324.041 179.797,325.041 219.5,346.5 Z"/></g>
<g><path style="opacity:0.919" fill="#727587" d="M 219.5,346.5 C 228.539,351.345 238.206,354.178 248.5,355C 274.841,355.741 301.174,356.574 327.5,357.5C 285.167,358.167 242.833,358.833 200.5,359.5C 168.039,345.39 136.039,346.39 104.5,362.5C 95.8333,362.5 87.1667,362.5 78.5,362.5C 78.5,357.833 78.5,353.167 78.5,348.5C 125.598,347.838 172.598,347.171 219.5,346.5 Z"/></g>
<g><path style="opacity:0.987" fill="#6d6f80" d="M 327.5,357.5 C 337.196,359.022 345.862,362.689 353.5,368.5C 309.761,368.172 266.094,368.506 222.5,369.5C 214.602,367.214 207.268,363.881 200.5,359.5C 242.833,358.833 285.167,358.167 327.5,357.5 Z"/></g>
<g><path style="opacity:0.981" fill="#6b6e7f" d="M 509.5,372.5 C 500.833,372.5 492.167,372.5 483.5,372.5C 477.485,369.579 471.152,368.413 464.5,369C 454.352,372.075 444.685,376.241 435.5,381.5C 420.833,380.833 406.167,380.167 391.5,379.5C 412.903,369.133 434.569,359.299 456.5,350C 474.117,346.445 489.617,350.612 503,362.5C 505.81,365.464 507.976,368.798 509.5,372.5 Z"/></g>
<g><path style="opacity:0.92" fill="#67697a" d="M 353.5,368.5 C 356.603,370.423 359.603,372.59 362.5,375C 363.386,376.615 364.386,378.115 365.5,379.5C 355.833,380.167 346.167,380.833 336.5,381.5C 330.231,378.434 323.564,376.934 316.5,377C 293.498,376.389 270.498,375.722 247.5,375C 238.747,374.485 230.414,372.652 222.5,369.5C 266.094,368.506 309.761,368.172 353.5,368.5 Z"/></g>
<g><path style="opacity:0.974" fill="#666879" d="M 3.5,346.5 C 9.97904,347.491 16.6457,347.824 23.5,347.5C 22.7042,363.133 22.0376,378.8 21.5,394.5C 15.1667,394.5 8.83333,394.5 2.5,394.5C 2.76781,392.901 2.43448,391.568 1.5,390.5C 2.02026,375.673 2.68693,361.006 3.5,346.5 Z"/></g>
<g><path style="opacity:0.974" fill="#606271" d="M 365.5,379.5 C 368.161,382.171 370.494,385.171 372.5,388.5C 378.981,385.759 385.314,382.759 391.5,379.5C 406.167,380.167 420.833,380.833 435.5,381.5C 416.838,390.164 398.171,398.831 379.5,407.5C 372.412,407.795 365.412,407.462 358.5,406.5C 354.177,395.521 346.843,387.188 336.5,381.5C 346.167,380.833 355.833,380.167 365.5,379.5 Z"/></g>
<g><path style="opacity:0.974" fill="#5e5f6f" d="M 483.5,372.5 C 492.167,372.5 500.833,372.5 509.5,372.5C 510.167,372.833 510.833,373.167 511.5,373.5C 511.5,376.5 511.5,379.5 511.5,382.5C 510.404,384.103 509.07,385.603 507.5,387C 493.138,396.177 478.805,405.344 464.5,414.5C 452.914,413.522 441.247,413.189 429.5,413.5C 448.324,400.863 467.324,388.363 486.5,376C 485.29,374.961 484.29,373.794 483.5,372.5 Z"/></g>
<g><path style="opacity:0.973" fill="#5c5e6d" d="M 78.5,362.5 C 87.1667,362.5 95.8333,362.5 104.5,362.5C 102.849,363.97 101.015,365.303 99,366.5C 97.4084,390.126 96.5751,413.792 96.5,437.5C 89.9221,436.54 83.2554,436.207 76.5,436.5C 76.7527,411.816 77.4194,387.149 78.5,362.5 Z"/></g>
<g><path style="opacity:0.996" fill="#595a69" d="M 358.5,406.5 C 365.412,407.462 372.412,407.795 379.5,407.5C 379.666,412.844 379.499,418.177 379,423.5C 377.833,426 376,427.833 373.5,429C 333.149,428.907 292.816,427.907 252.5,426C 246.433,422.283 244.933,417.116 248,410.5C 249.579,408.959 251.413,407.792 253.5,407C 288.501,407.446 323.501,408.279 358.5,409.5C 358.5,408.5 358.5,407.5 358.5,406.5 Z"/></g>
<g><path style="opacity:0.981" fill="#535461" d="M 429.5,413.5 C 441.247,413.189 452.914,413.522 464.5,414.5C 442.44,429.22 420.107,443.553 397.5,457.5C 386.346,456.505 375.012,456.172 363.5,456.5C 385.122,441.682 407.122,427.349 429.5,413.5 Z"/></g>
<g><path style="opacity:0.977" fill="#4d4f5b" d="M 76.5,436.5 C 83.2554,436.207 89.9221,436.54 96.5,437.5C 95.4793,445.842 95.4793,454.176 96.5,462.5C 109.939,453.64 124.605,450.474 140.5,453C 167.085,460.059 193.419,467.559 219.5,475.5C 196.808,474.844 174.475,475.511 152.5,477.5C 139.569,471.435 126.569,471.102 113.5,476.5C 100.931,475.179 88.2646,475.179 75.5,476.5C 75.285,463.144 75.6183,449.811 76.5,436.5 Z"/></g>
<g><path style="opacity:0.962" fill="#525360" d="M 1.5,390.5 C 2.43448,391.568 2.76781,392.901 2.5,394.5C 8.83333,394.5 15.1667,394.5 21.5,394.5C 21.0134,421.505 20.3467,448.505 19.5,475.5C 12.8333,475.5 6.16667,475.5 -0.5,475.5C -0.5,468.833 -0.5,462.167 -0.5,455.5C 0.667049,434.008 1.33372,412.342 1.5,390.5 Z"/></g>
<g><path style="opacity:0.972" fill="#494a55" d="M 363.5,456.5 C 375.012,456.172 386.346,456.505 397.5,457.5C 378.351,470.912 358.685,483.578 338.5,495.5C 298.167,494.167 257.833,494.167 217.5,495.5C 195.893,489.348 174.226,483.348 152.5,477.5C 174.475,475.511 196.808,474.844 219.5,475.5C 235.793,479.763 252.126,483.93 268.5,488C 287.455,490.383 305.788,488.049 323.5,481C 337,472.978 350.333,464.811 363.5,456.5 Z"/></g>
<g><path style="opacity:0.984" fill="#474853" d="M -0.5,475.5 C 6.16667,475.5 12.8333,475.5 19.5,475.5C 19.2436,477.792 19.5769,479.959 20.5,482C 38.5032,482.473 56.5032,482.973 74.5,483.5C 74.448,481.097 74.7814,478.764 75.5,476.5C 88.2646,475.179 100.931,475.179 113.5,476.5C 107.44,479.948 101.273,483.281 95,486.5C 94.6667,490.167 94.3333,493.833 94,497.5C 92.8333,500 91,501.833 88.5,503C 60.8118,503.351 33.1451,502.685 5.5,501C 3.03244,500.021 1.03244,498.521 -0.5,496.5C -0.5,489.5 -0.5,482.5 -0.5,475.5 Z"/></g>
<g><path style="opacity:0.984" fill="#44464f" d="M 217.5,495.5 C 257.833,494.167 298.167,494.167 338.5,495.5C 326.446,502.128 313.446,506.294 299.5,508C 284.805,509.644 270.138,508.977 255.5,506C 242.815,502.496 230.148,498.996 217.5,495.5 Z"/></g>
</svg>
