<?xml version="1.0" encoding="UTF-8"?>
<!DOCTYPE svg PUBLIC "-//W3C//DTD SVG 1.1//EN" "http://www.w3.org/Graphics/SVG/1.1/DTD/svg11.dtd">
<svg xmlns="http://www.w3.org/2000/svg" version="1.1" width="512px" height="512px" style="shape-rendering:geometricPrecision; text-rendering:geometricPrecision; image-rendering:optimizeQuality; fill-rule:evenodd; clip-rule:evenodd" xmlns:xlink="http://www.w3.org/1999/xlink">
<g><path style="opacity:0.989" fill="#383838" d="M 233.5,47.5 C 324.758,42.5389 394.258,78.5389 442,155.5C 466.185,201.599 475.185,250.599 469,302.5C 460.493,373.399 426.326,427.899 366.5,466C 305.657,500.319 242.324,505.652 176.5,482C 113.585,455.751 71.4186,410.251 50,345.5C 41.1023,312.396 38.1023,278.73 41,244.5C 50.0907,163.13 90.924,103.963 163.5,67C 185.998,57.0454 209.332,50.5454 233.5,47.5 Z"/></g>
<g><path style="opacity:1" fill="#cad4d9" d="M 282.5,83.5 C 282.631,84.2389 282.464,84.9056 282,85.5C 262.632,104.701 243.465,124.035 224.5,143.5C 218.686,144.827 213.019,146.66 207.5,149C 205.456,149.498 204.122,150.665 203.5,152.5C 193.918,146.418 187.084,138.084 183,127.5C 182.094,125.388 180.594,124.555 178.5,125C 173.723,136.108 166.39,145.108 156.5,152C 153.618,153.608 150.618,154.941 147.5,156C 145.473,157.396 145.14,159.062 146.5,161C 155.4,164.086 162.734,169.253 168.5,176.5C 152.985,191.843 142.318,210.176 136.5,231.5C 116.833,250.833 97.1667,270.167 77.5,289.5C 77.2833,285.295 76.6167,281.295 75.5,277.5C 72.3599,202.937 102.027,145.77 164.5,106C 201.212,84.958 240.545,77.458 282.5,83.5 Z"/></g>
<g><path style="opacity:1" fill="#b4b4b4" d="M 282.5,83.5 C 312.944,88.1932 340.277,99.8599 364.5,118.5C 350.114,131.885 336.447,145.885 323.5,160.5C 293.021,140.475 260.021,134.809 224.5,143.5C 243.465,124.035 262.632,104.701 282,85.5C 282.464,84.9056 282.631,84.2389 282.5,83.5 Z"/></g>
<g><path style="opacity:1" fill="#cad4d9" d="M 364.5,118.5 C 377.167,127.833 388.167,138.833 397.5,151.5C 397.631,152.239 397.464,152.906 397,153.5C 383.631,166.701 370.465,180.035 357.5,193.5C 348.152,180.485 336.818,169.485 323.5,160.5C 336.447,145.885 350.114,131.885 364.5,118.5 Z"/></g>
<g><path style="opacity:1" fill="#fdfdfd" d="M 203.5,152.5 C 206.596,153.547 209.596,154.88 212.5,156.5C 213.614,157.723 213.781,159.056 213,160.5C 198.5,167 188,177.5 181.5,192C 180.056,192.781 178.723,192.614 177.5,191.5C 175.228,185.939 172.228,180.939 168.5,176.5C 162.734,169.253 155.4,164.086 146.5,161C 145.14,159.062 145.473,157.396 147.5,156C 150.618,154.941 153.618,153.608 156.5,152C 166.39,145.108 173.723,136.108 178.5,125C 180.594,124.555 182.094,125.388 183,127.5C 187.084,138.084 193.918,146.418 203.5,152.5 Z"/></g>
<g><path style="opacity:1" fill="#6b6b6b" d="M 323.5,160.5 C 336.818,169.485 348.152,180.485 357.5,193.5C 383.175,236.915 384.008,280.915 360,325.5C 329.248,370.283 286.748,389.116 232.5,382C 215.813,378.484 200.48,371.984 186.5,362.5C 173.806,353.139 162.806,342.139 153.5,329.5C 134.886,299.153 129.22,266.487 136.5,231.5C 142.318,210.176 152.985,191.843 168.5,176.5C 172.228,180.939 175.228,185.939 177.5,191.5C 178.723,192.614 180.056,192.781 181.5,192C 188,177.5 198.5,167 213,160.5C 213.781,159.056 213.614,157.723 212.5,156.5C 209.596,154.88 206.596,153.547 203.5,152.5C 204.122,150.665 205.456,149.498 207.5,149C 213.019,146.66 218.686,144.827 224.5,143.5C 260.021,134.809 293.021,140.475 323.5,160.5 Z"/></g>
<g><path style="opacity:1" fill="#b4b4b4" d="M 397.5,151.5 C 424.766,186.642 437.433,226.642 435.5,271.5C 428.83,342.669 393.497,394.169 329.5,426C 274.388,448.811 220.388,446.477 167.5,419C 160.046,414.694 153.046,409.86 146.5,404.5C 159.465,391.035 172.631,377.701 186,364.5C 186.464,363.906 186.631,363.239 186.5,362.5C 200.48,371.984 215.813,378.484 232.5,382C 286.748,389.116 329.248,370.283 360,325.5C 384.008,280.915 383.175,236.915 357.5,193.5C 370.465,180.035 383.631,166.701 397,153.5C 397.464,152.906 397.631,152.239 397.5,151.5 Z"/></g>
<g><path style="opacity:1" fill="#b7bec3" d="M 252.5,187.5 C 255.482,187.104 258.149,187.771 260.5,189.5C 268.167,200.833 275.833,212.167 283.5,223.5C 296.395,227.631 309.395,231.464 322.5,235C 327.416,236.848 328.583,240.014 326,244.5C 317.285,254.88 308.952,265.547 301,276.5C 301.521,291.48 301.521,306.48 301,321.5C 298.159,323.504 294.993,324.004 291.5,323C 279.605,318.219 267.605,313.719 255.5,309.5C 243.134,313.9 230.801,318.4 218.5,323C 214.219,324.458 211.053,323.292 209,319.5C 209.054,305.149 209.387,290.816 210,276.5C 202.048,265.547 193.715,254.88 185,244.5C 182.615,240.543 183.448,237.376 187.5,235C 200.839,231.165 214.172,227.332 227.5,223.5C 235.856,211.434 244.189,199.434 252.5,187.5 Z"/></g>
<g><path style="opacity:1" fill="#b4b4b4" d="M 136.5,231.5 C 129.22,266.487 134.886,299.153 153.5,329.5C 139.5,342.833 125.833,356.5 112.5,370.5C 94.0645,346.609 82.3978,319.609 77.5,289.5C 97.1667,270.167 116.833,250.833 136.5,231.5 Z"/></g>
<g><path style="opacity:1" fill="#5c5c5c" d="M 435.5,271.5 C 436.84,339.32 410.173,392.82 355.5,432C 301.539,465.403 244.873,470.736 185.5,448C 114.047,413.971 77.3803,357.138 75.5,277.5C 76.6167,281.295 77.2833,285.295 77.5,289.5C 82.3978,319.609 94.0645,346.609 112.5,370.5C 122.167,383.5 133.5,394.833 146.5,404.5C 153.046,409.86 160.046,414.694 167.5,419C 220.388,446.477 274.388,448.811 329.5,426C 393.497,394.169 428.83,342.669 435.5,271.5 Z"/></g>
<g><path style="opacity:1" fill="#cad4d9" d="M 153.5,329.5 C 162.806,342.139 173.806,353.139 186.5,362.5C 186.631,363.239 186.464,363.906 186,364.5C 172.631,377.701 159.465,391.035 146.5,404.5C 133.5,394.833 122.167,383.5 112.5,370.5C 125.833,356.5 139.5,342.833 153.5,329.5 Z"/></g>
</svg>
