<?xml version="1.0" encoding="UTF-8"?>
<svg version="1.1" xmlns="http://www.w3.org/2000/svg" width="32" height="32">
<path d="M0 0 C0.99 0 1.98 0 3 0 C3 0.66 3 1.32 3 2 C3.99 2 4.98 2 6 2 C6 1.34 6 0.68 6 0 C7.32 0 8.64 0 10 0 C10 0.66 10 1.32 10 2 C10.99 2 11.98 2 13 2 C13 1.34 13 0.68 13 0 C13.99 0 14.98 0 16 0 C16 0.66 16 1.32 16 2 C16.99 2 17.98 2 19 2 C19 1.34 19 0.68 19 0 C19.99 0 20.98 0 22 0 C22 0.66 22 1.32 22 2 C22.9590625 2.2165625 22.9590625 2.2165625 23.9375 2.4375 C26 3 26 3 27 4 C27.09983058 5.98757028 27.13080753 7.9786752 27.1328125 9.96875 C27.13474609 11.78439453 27.13474609 11.78439453 27.13671875 13.63671875 C27.13285156 14.91160156 27.12898438 16.18648437 27.125 17.5 C27.13080078 19.41232422 27.13080078 19.41232422 27.13671875 21.36328125 C27.13542969 22.57371094 27.13414063 23.78414062 27.1328125 25.03125 C27.13168457 26.15080078 27.13055664 27.27035156 27.12939453 28.42382812 C27 31 27 31 26 32 C23.79349344 32.10012401 21.58377614 32.1308118 19.375 32.1328125 C18.71290527 32.13376923 18.05081055 32.13472595 17.36865234 32.13571167 C15.96647039 32.13639326 14.5642853 32.13454042 13.16210938 32.13037109 C11.00904287 32.12502246 8.85618498 32.1303167 6.703125 32.13671875 C5.34374954 32.13605796 3.9843742 32.13477679 2.625 32.1328125 C1.37976563 32.13168457 0.13453125 32.13055664 -1.1484375 32.12939453 C-4 32 -4 32 -5 31 C-5.25380234 26.52668042 -5.18522721 22.0421654 -5.1875 17.5625 C-5.20586914 15.66274414 -5.20586914 15.66274414 -5.22460938 13.72460938 C-5.22654297 12.51740234 -5.22847656 11.31019531 -5.23046875 10.06640625 C-5.23457764 8.95209229 -5.23868652 7.83777832 -5.24291992 6.68969727 C-5 4 -5 4 -3 2 C-2.01 2 -1.02 2 0 2 C0 1.34 0 0.68 0 0 Z " fill="#FEFEFE" transform="translate(5,0)"/>
<path d="M0 0 C0.99 0 1.98 0 3 0 C3 0.66 3 1.32 3 2 C3.99 2 4.98 2 6 2 C6 1.34 6 0.68 6 0 C7.32 0 8.64 0 10 0 C10 0.66 10 1.32 10 2 C10.99 2 11.98 2 13 2 C13 1.34 13 0.68 13 0 C13.99 0 14.98 0 16 0 C16 0.66 16 1.32 16 2 C16.99 2 17.98 2 19 2 C19 1.34 19 0.68 19 0 C19.99 0 20.98 0 22 0 C22 0.66 22 1.32 22 2 C22.9590625 2.2165625 22.9590625 2.2165625 23.9375 2.4375 C26 3 26 3 27 4 C27.09983058 5.98757028 27.13080753 7.9786752 27.1328125 9.96875 C27.13474609 11.78439453 27.13474609 11.78439453 27.13671875 13.63671875 C27.13285156 14.91160156 27.12898438 16.18648437 27.125 17.5 C27.13080078 19.41232422 27.13080078 19.41232422 27.13671875 21.36328125 C27.13542969 22.57371094 27.13414063 23.78414062 27.1328125 25.03125 C27.13168457 26.15080078 27.13055664 27.27035156 27.12939453 28.42382812 C27 31 27 31 26 32 C23.79349344 32.10012401 21.58377614 32.1308118 19.375 32.1328125 C18.71290527 32.13376923 18.05081055 32.13472595 17.36865234 32.13571167 C15.96647039 32.13639326 14.5642853 32.13454042 13.16210938 32.13037109 C11.00904287 32.12502246 8.85618498 32.1303167 6.703125 32.13671875 C5.34374954 32.13605796 3.9843742 32.13477679 2.625 32.1328125 C1.37976563 32.13168457 0.13453125 32.13055664 -1.1484375 32.12939453 C-4 32 -4 32 -5 31 C-5.25380234 26.52668042 -5.18522721 22.0421654 -5.1875 17.5625 C-5.20586914 15.66274414 -5.20586914 15.66274414 -5.22460938 13.72460938 C-5.22654297 12.51740234 -5.22847656 11.31019531 -5.23046875 10.06640625 C-5.23457764 8.95209229 -5.23868652 7.83777832 -5.24291992 6.68969727 C-5 4 -5 4 -3 2 C-2.01 2 -1.02 2 0 2 C0 1.34 0 0.68 0 0 Z M-4 9 C-4.020625 12.444375 -4.04125 15.88875 -4.0625 19.4375 C-4.071604 20.52474365 -4.08070801 21.6119873 -4.09008789 22.73217773 C-4.09258545 23.58239502 -4.09508301 24.4326123 -4.09765625 25.30859375 C-4.10289307 26.18314209 -4.10812988 27.05769043 -4.11352539 27.95874023 C-4.22784809 29.99440206 -4.22784809 29.99440206 -3 31 C-0.9394469 31.09993532 1.1245259 31.13080906 3.1875 31.1328125 C4.44304688 31.13410156 5.69859375 31.13539062 6.9921875 31.13671875 C7.97783691 31.13357666 7.97783691 31.13357666 8.98339844 31.13037109 C10.99161335 31.12502234 12.99960459 31.13031691 15.0078125 31.13671875 C16.26335938 31.13542969 17.51890625 31.13414063 18.8125 31.1328125 C19.97394531 31.13168457 21.13539062 31.13055664 22.33203125 31.12939453 C24.92063284 31.30337474 24.92063284 31.30337474 26 30 C26.08685603 28.43827255 26.10702219 26.87270656 26.09765625 25.30859375 C26.09515869 24.45837646 26.09266113 23.60815918 26.09008789 22.73217773 C26.08098389 21.64493408 26.07187988 20.55769043 26.0625 19.4375 C26.0315625 14.2709375 26.0315625 14.2709375 26 9 C16.1 9 6.2 9 -4 9 Z " fill="#F4E15C" transform="translate(5,0)"/>
<path d="M0 0 C2.9375 0.9375 2.9375 0.9375 4.3125 2.9375 C5.15790839 6.99546028 5.57118091 10.81857409 4.9375 14.9375 C3.3125 17.0625 3.3125 17.0625 0.9375 17.9375 C-2.73543796 17.71712372 -4.43216546 17.56783454 -7.0625 14.9375 C-6.6875 12.3125 -6.6875 12.3125 -6.0625 9.9375 C-5.4025 9.9375 -4.7425 9.9375 -4.0625 9.9375 C-4.0625 8.9475 -4.0625 7.9575 -4.0625 6.9375 C-5.0525 6.6075 -6.0425 6.2775 -7.0625 5.9375 C-6.75 4.0625 -6.75 4.0625 -6.0625 1.9375 C-3.0625 -0.0625 -3.0625 -0.0625 0 0 Z " fill="#FBF0B9" transform="translate(17.0625,11.0625)"/>
<path d="M0 0 C0.99 0 1.98 0 3 0 C3 0.66 3 1.32 3 2 C3.99 2 4.98 2 6 2 C6 1.34 6 0.68 6 0 C7.32 0 8.64 0 10 0 C10 0.66 10 1.32 10 2 C10.99 2 11.98 2 13 2 C13 1.34 13 0.68 13 0 C13.99 0 14.98 0 16 0 C16 0.66 16 1.32 16 2 C16.99 2 17.98 2 19 2 C19 1.34 19 0.68 19 0 C19.99 0 20.98 0 22 0 C22 0.66 22 1.32 22 2 C23.32 2.33 24.64 2.66 26 3 C26.33 4.65 26.66 6.3 27 8 C20.4 8 13.8 8 7 8 C6.67 6.68 6.34 5.36 6 4 C4.63875 4.309375 4.63875 4.309375 3.25 4.625 C-0.11027897 5.0127245 -1.24075815 4.80411967 -4 3 C-2.68 2.67 -1.36 2.34 0 2 C0 1.34 0 0.68 0 0 Z " fill="#F2D11A" transform="translate(5,0)"/>
<path d="M0 0 C1.65 0 3.3 0 5 0 C5.70173653 4.38585329 6.10834375 8.55790643 6 13 C3.69 13.66 1.38 14.32 -1 15 C-1 14.34 -1 13.68 -1 13 C-0.01 13 0.98 13 2 13 C1.72965366 10.56282742 1.72965366 10.56282742 1 8 C0.01 7.34 -0.98 6.68 -2 6 C-0.68 5.67 0.64 5.34 2 5 C1.34 3.35 0.68 1.7 0 0 Z " fill="#FDF7D8" transform="translate(16,13)"/>
<path d="M0 0 C0.99 0 1.98 0 3 0 C3 0.66 3 1.32 3 2 C3.99 2 4.98 2 6 2 C6 1.34 6 0.68 6 0 C7.32 0 8.64 0 10 0 C10 0.66 10 1.32 10 2 C10.99 2 11.98 2 13 2 C13 1.34 13 0.68 13 0 C13.99 0 14.98 0 16 0 C16 0.66 16 1.32 16 2 C16.99 2 17.98 2 19 2 C19 1.34 19 0.68 19 0 C19.99 0 20.98 0 22 0 C22 0.66 22 1.32 22 2 C22.99 2.33 23.98 2.66 25 3 C24.01 3 23.02 3 22 3 C21.67 3.66 21.34 4.32 21 5 C20.67 4.67 20.34 4.34 20 4 C19.34 4.66 18.68 5.32 18 6 C17.34 6 16.68 6 16 6 C15.34 5.34 14.68 4.68 14 4 C11.42938689 3.35232207 11.42938689 3.35232207 9 3 C9 2.34 9 1.68 9 1 C8.34 1 7.68 1 7 1 C7 1.66 7 2.32 7 3 C0.6 5.21538462 0.6 5.21538462 -2.4375 4.125 C-2.953125 3.75375 -3.46875 3.3825 -4 3 C-2.68 2.67 -1.36 2.34 0 2 C0 1.34 0 0.68 0 0 Z " fill="#F0D407" transform="translate(5,0)"/>
<path d="M0 0 C0.66 0 1.32 0 2 0 C2.66 1.65 3.32 3.3 4 5 C5.65 4.67 7.3 4.34 9 4 C8.34 4.66 7.68 5.32 7 6 C3.875 5.625 3.875 5.625 1 5 C0.67 3.35 0.34 1.7 0 0 Z " fill="#FCF2C0" transform="translate(11,23)"/>
<path d="M0 0 C0.99 0.33 1.98 0.66 3 1 C3.66 0.67 4.32 0.34 5 0 C5 0.66 5 1.32 5 2 C5.66 2.33 6.32 2.66 7 3 C0.25 4.125 0.25 4.125 -2 3 C-1 1 -1 1 0 0 Z " fill="#EBD133" transform="translate(20,4)"/>
<path d="M0 0 C3 3.875 3 3.875 3 5 C1.02 5 -0.96 5 -3 5 C-3 3.68 -3 2.36 -3 1 C-2.01 0.67 -1.02 0.34 0 0 Z " fill="#F3D119" transform="translate(3,3)"/>
<path d="M0 0 C-4.75 3.875 -4.75 3.875 -7 5 C-6.67 4.01 -6.34 3.02 -6 2 C-6.66 1.34 -7.32 0.68 -8 0 C-5.13822943 -1.43088528 -3.06624227 -0.59991697 0 0 Z " fill="#FAEB9F" transform="translate(20,12)"/>
</svg>
