<?xml version="1.0" encoding="UTF-8"?>
<!DOCTYPE svg PUBLIC "-//W3C//DTD SVG 1.1//EN" "http://www.w3.org/Graphics/SVG/1.1/DTD/svg11.dtd">
<svg xmlns="http://www.w3.org/2000/svg" version="1.1" width="512px" height="512px" style="shape-rendering:geometricPrecision; text-rendering:geometricPrecision; image-rendering:optimizeQuality; fill-rule:evenodd; clip-rule:evenodd" xmlns:xlink="http://www.w3.org/1999/xlink">
<g><path style="opacity:0.99" fill="#000000" d="M 246.5,6.5 C 339.476,6.89622 411.976,45.2295 464,121.5C 502.776,185.596 512.442,253.93 493,326.5C 468.299,405.205 417.799,460.371 341.5,492C 329.044,496.541 316.378,500.374 303.5,503.5C 302.5,443.837 302.167,384.17 302.5,324.5C 318.514,324.833 334.514,324.499 350.5,323.5C 354.352,300.867 358.019,278.201 361.5,255.5C 337.167,255.5 312.833,255.5 288.5,255.5C 288.333,236.164 288.5,216.83 289,197.5C 292.845,181.988 302.678,173.155 318.5,171C 336.497,170.5 354.497,170.333 372.5,170.5C 372.5,150.167 372.5,129.833 372.5,109.5C 254.605,87.7238 203.605,136.39 219.5,255.5C 200.833,255.5 182.167,255.5 163.5,255.5C 163.5,278.5 163.5,301.5 163.5,324.5C 182.167,324.5 200.833,324.5 219.5,324.5C 219.5,384.167 219.5,443.833 219.5,503.5C 119.087,485.581 51.9206,428.581 18,332.5C -6.83726,244.351 9.16274,164.685 66,93.5C 113.961,39.438 174.127,10.438 246.5,6.5 Z"/></g>
</svg>
