<?xml version="1.0" encoding="UTF-8"?>
<!DOCTYPE svg PUBLIC "-//W3C//DTD SVG 1.1//EN" "http://www.w3.org/Graphics/SVG/1.1/DTD/svg11.dtd">
<svg xmlns="http://www.w3.org/2000/svg" version="1.1" width="512px" height="512px" style="shape-rendering:geometricPrecision; text-rendering:geometricPrecision; image-rendering:optimizeQuality; fill-rule:evenodd; clip-rule:evenodd" xmlns:xlink="http://www.w3.org/1999/xlink">
<g><path style="opacity:0.988" fill="#000000" d="M 236.5,-0.5 C 249.167,-0.5 261.833,-0.5 274.5,-0.5C 338.739,9.57744 384.906,43.9108 413,102.5C 431.841,150.271 430.841,197.604 410,244.5C 361.746,331.339 313.746,418.339 266,505.5C 264.64,508.023 262.807,510.023 260.5,511.5C 257.167,511.5 253.833,511.5 250.5,511.5C 248.193,510.023 246.36,508.023 245,505.5C 197.254,418.339 149.254,331.339 101,244.5C 75.8773,186.568 79.544,130.568 112,76.5C 142.362,32.9981 183.862,7.33144 236.5,-0.5 Z M 245.5,85.5 C 289.345,83.8221 319.512,103.155 336,143.5C 346.737,184.633 334.903,217.466 300.5,242C 273.539,257.11 245.873,258.443 217.5,246C 182.558,225.95 167.391,195.784 172,155.5C 178.071,125.764 194.904,104.597 222.5,92C 230.172,89.3364 237.838,87.1698 245.5,85.5 Z"/></g>
</svg>
