<?xml version="1.0" encoding="UTF-8"?>
<svg version="1.1" xmlns="http://www.w3.org/2000/svg" width="500" height="500">
<path d="M0 0 C8.29116113 5.21493527 13.78936537 12.62405843 16.25 22.0625 C16.98987538 28.3363275 16.75636553 34.70126525 16.70410156 41.00634766 C16.7029719 42.91912818 16.70360927 44.83191043 16.70587158 46.74468994 C16.70701501 51.91350812 16.68356591 57.08195183 16.65557575 62.25068331 C16.63050005 67.66119244 16.62821524 73.07171101 16.62347412 78.48226929 C16.61106246 88.71723322 16.57826532 98.9520254 16.53807616 109.18691385 C16.49330212 120.84348978 16.47135724 132.5000741 16.45129442 144.15671468 C16.40953111 168.12540485 16.33921426 192.09394278 16.25 216.0625 C17.24060614 216.05881283 18.23121227 216.05512566 19.25183678 216.05132675 C43.37294033 215.96246656 67.49402261 215.89676756 91.61525536 215.85525131 C103.2801839 215.83463991 114.94500421 215.80654639 126.60986328 215.76074219 C136.77881685 215.72083102 146.94769203 215.69505685 157.11672175 215.68614602 C162.49947671 215.68093856 167.88200742 215.66872854 173.2646904 215.63957977 C178.33555783 215.61234317 183.40610952 215.6040717 188.47704315 215.61006927 C190.33375135 215.60897273 192.19047058 215.60106816 194.04711533 215.5856781 C206.69569572 215.48601251 216.81904691 216.03929709 226.4921875 225.125 C232.91669979 232.20624021 234.46155061 238.42900618 234.5625 247.75 C234.59150391 248.62333984 234.62050781 249.49667969 234.65039062 250.39648438 C234.73435991 259.04532049 231.69879247 265.10588106 225.953125 271.4609375 C219.08262526 277.92172854 211.50774526 280.37683484 202.16348267 280.30300903 C201.36614696 280.30471788 200.56881125 280.30642673 199.74731386 280.30818737 C197.0848681 280.3114725 194.42267631 280.30049471 191.76025391 280.28955078 C189.84806321 280.28898646 187.93587208 280.28930364 186.02368164 280.29043579 C180.83821388 280.29100947 175.6528387 280.27925259 170.46739244 280.26528788 C165.04616802 280.25278315 159.62494146 280.25161022 154.20370483 280.24923706 C143.94033687 280.24302154 133.67701152 280.22660972 123.41366231 280.20653808 C111.72814082 280.18418134 100.0426173 280.17318621 88.35707974 280.16314721 C64.32136287 280.14224358 40.28568382 280.10706617 16.25 280.0625 C16.25368717 281.05310614 16.25737434 282.04371227 16.26117325 283.06433678 C16.35003344 307.18544033 16.41573244 331.30652261 16.45724869 355.42775536 C16.47786009 367.0926839 16.50595361 378.75750421 16.55175781 390.42236328 C16.59166898 400.59131685 16.61744315 410.76019203 16.62635398 420.92922175 C16.63156144 426.31197671 16.64377146 431.69450742 16.67292023 437.0771904 C16.70015683 442.14805783 16.7084283 447.21860952 16.70243073 452.28954315 C16.70352727 454.14625135 16.71143184 456.00297058 16.7268219 457.85961533 C16.83216592 471.22884673 15.94938175 481.01994866 6.33984375 491.1484375 C-1.78034804 498.58562251 -10.57527068 498.59264179 -21.02734375 498.39453125 C-29.32536889 497.99814436 -34.42262497 494.73317763 -40.125 488.875 C-48.94261692 479.06305606 -48.30649814 467.47169173 -48.20410156 455.11865234 C-48.2029719 453.20587182 -48.20360927 451.29308957 -48.20587158 449.38031006 C-48.20701501 444.21149188 -48.18356591 439.04304817 -48.15557575 433.87431669 C-48.13050005 428.46380756 -48.12821524 423.05328899 -48.12347412 417.64273071 C-48.11106246 407.40776678 -48.07826532 397.1729746 -48.03807616 386.93808615 C-47.99330212 375.28151022 -47.97135724 363.6249259 -47.95129442 351.96828532 C-47.90953111 327.99959515 -47.83921426 304.03105722 -47.75 280.0625 C-48.74152793 280.06618717 -49.73305586 280.06987434 -50.75463009 280.07367325 C-74.89207331 280.16251181 -99.02949529 280.22822218 -123.16706753 280.26974869 C-134.83987174 280.2903649 -146.51256789 280.31846764 -158.18530273 280.36425781 C-168.36047265 280.40415423 -178.53556428 280.42993966 -188.71081024 280.43885398 C-194.09744557 280.44406393 -199.48385697 280.45628989 -204.87042046 280.48542023 C-209.94374706 280.51263349 -215.01675817 280.52093299 -220.09015083 280.51493073 C-221.94889161 280.51602831 -223.80764329 280.52394685 -225.6663208 280.5393219 C-243.5856863 280.6802415 -243.5856863 280.6802415 -250.75 276.0625 C-251.54792969 275.60488281 -252.34585938 275.14726562 -253.16796875 274.67578125 C-259.01998497 270.373968 -263.43222233 265.01583301 -265.75 258.0625 C-266.02844438 254.83830612 -266.0274649 251.60990761 -266.0625 248.375 C-266.09150391 247.50166016 -266.12050781 246.62832031 -266.15039062 245.72851562 C-266.23435991 237.07967951 -263.19879247 231.01911894 -257.453125 224.6640625 C-250.58262526 218.20327146 -243.00774526 215.74816516 -233.66348267 215.82199097 C-232.46747911 215.81942769 -232.46747911 215.81942769 -231.24731386 215.81681263 C-228.5848681 215.8135275 -225.92267631 215.82450529 -223.26025391 215.83544922 C-221.34806321 215.83601354 -219.43587208 215.83569636 -217.52368164 215.83456421 C-212.33821388 215.83399053 -207.1528387 215.84574741 -201.96739244 215.85971212 C-196.54616802 215.87221685 -191.12494146 215.87338978 -185.70370483 215.87576294 C-175.44033687 215.88197846 -165.17701152 215.89839028 -154.91366231 215.91846192 C-143.22814082 215.94081866 -131.5426173 215.95181379 -119.85707974 215.96185279 C-95.82136287 215.98275642 -71.78568382 216.01793383 -47.75 216.0625 C-47.75368717 215.07189386 -47.75737434 214.08128773 -47.76117325 213.06066322 C-47.85003344 188.93955967 -47.91573244 164.81847739 -47.95724869 140.69724464 C-47.97786009 129.0323161 -48.00595361 117.36749579 -48.05175781 105.70263672 C-48.09166898 95.53368315 -48.11744315 85.36480797 -48.12635398 75.19577825 C-48.13156144 69.81302329 -48.14377146 64.43049258 -48.17292023 59.0478096 C-48.20015683 53.97694217 -48.2084283 48.90639048 -48.20243073 43.83545685 C-48.20352727 41.97874865 -48.21143184 40.12202942 -48.2268219 38.26538467 C-48.3301658 25.14998916 -47.60056976 14.91585699 -37.9765625 5.046875 C-28.21751008 -3.65066645 -12.06062804 -5.37484511 0 0 Z " fill="#060606" transform="translate(265.75,1.9375)"/>
<path d="M0 0 C-1.423125 0.37125 -1.423125 0.37125 -2.875 0.75 C-6.549382 2.2197528 -6.36353748 2.68433153 -8 6 C-9.8046875 7.60546875 -9.8046875 7.60546875 -11.875 9.1875 C-16.24271744 12.84050004 -18.16637547 16.6800762 -20 22 C-21.00166319 19.39087732 -21.12220063 18.30524592 -20.06640625 15.66796875 C-16.28235024 9.42673352 -8.54925092 -2.84975031 0 0 Z " fill="#9A9A9A" transform="translate(240,2)"/>
<path d="M0 0 C-1.50982731 3.42856619 -3.51713969 5.95678216 -6 8.75 C-7.051875 9.94882813 -7.051875 9.94882813 -8.125 11.171875 C-10 13 -10 13 -12 13 C-12.66 14.32 -13.32 15.64 -14 17 C-13.45831243 12.9120645 -12.25768123 10.57809524 -9.6875 7.375 C-9.09324219 6.61960938 -8.49898437 5.86421875 -7.88671875 5.0859375 C-3.28651685 0 -3.28651685 0 0 0 Z " fill="#7C7C7C" transform="translate(15,223)"/>
</svg>
