<?xml version="1.0" standalone="no"?>
<!DOCTYPE svg PUBLIC "-//W3C//DTD SVG 20010904//EN"
 "http://www.w3.org/TR/2001/REC-SVG-20010904/DTD/svg10.dtd">
<svg version="1.0" xmlns="http://www.w3.org/2000/svg"
 width="500.000000pt" height="500.000000pt" viewBox="0 0 500.000000 500.000000"
 preserveAspectRatio="xMidYMid meet">

<g transform="translate(0.000000,500.000000) scale(0.100000,-0.100000)"
fill="#000000" stroke="none">
<path d="M0 3803 c1 -1031 3 -1194 15 -1166 23 54 96 124 160 154 l60 29 972
0 973 0 2 983 3 982 23 43 c33 61 96 127 145 151 l42 21 -1197 0 -1198 0 0
-1197z"/>
<path d="M2647 4979 c49 -24 112 -90 145 -151 l23 -43 3 -982 2 -983 973 0
972 0 60 -29 c64 -30 137 -100 160 -154 12 -28 14 135 15 1166 l0 1197 -1197
0 -1198 0 42 -21z"/>
<path d="M0 1198 l0 -1198 1198 0 1197 0 -42 21 c-49 24 -112 90 -145 151
l-23 43 -3 982 -2 983 -983 2 -982 3 -50 27 c-57 29 -129 103 -150 151 -12 28
-14 -135 -15 -1165z"/>
<path d="M4986 2366 c-9 -37 -94 -125 -150 -154 l-51 -27 -982 -3 -983 -2 -2
-983 -3 -982 -23 -43 c-33 -61 -96 -127 -145 -151 l-42 -21 1198 0 1197 0 0
1195 c0 657 -2 1195 -4 1195 -2 0 -7 -11 -10 -24z"/>
</g>
</svg>
