<svg id="SvgjsSvg1001" width="288" height="288" xmlns="http://www.w3.org/2000/svg" version="1.1" xmlns:xlink="http://www.w3.org/1999/xlink" xmlns:svgjs="http://svgjs.com/svgjs"><defs id="SvgjsDefs1002"></defs><g id="SvgjsG1008"><svg xmlns="http://www.w3.org/2000/svg" enable-background="new 0 0 512 512" viewBox="0 0 512 512" width="288" height="288"><path d="M473,96h-1V66c0-9.925-8.075-18-18-18h-12c-9.925,0-18,8.075-18,18v30h-16V66c0-9.925-8.075-18-18-18h-12		c-9.925,0-18,8.075-18,18v30h-16V66c0-9.925-8.075-18-18-18h-12c-9.925,0-18,8.075-18,18v30h-16V66c0-9.925-8.075-18-18-18h-12
		c-9.925,0-18,8.075-18,18v30h-16V66c0-9.925-8.075-18-18-18h-12c-9.925,0-18,8.075-18,18v30h-16V66c0-9.925-8.075-18-18-18h-12
		c-9.925,0-18,8.075-18,18v30H88V66c0-9.925-8.075-18-18-18H58c-9.925,0-18,8.075-18,18v30h-1c-12.682,0-23,10.317-23,23v322
		c0,12.683,10.318,23,23,23h434c12.682,0,23-10.317,23-23V119C496,106.317,485.682,96,473,96z M440,66c0-1.103,0.897-2,2-2h12
		c1.103,0,2,0.897,2,2v60c0,1.103-0.897,2-2,2h-12c-1.103,0-2-0.897-2-2V66z M376,66c0-1.103,0.897-2,2-2h12c1.103,0,2,0.897,2,2v60
		c0,1.103-0.897,2-2,2h-12c-1.103,0-2-0.897-2-2V66z M312,66c0-1.103,0.897-2,2-2h12c1.103,0,2,0.897,2,2v60c0,1.103-0.897,2-2,2
		h-12c-1.103,0-2-0.897-2-2V66z M248,66c0-1.103,0.897-2,2-2h12c1.103,0,2,0.897,2,2v60c0,1.103-0.897,2-2,2h-12
		c-1.103,0-2-0.897-2-2V66z M184,66c0-1.103,0.897-2,2-2h12c1.103,0,2,0.897,2,2v60c0,1.103-0.897,2-2,2h-12c-1.103,0-2-0.897-2-2
		V66z M120,66c0-1.103,0.897-2,2-2h12c1.103,0,2,0.897,2,2v60c0,1.103-0.897,2-2,2h-12c-1.103,0-2-0.897-2-2V66z M56,66
		c0-1.103,0.897-2,2-2h12c1.103,0,2,0.897,2,2v60c0,1.103-0.897,2-2,2H58c-1.103,0-2-0.897-2-2V66z M39,112h1v14
		c0,9.925,8.075,18,18,18h12c9.925,0,18-8.075,18-18v-14h16v14c0,9.925,8.075,18,18,18h12c9.925,0,18-8.075,18-18v-14h16v14
		c0,9.925,8.075,18,18,18h12c9.925,0,18-8.075,18-18v-14h16v14c0,9.925,8.075,18,18,18h12c9.925,0,18-8.075,18-18v-14h16v14
		c0,9.925,8.075,18,18,18h12c9.925,0,18-8.075,18-18v-14h16v14c0,9.925,8.075,18,18,18h12c9.925,0,18-8.075,18-18v-14h16v14
		c0,9.925,8.075,18,18,18h12c9.925,0,18-8.075,18-18v-14h1c3.86,0,7,3.141,7,7v41H32v-41C32,115.141,35.14,112,39,112z M473,448H39
		c-3.86,0-7-3.141-7-7V176h448v265C480,444.859,476.86,448,473,448z" fill="#ffffff" class="svgShape color000000-0 selectable"></path><path d="M88 192H56c-4.418 0-8 3.582-8 8v32c0 4.418 3.582 8 8 8h32c4.418 0 8-3.582 8-8v-32C96 195.582 92.418 192 88 192zM80 224H64v-16h16V224zM152 240c4.418 0 8-3.582 8-8v-32c0-4.418-3.582-8-8-8h-32c-4.418 0-8 3.582-8 8v32c0 4.418 3.582 8 8 8H152zM128 208h16v16h-16V208zM184 240h32c4.418 0 8-3.582 8-8v-32c0-4.418-3.582-8-8-8h-32c-4.418 0-8 3.582-8 8v32C176 236.418 179.582 240 184 240zM192 208h16v16h-16V208zM88 256H56c-4.418 0-8 3.582-8 8v32c0 4.418 3.582 8 8 8h32c4.418 0 8-3.582 8-8v-32C96 259.582 92.418 256 88 256zM80 288H64v-16h16V288zM88 320H56c-4.418 0-8 3.582-8 8v32c0 4.418 3.582 8 8 8h32c4.418 0 8-3.582 8-8v-32C96 323.582 92.418 320 88 320zM80 352H64v-16h16V352zM88 384H56c-4.418 0-8 3.582-8 8v32c0 4.418 3.582 8 8 8h32c4.418 0 8-3.582 8-8v-32C96 387.582 92.418 384 88 384zM80 416H64v-16h16V416zM456 192h-32c-4.418 0-8 3.582-8 8v32c0 4.418 3.582 8 8 8h32c4.418 0 8-3.582 8-8v-32C464 195.582 460.418 192 456 192zM448 224h-16v-16h16V224zM456 256h-32c-4.418 0-8 3.582-8 8v32c0 4.418 3.582 8 8 8h32c4.418 0 8-3.582 8-8v-32C464 259.582 460.418 256 456 256zM448 288h-16v-16h16V288zM456 320h-32c-4.418 0-8 3.582-8 8v32c0 4.418 3.582 8 8 8h32c4.418 0 8-3.582 8-8v-32C464 323.582 460.418 320 456 320zM448 352h-16v-16h16V352zM456 384h-32c-4.418 0-8 3.582-8 8v32c0 4.418 3.582 8 8 8h32c4.418 0 8-3.582 8-8v-32C464 387.582 460.418 384 456 384zM448 416h-16v-16h16V416zM392 384h-32c-4.418 0-8 3.582-8 8v32c0 4.418 3.582 8 8 8h32c4.418 0 8-3.582 8-8v-32C400 387.582 396.418 384 392 384zM384 416h-16v-16h16V416zM328 384h-32c-4.418 0-8 3.582-8 8v32c0 4.418 3.582 8 8 8h32c4.418 0 8-3.582 8-8v-32C336 387.582 332.418 384 328 384zM320 416h-16v-16h16V416z" fill="#ffffff" class="svgShape color000000-1 selectable"></path><path d="M381.456,250.728c1.171-0.611,2.303-1.333,3.367-2.198c0,0,0,0,0,0c8.558-6.956,9.861-19.578,2.905-28.135l-15.137-18.624
		c-3.37-4.146-8.152-6.731-13.466-7.28c-5.315-0.551-10.524,1.006-14.669,4.375c-1.063,0.864-2.012,1.816-2.85,2.835l-0.254-0.313
		c-8.347-10.27-23.494-11.833-33.762-3.486c-2.212,1.798-4.017,3.913-5.409,6.225c-9.992-10.219-26.358-11.33-37.664-2.142
		c-5.804,4.717-9.423,11.412-10.191,18.853c-0.768,7.439,1.407,14.732,6.124,20.536l17.66,21.728l-74.496,60.551l-17.66-21.728
		c-4.717-5.804-11.413-9.424-18.852-10.192c-7.441-0.766-14.733,1.406-20.537,6.125c-11.305,9.188-13.562,25.437-5.6,37.307
		c-2.548,0.89-4.986,2.225-7.198,4.023c-4.975,4.043-8.078,9.782-8.736,16.158c-0.659,6.377,1.206,12.629,5.249,17.604l0.254,0.313
		c-1.169,0.611-2.295,1.346-3.358,2.21c-8.558,6.956-9.861,19.578-2.905,28.135l15.137,18.624c3.37,4.146,8.152,6.731,13.466,7.28
		c0.7,0.072,1.397,0.107,2.091,0.107c4.576,0,8.978-1.557,12.578-4.482c1.063-0.864,2.013-1.816,2.85-2.835l0.254,0.313
		c4.737,5.828,11.664,8.852,18.646,8.852c5.32,0,10.674-1.756,15.115-5.365c0,0,0,0,0.001,0c2.213-1.799,4.02-3.916,5.412-6.23
		c5.413,5.536,12.69,8.406,20.026,8.406c6.207,0,12.454-2.049,17.634-6.26c5.803-4.717,9.423-11.413,10.191-18.853
		s-1.407-14.732-6.124-20.536l-17.66-21.728l74.496-60.551l17.66,21.728c4.717,5.804,11.413,9.424,18.852,10.192
		c0.98,0.101,1.957,0.15,2.929,0.15c6.405,0,12.568-2.18,17.608-6.275c11.304-9.188,13.562-25.435,5.601-37.305
		c2.548-0.89,4.986-2.227,7.198-4.025c4.974-4.043,8.077-9.782,8.735-16.158c0.659-6.377-1.206-12.629-5.249-17.604L381.456,250.728
		z M157.452,412.719C157.452,412.719,157.452,412.719,157.452,412.719c-1.12,0.91-2.32,0.941-2.934,0.875
		c-0.615-0.063-1.783-0.337-2.693-1.456l-15.138-18.624c-1.391-1.712-1.13-4.235,0.581-5.627c0.741-0.602,1.633-0.895,2.52-0.895
		c1.163,0,2.316,0.504,3.105,1.474l15.139,18.626C159.424,408.804,159.164,411.328,157.452,412.719z M194.317,413.683
		c-3.423,2.781-8.471,2.261-11.253-1.162l-40.367-49.664c-1.348-1.658-1.969-3.742-1.75-5.868c0.22-2.125,1.253-4.038,2.912-5.386
		c1.48-1.203,3.265-1.789,5.039-1.789c2.326,0,4.634,1.008,6.213,2.949l40.369,49.667
		C198.262,405.852,197.741,410.9,194.317,413.683z M239.134,392.719c2.022,2.487,2.954,5.613,2.625,8.802s-1.88,6.058-4.368,8.079
		c-5.134,4.172-12.707,3.393-16.88-1.743l-65.596-80.703c-4.174-5.135-3.392-12.708,1.743-16.881c2.16-1.756,4.8-2.69,7.546-2.69
		c0.416,0,0.835,0.021,1.255,0.065c3.188,0.329,6.058,1.881,8.08,4.368L239.134,392.719z M223.798,348.483l-10.092-12.416
		l74.495-60.551l10.092,12.416L223.798,348.483z M355.343,313.728C355.343,313.728,355.343,313.728,355.343,313.728
		c-2.487,2.022-5.607,2.962-8.801,2.625c-3.188-0.329-6.058-1.881-8.08-4.368l-65.596-80.703c-2.022-2.487-2.954-5.613-2.625-8.802
		s1.88-6.058,4.368-8.079c2.221-1.805,4.897-2.683,7.558-2.683c3.491,0,6.955,1.512,9.323,4.426l65.596,80.703
		C361.259,301.981,360.478,309.555,355.343,313.728z M371.053,267.012c-0.22,2.125-1.253,4.038-2.912,5.386c0,0,0,0,0,0
		c-3.421,2.781-8.468,2.262-11.251-1.159l-40.37-49.667c-2.782-3.423-2.261-8.472,1.162-11.254c1.481-1.203,3.265-1.788,5.039-1.788
		c2.327,0,4.636,1.008,6.215,2.95l40.367,49.664C370.651,262.802,371.272,264.886,371.053,267.012z M374.731,236.113
		L374.731,236.113c-1.712,1.39-4.233,1.13-5.624-0.579l-15.139-18.626c-1.392-1.712-1.131-4.236,0.581-5.627
		c0.906-0.737,1.866-0.896,2.524-0.896c0.154,0,0.292,0.009,0.409,0.021c0.615,0.063,1.783,0.337,2.693,1.456l15.138,18.624
		C376.704,232.198,376.443,234.722,374.731,236.113z" fill="#ffffff" class="svgShape color000000-2 selectable"></path></svg></g></svg>